<?xml version="1.0" encoding="utf-8"?>
<!-- Generator: Adobe Illustrator 23.0.0, SVG Export Plug-In . SVG Version: 6.00 Build 0)  -->
<svg version="1.1" id="Layer_1" xmlns="http://www.w3.org/2000/svg" xmlns:xlink="http://www.w3.org/1999/xlink" x="0px" y="0px"
	 viewBox="0 0 165 30" style="enable-background:new 0 0 165 30;" xml:space="preserve">
<style type="text/css">
	.st0{fill:#0059A4;}
	.st1{fill:#007AC5;}
	.st2{fill:#139AE4;}
	.st3{fill:#111111;}
</style>
<g>
	<g>
		<path class="st0" d="M25.7,20.37h-7.52l-1.44,4.65h-3.48l6.89-20.02h3.62l6.89,20.02h-3.51L25.7,20.37z M24.78,17.46l-2.88-9.21
			l-2.85,9.21H24.78z"/>
		<path class="st1" d="M52.44,4.99v20.02H49.2V10.3L44.7,21.03h-3.46l-4.56-10.81v14.8h-3.15V4.99h3.98l5.48,12.97L48.4,4.99H52.44z
			"/>
		<path class="st2" d="M69.17,6.74c1.14,1.17,1.71,2.83,1.71,4.96s-0.59,3.8-1.77,4.99s-2.83,1.78-4.95,1.78h-3.76v6.53h-3.32V4.99
			h7.25C66.42,4.99,68.03,5.57,69.17,6.74z M67.46,11.76c0-2.54-1.1-3.82-3.29-3.82h-3.76v7.58h3.93
			C66.42,15.53,67.46,14.27,67.46,11.76z"/>
		<path class="st3" d="M80.28,24.89c-1.13-0.3-2.13-0.73-3-1.29l1.08-2.65c1.75,1,3.55,1.49,5.39,1.49c1.24,0,2.17-0.23,2.79-0.69
			c0.63-0.46,0.94-1.13,0.94-2.02c0-0.74-0.23-1.34-0.68-1.81c-0.45-0.47-1.17-0.83-2.14-1.09l-2.27-0.64
			c-1.71-0.48-2.96-1.16-3.73-2.05c-0.77-0.88-1.16-2.06-1.16-3.54c0-1.86,0.58-3.32,1.74-4.37c1.16-1.05,2.78-1.58,4.87-1.58
			c1,0,2.02,0.12,3.08,0.35c1.06,0.23,2.06,0.56,3,0.98l-1.11,2.65c-1.88-0.72-3.56-1.08-5.03-1.08c-1.09,0-1.92,0.21-2.49,0.64
			s-0.86,1.04-0.86,1.85c0,0.74,0.23,1.34,0.69,1.81c0.46,0.47,1.18,0.83,2.16,1.09l2.27,0.64c1.71,0.48,2.96,1.17,3.73,2.06
			c0.77,0.89,1.16,2.08,1.16,3.55c0,1.94-0.61,3.44-1.84,4.52s-2.94,1.62-5.13,1.62C82.57,25.34,81.41,25.19,80.28,24.89z"/>
		<path class="st3" d="M113.15,4.99v20.02h-3.24V10.3l-4.51,10.73h-3.46l-4.56-10.81v14.8h-3.15V4.99h3.98l5.48,12.97l5.42-12.97
			H113.15z"/>
		<path class="st3" d="M128.47,20.37h-7.52l-1.44,4.65h-3.48l6.89-20.02h3.62l6.89,20.02h-3.51L128.47,20.37z M127.55,17.46
			l-2.88-9.21l-2.85,9.21H127.55z"/>
		<path class="st3" d="M142.49,17.85h-2.88v7.16h-3.32V4.99h7c2.06,0,3.66,0.56,4.8,1.69c1.13,1.12,1.7,2.7,1.7,4.73
			c0,1.53-0.33,2.81-1,3.84s-1.62,1.76-2.88,2.18l5.03,7.58h-3.98L142.49,17.85z M139.61,15h3.68c2.05,0,3.07-1.18,3.07-3.54
			s-1.06-3.54-3.18-3.54h-3.57V15z"/>
		<path class="st3" d="M165,7.98h-5.09v17.04h-3.32V7.98h-5.06V4.99H165V7.98z"/>
	</g>
	<path class="st3" d="M1.67,25.34l1.19-9.56H0L1.19,4.66h7.04l-2.39,7.68H9.9L1.67,25.34z"/>
</g>
</svg>
