<?xml version="1.0" encoding="utf-8"?>
<!-- Generator: Adobe Illustrator 23.0.0, SVG Export Plug-In . SVG Version: 6.00 Build 0)  -->
<svg version="1.1" id="Layer_1" xmlns="http://www.w3.org/2000/svg" xmlns:xlink="http://www.w3.org/1999/xlink" x="0px" y="0px"
	 viewBox="0 0 165 30" style="enable-background:new 0 0 165 30;" xml:space="preserve">
<style type="text/css">
	.st0{fill:#0059A4;}
	.st1{fill:#007AC5;}
	.st2{fill:#139AE4;}
	.st3{fill:#333333;}
	.st4{fill:#FFDD09;}
	.st5{fill:#FFFFFF;}
	.st6{fill:#FD9808;}
</style>
<g>
	<g>
		<path class="st0" d="M27.3,20.3h-7.44l-1.42,4.59H15L21.8,5.1h3.58l6.81,19.79h-3.47L27.3,20.3z M26.4,17.43l-2.84-9.1l-2.82,9.1
			H26.4z"/>
		<path class="st1" d="M53.73,5.1V24.9h-3.2V10.35l-4.46,10.61h-3.42l-4.51-10.69V24.9h-3.12V5.1h3.94l5.41,12.82L49.74,5.1H53.73z"
			/>
		<path class="st2" d="M70.27,6.84c1.13,1.16,1.69,2.79,1.69,4.91s-0.58,3.76-1.75,4.93c-1.17,1.18-2.8,1.76-4.89,1.76h-3.72v6.45
			h-3.28V5.1h7.16C67.55,5.1,69.14,5.68,70.27,6.84z M68.58,11.8c0-2.52-1.08-3.77-3.25-3.77h-3.72v7.49h3.88
			C67.55,15.52,68.58,14.28,68.58,11.8z"/>
		<path class="st3" d="M81.25,24.77c-1.12-0.3-2.11-0.72-2.97-1.27l1.07-2.62c1.73,0.98,3.51,1.48,5.33,1.48
			c1.22,0,2.14-0.23,2.76-0.68c0.62-0.46,0.93-1.12,0.93-2c0-0.73-0.22-1.33-0.67-1.79c-0.45-0.46-1.15-0.82-2.12-1.08l-2.24-0.63
			c-1.69-0.47-2.93-1.15-3.69-2.02c-0.77-0.87-1.15-2.04-1.15-3.5c0-1.84,0.57-3.28,1.72-4.32c1.15-1.04,2.75-1.56,4.81-1.56
			c0.98,0,2,0.11,3.05,0.34c1.05,0.23,2.04,0.55,2.97,0.97l-1.09,2.62C88.1,8,86.44,7.65,84.98,7.65c-1.08,0-1.9,0.21-2.46,0.63
			c-0.56,0.42-0.85,1.03-0.85,1.83c0,0.73,0.23,1.33,0.68,1.79c0.46,0.46,1.17,0.82,2.13,1.08l2.24,0.63
			c1.69,0.47,2.93,1.15,3.69,2.04c0.77,0.88,1.15,2.05,1.15,3.51c0,1.91-0.61,3.4-1.82,4.47s-2.9,1.6-5.07,1.6
			C83.51,25.22,82.37,25.07,81.25,24.77z"/>
		<path class="st3" d="M113.74,5.1V24.9h-3.2V10.35l-4.46,10.61h-3.42l-4.51-10.69V24.9h-3.12V5.1h3.94l5.41,12.82l5.36-12.82
			H113.74z"/>
		<path class="st3" d="M128.89,20.3h-7.44l-1.42,4.59h-3.44l6.81-19.79h3.58l6.81,19.79h-3.47L128.89,20.3z M127.98,17.43l-2.84-9.1
			l-2.82,9.1H127.98z"/>
		<path class="st3" d="M142.75,17.82h-2.84v7.08h-3.28V5.1h6.92c2.04,0,3.62,0.56,4.74,1.67c1.12,1.11,1.68,2.67,1.68,4.67
			c0,1.51-0.33,2.78-0.98,3.8s-1.6,1.74-2.84,2.16l4.98,7.49h-3.94L142.75,17.82z M139.9,15h3.64c2.02,0,3.03-1.17,3.03-3.5
			S145.53,8,143.43,8h-3.53V15z"/>
		<path class="st3" d="M165,8.06h-5.03V24.9h-3.28V8.06h-5V5.1H165V8.06z"/>
	</g>
	<g transform="translate(0 1)">
		<path class="st4" d="M11.26,10.93H6.59l4.33-6.82H5.47L0.36,14.34h4.02l-4.02,9.54L11.26,10.93z"/>
		<path class="st5" d="M6.83,4.12H5.47L0.36,14.34h1.36L6.83,4.12z"/>
		<path class="st6" d="M9.56,10.93l-8.18,9.71l-1.36,3.24l10.91-12.95H9.56z"/>
		<path class="st3" d="M0.36,24.22c-0.07,0-0.14,0-0.17-0.03c-0.14-0.1-0.2-0.27-0.14-0.41l3.82-9.1H0.36
			c-0.1,0-0.24-0.07-0.31-0.17s-0.07-0.24,0-0.34L5.16,3.95c0.07-0.1,0.17-0.17,0.31-0.17h5.45c0.14,0,0.24,0.07,0.31,0.17
			c0.07,0.1,0.07,0.24,0,0.34l-3.99,6.31h4.02c0.14,0,0.24,0.07,0.31,0.2s0.03,0.27-0.03,0.37L0.63,24.12
			C0.56,24.19,0.46,24.22,0.36,24.22z M0.9,14h3.48c0.1,0,0.2,0.07,0.27,0.14c0.07,0.1,0.07,0.2,0.03,0.31l-3.14,7.5l9-10.67H6.59
			c-0.14,0-0.24-0.07-0.31-0.17s-0.07-0.24,0-0.34l4.02-6.31H5.67L0.9,14z"/>
	</g>
</g>
</svg>
