<?xml version="1.0" encoding="utf-8"?>
<!-- Generator: Adobe Illustrator 23.0.0, SVG Export Plug-In . SVG Version: 6.00 Build 0)  -->
<svg version="1.1" id="Layer_1" xmlns="http://www.w3.org/2000/svg" xmlns:xlink="http://www.w3.org/1999/xlink" x="0px" y="0px"
	 viewBox="0 0 1200 628" style="enable-background:new 0 0 1200 628;" xml:space="preserve">
<style type="text/css">
	.st0{fill:#333333;}
	.st1{fill:#93353C;}
	.st2{fill:none;stroke:#FFFFFF;stroke-miterlimit:10;}
	.st3{opacity:0;fill:#999999;}
	.st4{fill:#FFFFFF;}
	.st5{fill:#EEEEEE;}
</style>
<rect x="365" y="0" class="st0" width="835" height="628"/>
<polygon class="st1" points="500.3,0 0.3,0 -249.8,433 0.3,866 500.3,866 750.3,433 "/>
<rect x="50" y="50" class="st2" width="1100" height="528"/>
<g>
	<rect x="140.9" y="119.5" class="st3" width="909.1" height="389.1"/>
	<g>
		<g>
			<path class="st4" d="M830.6,213.9c2.2-3.3,5.4-6,9.6-8.1c4.3-2.1,9.4-3.1,15.5-3.1c6.2,0,11.4,1,15.6,3.1
				c4.3,2.1,7.5,4.8,9.6,8.1c2.1,3.3,3.2,6.9,3.2,10.7c0,4.2-1,7.7-2.9,10.6c-1.9,2.9-4.7,5.2-8.5,6.7c8.8,3.9,13.2,10.6,13.2,19.9
				c0,5.3-1.3,9.9-4,13.7c-2.7,3.8-6.3,6.7-10.8,8.7c-4.6,2-9.7,2.9-15.4,2.9c-5.6,0-10.8-1-15.4-2.9c-4.6-2-8.2-4.9-10.9-8.7
				c-2.7-3.8-4-8.4-4-13.7c0-9.3,4.4-16,13.2-19.9c-3.7-1.6-6.5-3.8-8.5-6.7c-1.9-2.9-2.9-6.5-2.9-10.6
				C827.4,220.8,828.5,217.2,830.6,213.9z M847.2,268.6c2.1,1.9,5,2.9,8.6,2.9c3.6,0,6.5-1,8.6-2.9c2.1-1.9,3.2-4.6,3.2-7.9
				c0-3.3-1.1-6-3.3-7.8c-2.2-1.9-5-2.8-8.5-2.8c-3.5,0-6.3,0.9-8.5,2.8c-2.2,1.9-3.3,4.5-3.3,7.8C844,264,845.1,266.7,847.2,268.6z
				 M848.7,234.7c1.7,1.6,4.1,2.4,7.1,2.4c3,0,5.3-0.8,7.1-2.4c1.7-1.6,2.6-3.9,2.6-7c0-3-0.9-5.3-2.7-7c-1.8-1.7-4.1-2.6-7-2.6
				c-2.9,0-5.2,0.9-7,2.6c-1.8,1.7-2.7,4-2.7,7C846.1,230.8,847,233.1,848.7,234.7z"/>
			<path class="st4" d="M896.4,245.4c0-12.2,2.5-21.9,7.5-29.1c5-7.2,12.9-10.7,23.8-10.7c10.8,0,18.7,3.6,23.7,10.7
				c5,7.2,7.5,16.9,7.5,29.1c0,12.3-2.5,22.1-7.5,29.3c-5,7.2-12.9,10.8-23.7,10.8c-10.9,0-18.8-3.6-23.8-10.8
				C898.9,267.4,896.4,257.7,896.4,245.4z M940,245.4c0-7-0.8-12.4-2.5-16.2c-1.7-3.7-5-5.6-9.8-5.6c-5,0-8.3,1.9-10,5.7
				c-1.7,3.8-2.6,9.2-2.6,16.1c0,7,0.9,12.5,2.6,16.3c1.7,3.8,5,5.7,10,5.7c4.9,0,8.2-1.9,9.8-5.7C939.2,257.8,940,252.4,940,245.4z
				"/>
			<path class="st4" d="M998.1,210.4c3.4,3.3,5.2,7.9,5.2,13.8c0,5.9-1.7,10.5-5.2,13.8c-3.4,3.3-7.9,4.9-13.3,4.9
				c-5.6,0-10.1-1.6-13.5-4.9c-3.4-3.3-5.2-7.9-5.2-13.8c0-5.9,1.7-10.5,5.2-13.8c3.4-3.3,8-4.9,13.5-4.9
				C990.2,205.5,994.7,207.2,998.1,210.4z M1038.8,206.6l-42.9,78.9h-18.4l42.9-78.9H1038.8z M980.4,229.6c1,1.3,2.4,1.9,4.2,1.9
				c1.9,0,3.3-0.6,4.4-1.9c1.1-1.3,1.7-3.1,1.7-5.4c0-2.3-0.6-4.1-1.7-5.4c-1.1-1.3-2.6-1.9-4.4-1.9c-1.8,0-3.2,0.7-4.2,1.9
				c-1,1.3-1.6,3.1-1.6,5.4C978.8,226.5,979.3,228.3,980.4,229.6z M1044.9,254c3.4,3.3,5.1,7.9,5.1,13.8c0,5.9-1.7,10.5-5.1,13.8
				c-3.4,3.3-7.9,5-13.3,5c-5.4,0-9.8-1.6-13.3-5c-3.4-3.3-5.2-7.9-5.2-13.8c0-5.9,1.7-10.5,5.2-13.8c3.4-3.3,7.9-4.9,13.3-4.9
				C1037,249.1,1041.5,250.8,1044.9,254z M1027.2,273.3c1,1.3,2.5,1.9,4.3,1.9c1.8,0,3.2-0.6,4.3-1.9c1.1-1.3,1.6-3.1,1.6-5.5
				c0-2.3-0.5-4.1-1.6-5.4c-1.1-1.3-2.5-1.9-4.3-1.9c-1.9,0-3.3,0.7-4.3,1.9c-1,1.3-1.6,3.1-1.6,5.4
				C1025.6,270.2,1026.2,272,1027.2,273.3z"/>
		</g>
		<g>
			<path class="st4" d="M891.9,341.7c6.7,3.8,12,9.1,15.8,15.9c3.9,6.8,5.8,14.5,5.8,23c0,8.6-2,16.2-5.9,23.1
				c-3.9,6.8-9.2,12.1-15.9,16c-6.7,3.8-14.1,5.7-22.3,5.7c-8.1,0-15.6-1.9-22.3-5.7c-6.7-3.8-12-9.1-15.9-16
				c-3.9-6.8-5.9-14.5-5.9-23.1c0-8.5,2-16.2,5.9-23c3.9-6.8,9.2-12.1,15.9-15.9c6.7-3.8,14.1-5.7,22.3-5.7
				C877.8,335.9,885.2,337.9,891.9,341.7z M853.1,362.3c-4.1,4.5-6.1,10.6-6.1,18.3c0,7.6,2,13.7,6.1,18.3c4.1,4.5,9.6,6.8,16.5,6.8
				c6.8,0,12.3-2.3,16.4-6.8c4.1-4.5,6.2-10.6,6.2-18.3c0-7.6-2-13.7-6.1-18.3c-4.1-4.5-9.6-6.8-16.5-6.8
				C862.7,355.6,857.2,357.8,853.1,362.3z"/>
			<path class="st4" d="M982.3,337.3v16.8h-35.8v19.1h27.6v16h-27.6v35.3h-21.1v-87.2H982.3z"/>
			<path class="st4" d="M1050,337.3v16.8h-35.8v19.1h27.6v16h-27.6v35.3h-21.1v-87.2H1050z"/>
		</g>
	</g>
	<g>
		<rect y="370.8" class="st0" width="459.1" height="77.3"/>
		<g>
			<path class="st4" d="M171.9,290.7c1.4,1.7,2,3.7,2,5.9c0,3.3-1.1,5.9-3.3,7.7c-2.2,1.9-5.4,2.8-9.5,2.8h-17.9v-38.5h17.5
				c3.9,0,7,0.9,9.1,2.6c2.1,1.7,3.2,4.1,3.2,7.3c0,2.3-0.6,4.3-1.9,5.8c-1.2,1.5-2.9,2.6-4.9,3C168.7,287.9,170.5,289,171.9,290.7z
				 M152.5,284.4h6.1c3.2,0,4.9-1.4,4.9-4.1c0-2.8-1.7-4.1-5-4.1h-6V284.4z M164.4,295.4c0-1.4-0.5-2.5-1.4-3.2
				c-0.9-0.8-2.2-1.2-3.9-1.2h-6.6v8.7h6.7C162.7,299.6,164.4,298.2,164.4,295.4z"/>
			<path class="st4" d="M188.2,300.1h12.4v7.1h-21.8v-38.5h9.3V300.1z"/>
			<path class="st4" d="M228.8,300.2h-14.4l-2.4,7h-9.8l14.1-38.3H227l14.1,38.3h-9.9L228.8,300.2z M226.4,293.1l-4.8-14.2
				l-4.9,14.2H226.4z"/>
			<path class="st4" d="M274.5,272.1c3.2,2.6,5.3,6.1,6.2,10.5h-9.9c-0.7-1.8-1.8-3.2-3.4-4.2c-1.5-1-3.3-1.5-5.4-1.5
				c-2.7,0-4.9,1-6.6,3c-1.7,2-2.5,4.7-2.5,8c0,3.3,0.8,6,2.5,8c1.7,2,3.9,3,6.6,3c2.1,0,3.9-0.5,5.4-1.5c1.5-1,2.6-2.4,3.4-4.1h9.9
				c-0.9,4.4-3,7.8-6.2,10.4c-3.2,2.6-7.3,3.9-12.2,3.9c-3.7,0-7-0.8-9.9-2.5c-2.8-1.7-5-4-6.6-7c-1.5-3-2.3-6.4-2.3-10.2
				s0.8-7.2,2.3-10.2c1.5-3,3.7-5.3,6.6-7c2.8-1.7,6.1-2.5,9.9-2.5C267.2,268.3,271.3,269.6,274.5,272.1z"/>
			<path class="st4" d="M304.1,287.5l15.5,19.7h-11.3l-13.1-17.3v17.3H286v-38.5h9.3v17l13.2-17h11.2L304.1,287.5z"/>
			<path class="st4" d="M348.7,268.7v7.4h-15.8v8.5h12.2v7.1h-12.2v15.6h-9.3v-38.5H348.7z"/>
			<path class="st4" d="M373.3,307.2l-8.3-14.6h-2.1v14.6h-9.3v-38.5h15.9c3.1,0,5.6,0.5,7.7,1.6c2.1,1.1,3.7,2.5,4.7,4.3
				c1.1,1.8,1.6,3.9,1.6,6.3c0,2.8-0.8,5.2-2.3,7.1c-1.5,2-3.8,3.3-6.7,4l9.2,15.2H373.3z M362.8,286.3h5.8c1.9,0,3.2-0.4,4.1-1.2
				c0.9-0.8,1.3-2,1.3-3.6c0-1.5-0.4-2.7-1.3-3.6c-0.9-0.9-2.2-1.3-4.1-1.3h-5.8V286.3z"/>
			<path class="st4" d="M397.5,268.7v38.5h-9.3v-38.5H397.5z"/>
			<path class="st4" d="M436.2,297.9c-1.6,2.9-3.9,5.2-7,6.8c-3,1.6-6.6,2.5-10.7,2.5h-14.6v-38.5h14.6c4.1,0,7.7,0.8,10.7,2.4
				c3,1.6,5.3,3.9,7,6.8c1.6,2.9,2.4,6.3,2.4,10C438.6,291.6,437.8,295,436.2,297.9z M426.2,296c2-1.9,3-4.6,3-8.1
				c0-3.5-1-6.2-3-8.1c-2-1.9-4.8-2.9-8.5-2.9h-4.4v22h4.4C421.3,298.9,424.1,297.9,426.2,296z"/>
			<path class="st4" d="M467.8,300.2h-14.4l-2.4,7h-9.8l14.1-38.3H466l14.1,38.3h-9.9L467.8,300.2z M465.4,293.1l-4.8-14.2
				l-4.9,14.2H465.4z"/>
			<path class="st4" d="M517,268.7l-13.4,25.7v12.8h-9.4v-12.8l-13.4-25.7h10.7l7.4,15.7l7.4-15.7H517z"/>
		</g>
		<g>
			<path class="st4" d="M164.5,395.6c2.4,1.4,4.3,3.2,5.6,5.7c1.4,2.4,2.1,5.1,2.1,8.2s-0.7,5.8-2.1,8.2c-1.4,2.4-3.3,4.3-5.7,5.7
				c-2.4,1.4-5,2-7.9,2s-5.5-0.7-7.9-2c-2.4-1.4-4.3-3.3-5.7-5.7c-1.4-2.4-2.1-5.2-2.1-8.2s0.7-5.8,2.1-8.2c1.4-2.4,3.3-4.3,5.7-5.7
				c2.4-1.4,5-2,7.9-2C159.5,393.6,162.1,394.2,164.5,395.6z M150.7,402.9c-1.4,1.6-2.2,3.8-2.2,6.5c0,2.7,0.7,4.9,2.2,6.5
				c1.4,1.6,3.4,2.4,5.9,2.4c2.4,0,4.4-0.8,5.8-2.4c1.5-1.6,2.2-3.8,2.2-6.5c0-2.7-0.7-4.9-2.2-6.5c-1.4-1.6-3.4-2.4-5.9-2.4
				S152.2,401.3,150.7,402.9z"/>
			<path class="st4" d="M192.4,425.1l-6.7-11.7h-1.7v11.7h-7.5v-31h12.8c2.5,0,4.5,0.4,6.2,1.3c1.7,0.8,3,2,3.8,3.5
				c0.8,1.5,1.3,3.2,1.3,5.1c0,2.3-0.6,4.2-1.9,5.7c-1.2,1.6-3,2.7-5.4,3.2l7.4,12.2H192.4z M183.9,408.2h4.6c1.5,0,2.6-0.3,3.3-1
				c0.7-0.7,1.1-1.6,1.1-2.9c0-1.2-0.4-2.2-1.1-2.9c-0.7-0.7-1.8-1.1-3.3-1.1h-4.6V408.2z"/>
			<path class="st4" d="M230.3,417.6c-1.3,2.4-3.2,4.2-5.6,5.5c-2.4,1.3-5.3,2-8.6,2h-11.7v-31h11.7c3.3,0,6.2,0.6,8.6,1.9
				c2.4,1.3,4.3,3.1,5.6,5.4c1.3,2.3,2,5,2,8.1S231.6,415.2,230.3,417.6z M222.2,416c1.6-1.6,2.4-3.7,2.4-6.5s-0.8-5-2.4-6.5
				c-1.6-1.5-3.9-2.3-6.8-2.3h-3.6v17.7h3.6C218.3,418.3,220.6,417.6,222.2,416z"/>
			<path class="st4" d="M244,400v6.5h10.5v5.7H244v6.9h11.8v6h-19.3v-31h19.3v6H244z"/>
			<path class="st4" d="M276,425.1l-6.7-11.7h-1.7v11.7H260v-31h12.8c2.5,0,4.5,0.4,6.2,1.3c1.7,0.8,3,2,3.8,3.5
				c0.8,1.5,1.3,3.2,1.3,5.1c0,2.3-0.6,4.2-1.9,5.7c-1.2,1.6-3,2.7-5.4,3.2l7.4,12.2H276z M267.5,408.2h4.6c1.5,0,2.6-0.3,3.3-1
				c0.7-0.7,1.1-1.6,1.1-2.9c0-1.2-0.4-2.2-1.1-2.9c-0.7-0.7-1.8-1.1-3.3-1.1h-4.6V408.2z"/>
			<path class="st4" d="M324.3,425.1h-7.5l-12.5-19v19h-7.5v-31h7.5l12.5,19.2V394h7.5V425.1z"/>
			<path class="st4" d="M352.1,395.6c2.4,1.4,4.3,3.2,5.6,5.7c1.4,2.4,2.1,5.1,2.1,8.2s-0.7,5.8-2.1,8.2c-1.4,2.4-3.3,4.3-5.7,5.7
				c-2.4,1.4-5,2-7.9,2s-5.5-0.7-7.9-2c-2.4-1.4-4.3-3.3-5.7-5.7c-1.4-2.4-2.1-5.2-2.1-8.2s0.7-5.8,2.1-8.2c1.4-2.4,3.3-4.3,5.7-5.7
				c2.4-1.4,5-2,7.9-2C347.1,393.6,349.8,394.2,352.1,395.6z M338.3,402.9c-1.4,1.6-2.2,3.8-2.2,6.5c0,2.7,0.7,4.9,2.2,6.5
				c1.4,1.6,3.4,2.4,5.9,2.4c2.4,0,4.4-0.8,5.8-2.4c1.5-1.6,2.2-3.8,2.2-6.5c0-2.7-0.7-4.9-2.2-6.5c-1.4-1.6-3.4-2.4-5.9-2.4
				C341.7,400.5,339.8,401.3,338.3,402.9z"/>
			<path class="st4" d="M406.2,394l-7.4,31h-9.3l-5-20.7l-5,20.7h-9.3l-7.4-31h8.2l4,22.5l5.4-22.5h8.2l5.4,22.5l4-22.5H406.2z"/>
		</g>
		<g>
			<g>
				<path class="st4" d="M169.4,236.5c-1,1.7-2.6,3.1-4.6,4.1c-2,1-4.5,1.5-7.3,1.5c-4.3,0-7.9-1.1-10.7-3.2
					c-2.8-2.1-4.3-5.1-4.6-8.8h9.9c0.1,1.5,0.7,2.6,1.6,3.4c0.9,0.8,2,1.3,3.4,1.3c1.2,0,2.1-0.3,2.8-1c0.7-0.7,1-1.5,1-2.6
					c0-1-0.3-1.8-1-2.5c-0.6-0.7-1.4-1.2-2.4-1.6c-0.9-0.4-2.3-0.9-3.9-1.5c-2.4-0.8-4.4-1.6-6-2.4c-1.5-0.8-2.9-1.9-4-3.5
					c-1.1-1.5-1.7-3.6-1.7-6c0-2.3,0.6-4.3,1.7-5.9c1.2-1.7,2.8-3,4.8-3.8c2.1-0.9,4.4-1.3,7.1-1.3c4.3,0,7.7,1,10.2,3.1
					c2.5,2,4,4.8,4.3,8.4h-10.1c-0.2-1.3-0.6-2.3-1.4-3c-0.7-0.7-1.8-1.1-3-1.1c-1.1,0-2,0.3-2.6,0.9c-0.7,0.6-1,1.4-1,2.6
					c0,0.9,0.3,1.7,0.9,2.3c0.6,0.6,1.4,1.2,2.3,1.6c0.9,0.4,2.2,0.9,3.9,1.5c2.5,0.8,4.5,1.7,6.1,2.5c1.6,0.8,2.9,2,4,3.6
					c1.1,1.6,1.7,3.6,1.7,6.1C170.9,233,170.4,234.8,169.4,236.5z"/>
				<path class="st4" d="M185.4,228.3v13.5h-9.3v-38.5h15.1c4.6,0,8.1,1.1,10.5,3.4c2.4,2.3,3.6,5.3,3.6,9.2c0,2.4-0.5,4.5-1.6,6.4
					c-1.1,1.9-2.7,3.3-4.8,4.4c-2.1,1.1-4.7,1.6-7.7,1.6H185.4z M195.8,215.8c0-3.4-1.9-5.1-5.6-5.1h-4.7v10h4.7
					C193.9,220.8,195.8,219.1,195.8,215.8z"/>
				<path class="st4" d="M219.2,210.7v8.1h13v7h-13v8.6h14.7v7.5h-24v-38.5h24v7.4H219.2z"/>
				<path class="st4" d="M268.9,206.7c3.2,2.6,5.3,6.1,6.2,10.5h-9.9c-0.7-1.8-1.8-3.2-3.4-4.2c-1.5-1-3.3-1.5-5.4-1.5
					c-2.7,0-4.9,1-6.6,3c-1.7,2-2.5,4.7-2.5,8c0,3.3,0.8,6,2.5,8c1.7,2,3.9,3,6.6,3c2.1,0,3.9-0.5,5.4-1.5c1.5-1,2.6-2.4,3.4-4.1
					h9.9c-0.9,4.4-3,7.8-6.2,10.4c-3.2,2.6-7.3,3.9-12.2,3.9c-3.7,0-7-0.8-9.9-2.5c-2.8-1.7-5-4-6.6-7c-1.5-3-2.3-6.4-2.3-10.2
					c0-3.8,0.8-7.2,2.3-10.2c1.5-3,3.7-5.3,6.6-7c2.8-1.7,6.1-2.5,9.9-2.5C261.6,202.9,265.7,204.1,268.9,206.7z"/>
				<path class="st4" d="M289.7,203.2v38.5h-9.3v-38.5H289.7z"/>
				<path class="st4" d="M320,234.7h-14.4l-2.4,7h-9.8l14.1-38.3h10.7l14.1,38.3h-9.9L320,234.7z M317.6,227.7l-4.8-14.2l-4.9,14.2
					H317.6z"/>
				<path class="st4" d="M345.3,234.6h12.4v7.1H336v-38.5h9.3V234.6z"/>
			</g>
			<g>
				<g>
					<polyline id="XMLID_18_" class="st5" points="403.7,242.2 432.7,224.3 432.7,213.4 403.7,231.4 					"/>
					<polyline id="XMLID_21_" class="st4" points="403.7,242.2 374.8,224.3 383.9,219.2 403.7,231.4 					"/>
					<polyline id="XMLID_6_" class="st4" points="374.8,224.3 394.1,213.4 394.1,213.4 403.7,220.5 411.1,215.3 394.1,202.6 
						374.8,213.4 					"/>
					<polyline id="XMLID_9_" class="st5" points="423.6,219.2 413.4,213.4 410.9,215.3 403.7,209.9 413.4,202.6 432.7,213.4 					
						"/>
				</g>
			</g>
		</g>
	</g>
</g>
</svg>
