<svg id="Layer_1" data-name="Layer 1" xmlns="http://www.w3.org/2000/svg" viewBox="0 0 250 59.09"><defs><style>.cls-1{fill:#4285f4;}.cls-2{fill:#ea4335;}.cls-3{fill:#fbbc05;}.cls-4{fill:#34a853;}</style></defs><title>GoizenLogo</title><path class="cls-1" d="M14.35,63.35A27.92,27.92,0,0,1,0,38.57,27.92,27.92,0,0,1,14.35,13.78a29,29,0,0,1,14.43-3.69,29.74,29.74,0,0,1,11.69,2.24,26.24,26.24,0,0,1,9.1,6.36l-7.08,6.93a18.48,18.48,0,0,0-6.05-4.34,19.28,19.28,0,0,0-7.73-1.45,18.71,18.71,0,0,0-9.22,2.33,17.15,17.15,0,0,0-6.66,6.62,19.27,19.27,0,0,0-2.47,9.79,19,19,0,0,0,2.51,9.78A17.38,17.38,0,0,0,19.61,55a18.88,18.88,0,0,0,9.25,2.32,17.72,17.72,0,0,0,12.49-4.49A13,13,0,0,0,44,49.3a17.33,17.33,0,0,0,1.68-4.64H28.56V35.9H55.28a19.57,19.57,0,0,1,.54,4.8,30.09,30.09,0,0,1-1.64,10,22.35,22.35,0,0,1-5,8.15A24.05,24.05,0,0,1,40.36,65a30.55,30.55,0,0,1-11.58,2.1A29,29,0,0,1,14.35,63.35Z" transform="translate(0 -7.95)"/><path class="cls-2" d="M71.73,64.34A19.3,19.3,0,0,1,64.38,57a21.22,21.22,0,0,1-2.62-10.55A21.26,21.26,0,0,1,64.38,35.9a19.2,19.2,0,0,1,7.35-7.42,22.48,22.48,0,0,1,21.4,0,19.06,19.06,0,0,1,7.35,7.42,21.27,21.27,0,0,1,2.63,10.51A21.23,21.23,0,0,1,100.48,57a19.16,19.16,0,0,1-7.35,7.38,22.48,22.48,0,0,1-21.4,0ZM87.8,56.46a10,10,0,0,0,3.89-4,12.33,12.33,0,0,0,1.44-6.09,12.21,12.21,0,0,0-1.44-6,10.15,10.15,0,0,0-3.89-4,11.05,11.05,0,0,0-10.66,0,10.43,10.43,0,0,0-3.92,4,11.92,11.92,0,0,0-1.49,6,12.09,12.09,0,0,0,1.49,6.05,10.26,10.26,0,0,0,3.92,4,11.05,11.05,0,0,0,10.66,0Z" transform="translate(0 -7.95)"/><path class="cls-3" d="M111,20.82a6.23,6.23,0,0,1-1.91-4.57A6.13,6.13,0,0,1,111,11.72a6.3,6.3,0,0,1,4.57-1.86A6.35,6.35,0,0,1,122,16.25a6.3,6.3,0,0,1-1.86,4.57,6.13,6.13,0,0,1-4.53,1.91A6.23,6.23,0,0,1,111,20.82ZM110.57,27h10V65.83h-10Z" transform="translate(0 -7.95)"/><path class="cls-1" d="M129,57.68l20.25-22.24H129.61V27h31.9v8.15L141.26,57.38h20.86v8.45H129Z" transform="translate(0 -7.95)"/><path class="cls-4" d="M176.9,64.38A19,19,0,0,1,169.62,57,21.16,21.16,0,0,1,167,46.49a21.19,21.19,0,0,1,2.59-10.32,19.89,19.89,0,0,1,7.15-7.58A19.06,19.06,0,0,1,187,25.77a19.88,19.88,0,0,1,10.35,2.59,16.91,16.91,0,0,1,6.59,7.08,22,22,0,0,1,2.25,10,24,24,0,0,1-.23,3.35H176.74a11,11,0,0,0,3.7,7,10.75,10.75,0,0,0,7,2.4,11.24,11.24,0,0,0,5.9-1.48,10.9,10.9,0,0,0,3.92-4l8.08,4q-5.94,10.37-18,10.36A20.52,20.52,0,0,1,176.9,64.38Zm19.64-22.69a7.65,7.65,0,0,0-1.33-3.62,9.42,9.42,0,0,0-3.27-3A9.84,9.84,0,0,0,187,33.92a9.35,9.35,0,0,0-6.13,2.1,11.68,11.68,0,0,0-3.69,5.67Z" transform="translate(0 -7.95)"/><path class="cls-2" d="M213.83,27h9.36v4.87h.61a12.31,12.31,0,0,1,4.95-4.45,15.05,15.05,0,0,1,6.93-1.64q7,0,10.66,4.27T250,41.69V65.83H240V42.91a8.2,8.2,0,0,0-1.9-5.79,6.92,6.92,0,0,0-5.33-2.06,7.89,7.89,0,0,0-6.51,3.13A12.22,12.22,0,0,0,223.8,46v19.8h-10Z" transform="translate(0 -7.95)"/><path class="cls-3" d="M249.77,20.17a1.89,1.89,0,0,0-1.65-1H243.6l.77-9.22a1.88,1.88,0,0,0-3.43-1.19l-9.38,14.06a1.91,1.91,0,0,0-.09,1.93,1.88,1.88,0,0,0,1.65,1h4.54l-.78,10.16a1.87,1.87,0,0,0,1.28,1.93,2,2,0,0,0,.59.09,1.88,1.88,0,0,0,1.59-.88l9.37-15a1.85,1.85,0,0,0,.06-1.9Z" transform="translate(0 -7.95)"/></svg>