<?xml version="1.0" encoding="utf-8"?>
<!-- Generator: Adobe Illustrator 23.0.0, SVG Export Plug-In . SVG Version: 6.00 Build 0)  -->
<svg version="1.0" id="Layer_1" xmlns="http://www.w3.org/2000/svg" xmlns:xlink="http://www.w3.org/1999/xlink" x="0px" y="0px"
	 viewBox="0 0 170 40" style="enable-background:new 0 0 170 40;" xml:space="preserve">
<style type="text/css">
	.st0{fill:#1DA1F2;}
	.st1{fill:#DB4437;}
	.st2{fill:#F4B400;}
	.st3{fill:#0F9D58;}
</style>
<path class="st0" d="M45.3,0h6.2v39.4h-6.2V0z"/>
<path class="st1" d="M56.1,0h6.2v33.8h10.2v5.6H56.1V0z"/>
<path class="st2" d="M75.5,0h8.8l3.9,28.2h0.1L92.4,0h8.8v39.4h-5.9V9.6h-0.1l-4.5,29.9h-5.2L81,9.6h-0.1v29.9h-5.4V0z"/>
<path class="st0" d="M108,37.4c-1.6-1.7-2.4-4.2-2.4-7.4V0h6.2v30.5c0,1.4,0.3,2.3,0.8,2.9c0.5,0.6,1.3,0.9,2.3,0.9s1.8-0.3,2.3-0.9
	c0.5-0.6,0.8-1.6,0.8-2.9V0h6v30.1c0,3.2-0.8,5.6-2.4,7.4c-1.6,1.7-3.9,2.6-6.9,2.6C111.8,40,109.6,39.1,108,37.4z"/>
<path class="st3" d="M128.5,0h6.2v16.6L142.6,0h6.2l-7.4,14.5l7.5,25h-6.5l-5.2-17.6l-2.5,5v12.6h-6.2V0z"/>
<path class="st1" d="M153.9,37.4c-1.6-1.7-2.4-4.2-2.4-7.4V0h6.2v30.5c0,1.4,0.3,2.3,0.8,2.9c0.5,0.6,1.3,0.9,2.3,0.9
	c1,0,1.8-0.3,2.3-0.9c0.5-0.6,0.8-1.6,0.8-2.9V0h6v30.1c0,3.2-0.8,5.6-2.4,7.4c-1.6,1.7-3.9,2.6-6.9,2.6
	C157.8,40,155.5,39.1,153.9,37.4z"/>
<g>
	<path class="st2" d="M5,24.8c1,0.9,1.7,2,2,3.3h6v-8.4c-2-0.5-3.5-2.4-3.5-4.5h2.3c0,1.3,1.1,2.3,2.3,2.3s2.3-1.1,2.3-2.3h2.3
		c0,2.2-1.5,4-3.5,4.5v8.4h6c0.2-1.3,0.9-2.5,2-3.3c3.2-2.7,5-6.6,5-10.7C28.1,1.5,12.8-4.7,4,4.3C-1.7,10.1-1.2,19.5,5,24.8z"/>
	<path class="st2" d="M14.1,40c2.6,0,4.7-2.1,4.7-4.7H9.4C9.4,37.9,11.5,40,14.1,40L14.1,40z"/>
	<path class="st2" d="M7,30.5h14.1V33H7L7,30.5z"/>
</g>
</svg>
