<?xml version="1.0" encoding="utf-8"?>
<!-- Generator: Adobe Illustrator 23.0.0, SVG Export Plug-In . SVG Version: 6.00 Build 0)  -->
<svg version="1.1" id="Layer_1" xmlns="http://www.w3.org/2000/svg" xmlns:xlink="http://www.w3.org/1999/xlink" x="0px" y="0px"
	 viewBox="0 0 1600 1372" style="enable-background:new 0 0 1600 1372;" xml:space="preserve">
<style type="text/css">
	.st0{fill:#1C00FF;}
	.st1{fill:#FF5A5F;}
	.st2{fill:#FF7600;}
	.st3{fill:#0CC468;}
</style>
<g>
	<path class="st0" d="M714.06,311H479.69c-30.16,0-54.69,24.53-54.69,54.69v140.63c0,30.16,24.53,54.69,54.69,54.69h234.38
		c30.16,0,54.69-24.53,54.69-54.69V365.69C768.75,335.53,744.22,311,714.06,311z"/>
	<path class="st1" d="M714.06,623.5H479.69c-30.16,0-54.69,24.53-54.69,54.69v328.13c0,30.16,24.53,54.69,54.69,54.69h234.38
		c30.16,0,54.69-24.53,54.69-54.69V678.19C768.75,648.03,744.22,623.5,714.06,623.5z"/>
	<path class="st2" d="M1120.31,811H885.94c-30.16,0-54.69,24.53-54.69,54.69v140.63c0,30.16,24.53,54.69,54.69,54.69h234.38
		c30.16,0,54.69-24.53,54.69-54.69V865.69C1175,835.53,1150.47,811,1120.31,811z"/>
	<path class="st3" d="M1120.31,311H885.94c-30.16,0-54.69,24.53-54.69,54.69v328.13c0,30.16,24.53,54.69,54.69,54.69h234.38
		c30.16,0,54.69-24.53,54.69-54.69V365.69C1175,335.53,1150.47,311,1120.31,311z"/>
	<path d="M714.06,561H479.69c-30.16,0-54.69-24.53-54.69-54.69V365.69c0-30.16,24.53-54.69,54.69-54.69h234.38
		c30.16,0,54.69,24.53,54.69,54.69v140.63C768.75,536.47,744.22,561,714.06,561z M479.69,357.88c-4.31,0-7.81,3.5-7.81,7.81v140.63
		c0,4.31,3.5,7.82,7.81,7.82h234.38c4.31,0,7.82-3.5,7.82-7.82V365.69c0-4.31-3.5-7.81-7.82-7.81H479.69z"/>
	<path d="M714.06,1061H479.69c-30.16,0-54.69-24.53-54.69-54.69V678.19c0-30.16,24.53-54.69,54.69-54.69h234.38
		c30.16,0,54.69,24.53,54.69,54.69v328.13C768.75,1036.47,744.22,1061,714.06,1061z M479.69,670.37c-4.31,0-7.81,3.5-7.81,7.82
		v328.13c0,4.31,3.5,7.81,7.81,7.81h234.38c4.31,0,7.82-3.5,7.82-7.81V678.19c0-4.31-3.5-7.82-7.82-7.82H479.69z"/>
	<path d="M1120.31,1061H885.94c-30.16,0-54.69-24.53-54.69-54.69V865.69c0-30.16,24.53-54.69,54.69-54.69h234.38
		c30.16,0,54.69,24.53,54.69,54.69v140.63C1175,1036.47,1150.47,1061,1120.31,1061z M885.94,857.87c-4.31,0-7.82,3.5-7.82,7.82
		v140.63c0,4.31,3.5,7.81,7.82,7.81h234.38c4.31,0,7.81-3.5,7.81-7.81V865.69c0-4.31-3.5-7.82-7.81-7.82H885.94z"/>
	<path d="M1120.31,748.5H885.94c-30.16,0-54.69-24.53-54.69-54.69V365.69c0-30.16,24.53-54.69,54.69-54.69h234.38
		c30.16,0,54.69,24.53,54.69,54.69v328.13C1175,723.97,1150.47,748.5,1120.31,748.5z M885.94,357.88c-4.31,0-7.82,3.5-7.82,7.81
		v328.13c0,4.31,3.5,7.82,7.82,7.82h234.38c4.31,0,7.81-3.5,7.81-7.82V365.69c0-4.31-3.5-7.81-7.81-7.81H885.94z"/>
</g>
</svg>
