<?xml version="1.0" encoding="utf-8"?>
<!-- Generator: Adobe Illustrator 23.0.0, SVG Export Plug-In . SVG Version: 6.00 Build 0)  -->
<svg version="1.1" id="Layer_1" xmlns="http://www.w3.org/2000/svg" xmlns:xlink="http://www.w3.org/1999/xlink" x="0px" y="0px"
	 viewBox="0 0 1600 1372" style="enable-background:new 0 0 1600 1372;" xml:space="preserve">
<style type="text/css">
	.st0{fill:#1C00FF;}
	.st1{fill:#FF5A5F;}
	.st2{fill:#FF7600;}
	.st3{fill:#0CC468;}
</style>
<g>
	<path class="st0" d="M719.79,336H501.04C472.9,336,450,358.9,450,387.04v131.25c0,28.15,22.9,51.05,51.04,51.05h218.75
		c28.15,0,51.05-22.9,51.05-51.05V387.04C770.84,358.9,747.94,336,719.79,336z"/>
	<path class="st1" d="M719.79,627.66H501.04c-28.14,0-51.04,22.9-51.04,51.05v306.25c0,28.14,22.9,51.04,51.04,51.04h218.75
		c28.15,0,51.05-22.9,51.05-51.04V678.71C770.84,650.56,747.94,627.66,719.79,627.66z"/>
	<path class="st2" d="M1098.96,802.66H880.21c-28.15,0-51.05,22.9-51.05,51.05v131.25c0,28.14,22.9,51.04,51.05,51.04h218.75
		c28.14,0,51.04-22.9,51.04-51.04V853.71C1150,825.56,1127.1,802.66,1098.96,802.66z"/>
	<path class="st3" d="M1098.96,336H880.21c-28.15,0-51.05,22.9-51.05,51.04v306.25c0,28.15,22.9,51.05,51.05,51.05h218.75
		c28.14,0,51.04-22.9,51.04-51.05V387.04C1150,358.9,1127.1,336,1098.96,336z"/>
	<path d="M719.79,569.34H501.04c-28.14,0-51.04-22.9-51.04-51.05V387.04c0-28.14,22.9-51.04,51.04-51.04h218.75
		c28.15,0,51.05,22.9,51.05,51.04v131.25C770.84,546.44,747.94,569.34,719.79,569.34z M501.04,379.75c-4.02,0-7.29,3.27-7.29,7.29
		v131.25c0,4.03,3.27,7.3,7.29,7.3h218.75c4.03,0,7.3-3.27,7.3-7.3V387.04c0-4.02-3.27-7.29-7.3-7.29H501.04z"/>
	<path d="M719.79,1036H501.04c-28.14,0-51.04-22.9-51.04-51.04V678.71c0-28.15,22.9-51.05,51.04-51.05h218.75
		c28.15,0,51.05,22.9,51.05,51.05v306.25C770.84,1013.1,747.94,1036,719.79,1036z M501.04,671.41c-4.02,0-7.29,3.27-7.29,7.3v306.25
		c0,4.02,3.27,7.29,7.29,7.29h218.75c4.03,0,7.3-3.27,7.3-7.29V678.71c0-4.03-3.27-7.3-7.3-7.3H501.04z"/>
	<path d="M1098.96,1036H880.21c-28.15,0-51.05-22.9-51.05-51.04V853.71c0-28.15,22.9-51.05,51.05-51.05h218.75
		c28.14,0,51.04,22.9,51.04,51.05v131.25C1150,1013.1,1127.1,1036,1098.96,1036z M880.21,846.41c-4.03,0-7.3,3.27-7.3,7.3v131.25
		c0,4.02,3.27,7.29,7.3,7.29h218.75c4.02,0,7.29-3.27,7.29-7.29V853.71c0-4.03-3.27-7.3-7.29-7.3H880.21z"/>
	<path d="M1098.96,744.34H880.21c-28.15,0-51.05-22.9-51.05-51.05V387.04c0-28.14,22.9-51.04,51.05-51.04h218.75
		c28.14,0,51.04,22.9,51.04,51.04v306.25C1150,721.44,1127.1,744.34,1098.96,744.34z M880.21,379.75c-4.03,0-7.3,3.27-7.3,7.29
		v306.25c0,4.03,3.27,7.3,7.3,7.3h218.75c4.02,0,7.29-3.27,7.29-7.3V387.04c0-4.02-3.27-7.29-7.29-7.29H880.21z"/>
</g>
</svg>
