<?xml version="1.0" encoding="utf-8"?>
<!-- Generator: Adobe Illustrator 23.0.0, SVG Export Plug-In . SVG Version: 6.00 Build 0)  -->
<svg version="1.1" id="Layer_1" xmlns="http://www.w3.org/2000/svg" xmlns:xlink="http://www.w3.org/1999/xlink" x="0px" y="0px"
	 viewBox="0 0 220 50" style="enable-background:new 0 0 220 50;" xml:space="preserve">
<style type="text/css">
	.st0{fill:#147BD1;}
</style>
<g>
	<path class="st0" d="M0,29.5h2c0.1,1,0.6,1.9,1.4,2.6c0.9,0.7,2,1.1,3.6,1.1c1.4,0,2.6-0.3,3.4-1c0.9-0.7,1.3-1.6,1.3-2.7
		c0-0.9-0.3-1.6-0.8-2.1c-0.6-0.5-1.4-0.9-2.6-1.2L5,25.3c-0.5-0.1-0.9-0.3-1.4-0.5c-0.4-0.2-0.8-0.4-1.2-0.7c-0.4-0.3-0.7-0.6-1-1
		c-0.3-0.4-0.5-0.8-0.6-1.3c-0.2-0.5-0.2-1-0.2-1.6c0-0.8,0.2-1.6,0.5-2.3c0.4-0.7,0.8-1.3,1.4-1.7c0.6-0.4,1.3-0.8,2-1
		C5.4,15.1,6.2,15,7,15c0.8,0,1.6,0.1,2.4,0.3c0.8,0.2,1.4,0.5,2,1c0.6,0.4,1.1,1,1.4,1.7c0.4,0.7,0.5,1.4,0.6,2.3h-2
		c-0.1-1-0.5-1.8-1.3-2.5c-0.8-0.7-1.8-1-3.2-1c-1.3,0-2.4,0.3-3.2,0.9c-0.8,0.6-1.2,1.5-1.2,2.6c0,1.6,1,2.6,2.9,3.1l3.1,0.9
		c1.7,0.4,2.9,1.1,3.8,1.8c0.8,0.8,1.3,1.9,1.3,3.3c0,1.2-0.3,2.2-0.9,3.1c-0.6,0.9-1.5,1.5-2.5,1.9c-1,0.4-2.2,0.6-3.5,0.6
		c-1,0-1.8-0.1-2.6-0.3c-0.8-0.2-1.4-0.5-1.9-0.9C1.7,33.4,1.3,33,1,32.5s-0.6-1-0.7-1.5C0.1,30.5,0,30,0,29.5z"/>
	<path class="st0" d="M23.4,34.6h-1.9V17.2h-6v-1.8h13.9v1.8h-6V34.6z"/>
	<path class="st0" d="M31,34.6h-2.1l6.9-19.1h1.9l6.9,19.1h-2l-2.1-6H33L31,34.6z M36.8,17.9L36.8,17.9l-3.2,9.1h6.3L36.8,17.9z"/>
	<path class="st0" d="M52.1,34.6h-1.9v-8.4l-6.5-10.7h2.3l5.1,8.8h0.1l5.1-8.8h2.2l-6.5,10.7V34.6z"/>
	<path d="M63,34.6h-1.8V15.4h1.9l6.7,15.5h0.1l6.6-15.5h1.9v19.1h-1.8V19.9h-0.1l-5.8,13.3h-1.8L63,19.9H63V34.6z"/>
	<path d="M83.4,34.6h-2.1l6.9-19.1h1.9L97,34.6h-2l-2.1-6h-7.4L83.4,34.6z M89.2,17.9L89.2,17.9L86,26.9h6.3L89.2,17.9z"/>
	<path d="M113.2,21h-1.9c-0.1-1.3-0.7-2.3-1.5-3.1c-0.9-0.8-2-1.2-3.4-1.2c-1.7,0-3.1,0.6-4,1.7c-1,1.2-1.4,2.8-1.4,4.8v3
		c0,2.2,0.5,3.9,1.4,5.1c1,1.2,2.3,1.8,4.1,1.8c1.5,0,2.7-0.4,3.6-1.2c0.9-0.8,1.4-1.9,1.4-3.2v-2.1h-5.3v-1.8h7.2v3.9
		c0,1.8-0.7,3.3-2,4.5s-3,1.8-5,1.8c-2.4,0-4.3-0.8-5.6-2.3c-1.3-1.5-1.9-3.6-1.9-6.4v-3c0-2.6,0.7-4.6,2-6.1
		c1.3-1.5,3.1-2.2,5.5-2.2c2,0,3.6,0.6,4.9,1.7C112.4,17.8,113.1,19.3,113.2,21z"/>
	<path d="M116.2,34.6v-1.4L127,17.3v-0.1h-10.4v-1.8h12.8v1.4l-10.7,15.9v0.1h10.9v1.8H116.2z"/>
</g>
</svg>
