<?xml version="1.0" encoding="utf-8"?>
<!-- Generator: Adobe Illustrator 23.0.0, SVG Export Plug-In . SVG Version: 6.00 Build 0)  -->
<svg version="1.1" id="Layer_1" xmlns="http://www.w3.org/2000/svg" xmlns:xlink="http://www.w3.org/1999/xlink" x="0px" y="0px"
	 viewBox="0 0 220 50" style="enable-background:new 0 0 220 50;" xml:space="preserve">
<style type="text/css">
	.st0{fill:#147BD1;}
</style>
<g>
	<path class="st0" d="M2.4,28.3c0.1,1.1,0.3,1.9,0.8,2.6c0.9,1.3,2.4,1.9,4.5,1.9c1,0,1.8-0.1,2.6-0.4c1.5-0.5,2.3-1.5,2.3-2.9
		c0-1-0.3-1.8-1-2.2c-0.7-0.4-1.7-0.8-3.1-1.1L6,25.6c-1.7-0.4-2.9-0.8-3.6-1.3c-1.2-0.8-1.8-2-1.8-3.5c0-1.7,0.6-3.1,1.8-4.2
		c1.2-1.1,2.8-1.6,5-1.6c2,0,3.7,0.5,5.1,1.4c1.4,1,2.1,2.5,2.1,4.6h-2.4c-0.1-1-0.4-1.8-0.8-2.3c-0.8-1-2.1-1.5-4-1.5
		c-1.5,0-2.6,0.3-3.3,1c-0.7,0.6-1,1.4-1,2.2c0,0.9,0.4,1.6,1.2,2c0.5,0.3,1.7,0.6,3.4,1l2.7,0.6c1.3,0.3,2.3,0.7,3,1.2
		c1.2,0.9,1.8,2.2,1.8,3.9c0,2.1-0.8,3.6-2.3,4.5S9.5,35,7.5,35c-2.4,0-4.2-0.6-5.5-1.8c-1.3-1.2-2-2.8-2-4.9H2.4z"/>
	<path class="st0" d="M32.2,15.5v2.3h-6.4v16.7h-2.6V17.7h-6.4v-2.3H32.2z"/>
	<path class="st0" d="M38.1,15.5H41l6.9,19H45l-1.9-5.7h-7.5l-2.1,5.7h-2.6L38.1,15.5z M42.3,26.7l-2.9-8.4l-3.1,8.4H42.3z"/>
	<path class="st0" d="M46.8,15.5h3l5.4,9.1l5.4-9.1h3l-7.2,11.3v7.6h-2.6v-7.6L46.8,15.5z"/>
	<path d="M65.8,15.5h3.7l5.4,16l5.4-16H84v19h-2.4V23.3c0-0.4,0-1,0-1.9c0-0.9,0-1.9,0-2.9l-5.4,16h-2.5l-5.4-16V19
		c0,0.5,0,1.2,0,2.1c0,1,0,1.6,0,2.1v11.2h-2.5V15.5z"/>
	<path d="M93.4,15.5h2.9l6.9,19h-2.8l-1.9-5.7h-7.5l-2.1,5.7h-2.6L93.4,15.5z M97.6,26.7l-2.9-8.4l-3.1,8.4H97.6z"/>
	<path d="M118.3,16c1.9,1,3,2.7,3.5,5.2h-2.5c-0.3-1.4-1-2.4-1.9-3c-1-0.6-2.2-0.9-3.7-0.9c-1.8,0-3.2,0.7-4.4,2
		c-1.2,1.3-1.8,3.3-1.8,5.9c0,2.3,0.5,4.1,1.5,5.5c1,1.4,2.6,2.1,4.8,2.1c1.7,0,3.1-0.5,4.3-1.5c1.1-1,1.7-2.6,1.7-4.8h-5.9v-2.1
		h8.3v10.1h-1.7l-0.6-2.4c-0.9,1-1.6,1.6-2.3,2c-1.1,0.6-2.6,1-4.3,1c-2.2,0-4.2-0.7-5.8-2.2c-1.8-1.8-2.6-4.3-2.6-7.5
		c0-3.2,0.9-5.7,2.6-7.6c1.6-1.8,3.8-2.7,6.3-2.7C115.5,15,117,15.3,118.3,16z"/>
	<path d="M124.6,32.3l11.6-14.6h-10.8v-2.3h14.1v2.2l-11.7,14.5h11.7v2.3h-14.9V32.3z"/>
</g>
</svg>
