<?xml version="1.0" encoding="utf-8"?>
<!-- Generator: Adobe Illustrator 23.0.0, SVG Export Plug-In . SVG Version: 6.00 Build 0)  -->
<svg version="1.1" id="Layer_1" xmlns="http://www.w3.org/2000/svg" xmlns:xlink="http://www.w3.org/1999/xlink" x="0px" y="0px"
	 viewBox="0 0 220 50" style="enable-background:new 0 0 220 50;" xml:space="preserve">
<style type="text/css">
	.st0{fill:#147BD1;}
</style>
<g>
	<path class="st0" d="M13.5,30.4c0-1.2-0.4-2.1-1.3-2.8c-0.8-0.7-2.4-1.3-4.6-2c-2.2-0.6-3.8-1.3-4.9-2c-1.5-1-2.2-2.4-2.2-4.1
		c0-1.6,0.7-3,2-4C4,14.5,5.8,14,7.9,14c1.4,0,2.7,0.3,3.8,0.8c1.1,0.5,2,1.3,2.6,2.3c0.6,1,0.9,2.1,0.9,3.3h-1.8
		c0-1.5-0.5-2.6-1.5-3.5c-1-0.9-2.3-1.3-4-1.3c-1.6,0-2.9,0.4-3.9,1.1c-1,0.7-1.5,1.7-1.5,2.9c0,1.1,0.4,2,1.3,2.7
		C4.7,22.8,6.1,23.5,8,24c1.9,0.5,3.4,1.1,4.4,1.6c1,0.6,1.7,1.2,2.2,2c0.5,0.8,0.8,1.7,0.8,2.8c0,1.7-0.7,3-2,4.1
		C12,35.5,10.2,36,8,36c-1.5,0-2.9-0.3-4.2-0.8c-1.3-0.5-2.2-1.3-2.9-2.3c-0.7-1-1-2.1-1-3.3h1.8c0,1.5,0.6,2.7,1.7,3.6
		C4.6,34,6.1,34.5,8,34.5c1.7,0,3-0.4,4-1.1C13,32.6,13.5,31.7,13.5,30.4z"/>
	<path class="st0" d="M33.8,15.8h-7.3v19.9h-1.8V15.8h-7.3v-1.5h16.5V15.8z"/>
	<path class="st0" d="M47.6,29.7h-9.7l-2.2,6h-1.9l8.1-21.4h1.7l8.1,21.4h-1.9L47.6,29.7z M38.5,28.2h8.6l-4.3-11.7L38.5,28.2z"/>
	<path class="st0" d="M59.8,26l6.5-11.7h2.1l-7.7,13.4v8.1h-1.8v-8.1l-7.7-13.4h2.1L59.8,26z"/>
	<path d="M73.9,14.3l7.9,18.9l7.9-18.9h2.4v21.4h-1.8v-9.3l0.1-9.6l-8,18.9h-1.4l-7.9-18.8l0.1,9.4v9.4h-1.8V14.3H73.9z"/>
	<path d="M109.4,29.7h-9.7l-2.2,6h-1.9l8.1-21.4h1.7l8.1,21.4h-1.9L109.4,29.7z M100.3,28.2h8.6l-4.3-11.7L100.3,28.2z"/>
	<path d="M132,33.2c-0.6,0.9-1.6,1.6-2.9,2.1c-1.3,0.5-2.8,0.8-4.5,0.8c-1.7,0-3.2-0.4-4.5-1.2c-1.3-0.8-2.3-1.9-3-3.4
		c-0.7-1.5-1.1-3.2-1.1-5.1v-2.7c0-3,0.8-5.3,2.3-7c1.5-1.7,3.5-2.6,6-2.6c2.2,0,4,0.6,5.3,1.7c1.3,1.1,2.1,2.7,2.4,4.6h-1.8
		c-0.3-1.6-0.9-2.8-1.9-3.6c-1-0.8-2.3-1.2-4-1.2c-2,0-3.6,0.7-4.8,2.1c-1.2,1.4-1.7,3.4-1.7,6v2.5c0,1.6,0.3,3.1,0.8,4.3
		c0.6,1.3,1.3,2.2,2.4,2.9c1,0.7,2.2,1,3.6,1c1.6,0,2.9-0.2,4-0.7c0.7-0.3,1.3-0.7,1.6-1.1v-5.5h-5.7v-1.5h7.6V33.2z"/>
	<path d="M137.9,34.2h13.2v1.5h-15.4v-1.4l12.7-18.5h-12.3v-1.5h14.6v1.3L137.9,34.2z"/>
</g>
</svg>
