<?xml version="1.0" encoding="utf-8"?>
<!-- Generator: Adobe Illustrator 23.0.0, SVG Export Plug-In . SVG Version: 6.00 Build 0)  -->
<svg version="1.1" id="Layer_1" xmlns="http://www.w3.org/2000/svg" xmlns:xlink="http://www.w3.org/1999/xlink" x="0px" y="0px"
	 viewBox="0 0 600 60" style="enable-background:new 0 0 600 60;" xml:space="preserve">
<style type="text/css">
	.st0{fill:#F97878;}
	.st1{fill:#FF5A5F;}
</style>
<g>
	<g id="XMLID_1_">
		<polyline id="XMLID_18_" class="st0" points="35.1,54 70.2,32.1 70.2,19.2 35.1,40.8 		"/>
		<polyline id="XMLID_21_" class="st1" points="35.1,54 0,32.1 11.1,26.1 35.1,40.8 		"/>
		<polyline id="XMLID_6_" class="st1" points="0,32.1 23.4,19.2 23.4,19.2 35.1,27.9 44.1,21.3 23.4,6 0,19.2 		"/>
		<polyline id="XMLID_9_" class="st0" points="59.4,26.1 46.8,19.2 43.8,21.3 35.1,14.7 46.8,6 70.2,19.2 		"/>
	</g>
	<g>
		<path d="M107.7,51.6h-3.9V8.4h4.2l15,34.8l0,0l15-34.8h4.2v42.9h-3.9v-33H138L124.8,48h-3.9L108,18.3l0,0L107.7,51.6L107.7,51.6z"
			/>
		<path d="M153.6,51.6h-4.5l15.6-42.9h4.5l15.3,42.9H180l-4.8-13.5h-16.8L153.6,51.6z M166.8,14.1L166.8,14.1l-7.2,20.4h14.1
			L166.8,14.1z"/>
		<path d="M222.6,51.6h-4.5V31.2h-22.8v20.4h-4.5V8.4h4.5V27h22.8V8.4h4.5V51.6z"/>
		<path d="M234,51.6h-4.5l15.6-42.9h3.9l15.3,42.9h-4.5L255,38.1h-16.8L234,51.6z M246.9,14.1L246.9,14.1l-7.2,20.4h14.1L246.9,14.1
			z"/>
		<path d="M297.3,51.6h-4.5v-39h-13.5V8.7h31.2v3.9H297L297.3,51.6L297.3,51.6z"/>
		<path d="M342.3,47.4v3.9h-25.2V8.4h25.2v3.9h-21v15h19.8v3.9h-19.8v15.9h21V47.4z"/>
		<path d="M355.8,51.6h-3.9V8.4h4.2l15,34.8l0,0l15-34.8h4.2v42.9h-3.9v-33h-0.3L372.9,48H369l-13.2-29.7l0,0V51.6z"/>
		<path d="M401.4,8.4h15c4.2,0,7.5,1.2,9.9,3.6c2.4,2.4,3.6,5.7,3.6,9.6c0,3.9-1.2,7.2-3.6,9.6c-2.4,2.4-5.7,3.6-9.9,3.6h-10.5v16.8
			h-4.5V8.4z M405.9,12.6v18h7.5c3.9,0,6.9-0.6,9-2.1c2.1-1.2,3-3.6,3-7.2c0-3-0.9-5.1-2.4-6.6s-3.9-2.4-6.9-2.4h-10.2V12.6z"/>
		<path d="M462.3,47.4v3.9h-24.9V8.4h4.5v39H462.3z"/>
		<path d="M470.7,51.6h-4.5l15.6-42.9h4.5l15.3,42.9h-4.5l-4.8-13.5h-16.8L470.7,51.6z M483.9,14.1L483.9,14.1l-7.2,20.4h14.1
			L483.9,14.1z"/>
		<path d="M518.1,51.6h-4.5v-39h-13.5V8.7h31.2v3.9h-13.5v39H518.1z"/>
		<path d="M563.1,47.4v3.9h-25.2V8.4h25.2v3.9h-21v15h19.8v3.9h-19.8v15.9h21V47.4z"/>
		<path d="M569.1,40.2h4.5c0.3,2.4,1.2,4.2,3.3,6c1.8,1.5,4.5,2.4,8.1,2.4c3.3,0,5.7-0.6,7.8-2.1c1.8-1.5,3-3.6,3-6
			c0-2.1-0.6-3.6-1.8-4.8c-1.2-1.2-3.3-2.1-6-2.7l-7.2-1.8c-1.2-0.3-2.1-0.6-3-1.2c-0.9-0.3-1.8-0.9-2.7-1.5
			c-0.9-0.6-1.5-1.5-2.1-2.1c-0.6-0.6-1.2-1.8-1.5-2.7c-0.3-1.2-0.6-2.4-0.6-3.6c0-1.8,0.3-3.6,1.2-5.1c0.9-1.5,1.8-2.7,3.3-3.9
			s3-1.8,4.5-2.4c1.8-0.6,3.6-0.9,5.4-0.9c1.8,0,3.6,0.3,5.4,0.9c1.8,0.6,3.3,1.2,4.5,2.1c1.2,0.9,2.4,2.1,3.3,3.6
			c0.9,1.5,1.2,3.3,1.2,5.1h-4.5c-0.3-2.4-1.2-4.2-3-5.7c-1.8-1.5-4.2-2.1-7.2-2.1s-5.4,0.6-7.2,2.1c-1.8,1.5-2.7,3.3-2.7,5.7
			c0,3.6,2.1,6,6.6,7.2l6.9,1.8c3.6,0.9,6.6,2.4,8.4,4.2c1.8,1.8,3,4.2,3,7.5c0,2.7-0.6,5.1-2.1,6.9s-3.3,3.3-5.7,4.2
			c-2.4,0.9-5.1,1.5-7.8,1.5c-2.1,0-4.2-0.3-5.7-0.9s-3.3-1.2-4.2-2.1c-1.2-0.9-2.1-1.8-2.7-3c-0.9-1.2-1.2-2.1-1.8-3.3
			C569.4,42.3,569.1,41.4,569.1,40.2z"/>
	</g>
</g>
</svg>
