<svg xmlns="http://www.w3.org/2000/svg" xmlns:xlink="http://www.w3.org/1999/xlink" viewBox="0 0 1200 628"><defs><style>.cls-1,.cls-10,.cls-5,.cls-7,.cls-8,.cls-9{fill:none;}.cls-2{fill:#f7fafb;}.cls-3{isolation:isolate;}.cls-4{fill:#f03b2e;}.cls-5{stroke:#fff;stroke-width:4px;}.cls-10,.cls-5,.cls-7,.cls-8,.cls-9{stroke-miterlimit:10;}.cls-6{opacity:0.8;}.cls-7,.cls-8,.cls-9{stroke:#ff4e3c;}.cls-7{stroke-width:2px;}.cls-9{stroke-width:3px;}.cls-10{stroke:#f03b2e;}.cls-11{fill:#ff4e3c;}.cls-12{fill:#b20001;}.cls-13{mix-blend-mode:overlay;fill:url(#Motivo_nuevo);}.cls-14{fill:#fff;}.cls-15{fill:#cd0a15;}.cls-16{fill:#eee;}</style><pattern id="Motivo_nuevo" data-name="Motivo nuevo" width="12.73" height="12.73" patternTransform="translate(9.06 -9.62)" patternUnits="userSpaceOnUse" viewBox="0 0 12.73 12.73"><rect class="cls-1" width="12.73" height="12.73"/><polygon class="cls-2" points="12.44 26.46 11.73 25.75 25.75 11.73 26.46 12.44 12.44 26.46"/><polygon class="cls-2" points="-0.29 26.46 -1 25.75 13.02 11.73 13.73 12.44 -0.29 26.46"/><polygon class="cls-2" points="-13.02 26.46 -13.73 25.75 0.29 11.73 1 12.44 -13.02 26.46"/><polygon class="cls-2" points="12.44 13.73 11.73 13.02 25.75 -1 26.46 -0.29 12.44 13.73"/><polygon class="cls-2" points="-0.29 13.73 -1 13.02 13.02 -1 13.73 -0.29 -0.29 13.73"/><polygon class="cls-2" points="-13.02 13.73 -13.73 13.02 0.29 -1 1 -0.29 -13.02 13.73"/><polygon class="cls-2" points="12.44 1 11.73 0.29 25.75 -13.73 26.46 -13.02 12.44 1"/><polygon class="cls-2" points="-0.29 1 -1 0.29 13.02 -13.73 13.73 -13.02 -0.29 1"/><polygon class="cls-2" points="-13.02 1 -13.73 0.29 0.29 -13.73 1 -13.02 -13.02 1"/></pattern></defs><title>MerdekaSale2020</title><g class="cls-3"><g id="Layer_1" data-name="Layer 1"><rect class="cls-4" width="1200" height="628"/><rect class="cls-5" x="50" y="50" width="1100" height="528"/><g class="cls-6"><circle class="cls-7" cx="661.64" cy="164.84" r="37.57"/><circle class="cls-7" cx="351.05" cy="255.17" r="47.78" transform="translate(22.06 538.2) rotate(-76.72)"/><circle class="cls-7" cx="742.88" cy="495.65" r="23.31"/><circle class="cls-7" cx="986.75" cy="118.83" r="13.34" transform="matrix(0.84, -0.55, 0.55, 0.84, 95.54, 558.76)"/><circle class="cls-8" cx="242.96" cy="547.12" r="9.25" transform="translate(-190.88 134.62) rotate(-22.5)"/><circle class="cls-8" cx="832.84" cy="73.25" r="9.25"/><path class="cls-9" d="M423.22,494.77a15.16,15.16,0,1,1-5.06-20.84A15.16,15.16,0,0,1,423.22,494.77Z"/><circle class="cls-10" cx="479.65" cy="93.81" r="11.31"/><circle class="cls-11" cx="219.44" cy="132.17" r="9.25"/><circle class="cls-11" cx="939.48" cy="319.97" r="9.25" transform="translate(412.86 1161.2) rotate(-76.76)"/><circle class="cls-12" cx="767.65" cy="188.05" r="11.31" transform="translate(462.37 917.06) rotate(-81.04)"/><circle class="cls-12" cx="939.48" cy="552.69" r="11.31"/><circle class="cls-4" cx="795.61" cy="480.13" r="11.31"/><circle class="cls-4" cx="377.38" cy="176.15" r="11.31" transform="translate(143.05 520.44) rotate(-80.78)"/><circle class="cls-12" cx="332.67" cy="438.49" r="26.56" transform="translate(-216.57 402.78) rotate(-49.09)"/><circle class="cls-12" cx="210.18" cy="353.41" r="10.28" transform="translate(-77.39 59.51) rotate(-13.64)"/></g><path class="cls-13" d="M1200,0V106a3.25,3.25,0,0,0-.7-.42c-3-1.33-6.86-.13-10,.08-1.63.11-2.93-.44-4.6-.28-1.51.15-3,.28-4.55.42a17.76,17.76,0,0,0-4.84,1c-1.67.62-2.93-.41-4.54.23-6.25,2.49-11.46-6.34-12.77-11.52-.39-1.61,0-2.4-1.31-3.57a5.69,5.69,0,0,0-1.6-.94c-.39-.17-.66-.06-1.06-.3-.68-.4-.74-1.13-1.25-1.59a6.58,6.58,0,0,0-8.69-.14,22.87,22.87,0,0,0-3.68,3.68,19.07,19.07,0,0,1-3.62,3c-1.18.86-2.08,1.77-3.41,2.09-2.49.63-2.59,2.42-3.57,4.8a12,12,0,0,1-6,6.5c-1.9.86-3.39,3-4.92,4.43-1.16,1-2.42,2.07-3.48,3.2-.82.87-1.11,1.76-2.24,2.09-1.56.47-3.32,0-4.87.57a12.47,12.47,0,0,1-4.19.92c-1.48,0-2.37-.5-3.94-.34a17,17,0,0,0-4.5,1,13,13,0,0,1-4.48,1.17,31.58,31.58,0,0,0-4.28-.31c-1.78.15-2.68,1.14-4.17,1.68a17.86,17.86,0,0,1-4.16.44,12.88,12.88,0,0,1-2.29.23c-.66-.09-1-.51-1.64-.61s-1.39,0-2-.12a5.45,5.45,0,0,0-2-.17,5.22,5.22,0,0,1-3.89-1.18c-.83-.55-1.41-1.52-2.24-2a5.71,5.71,0,0,0-4-.66c-2.72.27-6.19,0-8.79.78-2.33.74-4.59,2-6.93,2.73-2.69.85-6.3.52-9.12.79s-4.82-.62-6.92-2.77c-1-1-1.77-2.36-2.91-3.36a18.81,18.81,0,0,0-2.74-1.81c-2.6-1.62-5.63-2.36-7.91-4.56a11.19,11.19,0,0,1-2.81-4.91c-.46-1.8-.26-3.66-.83-5.4s-.45-2.93-2-4.28-3.33-3.65-5-4.63c-3.42-2-7.69-1.54-11.28-2.78a9.14,9.14,0,0,1-3.61-2.42c-1.23-1.21-2.79-1.82-4.19-2.87a39.62,39.62,0,0,0-3.45-2.43c-1.91-1.15-2.31-2.22-3.45-4-.92-1.43-2-2.75-3-4.19a9.33,9.33,0,0,0-4.25-3.93,11.74,11.74,0,0,0-4.93-.37,22.05,22.05,0,0,0-2.57.19,12,12,0,0,0-3.19,1.7c-1.37.79-2.72,1.59-4,2.39-1.51,1-2.69,2.64-4,4.07-2.62,2.91-.85,7.05-2.69,10.24-.87,1.53-2.49,2.5-3.49,3.89-1.09,1.56-1.48,3.14-2.93,4.41-1.17,1-2.57,1.79-3.42,3.21-1,1.62-1.4,3.94-2.53,5.4-1.45,1.85-4.69,3.84-6.89,4-2.9.23-6,1-8.82.2-1.26-.36-3-.91-4.32-.41s-2.42,2.55-3.17,3.83a48.86,48.86,0,0,0-2.66,4.45,15,15,0,0,1-.84,2,8.76,8.76,0,0,1-2.15,1.37,49.9,49.9,0,0,1-4.39,2.45c-1.07.54-2.6,1.93-2.76-.2-1.09.11-1.48,3.32-1.61,4.29-.44,3.13-.71,6.73-1.85,9.7-1.33,3.46-5.2,5.22-8.07,7.17-1.24.84-2.32,2.32-3.67,2.76-.71.23-1.59-.07-2.31.15a18.86,18.86,0,0,1-2.53,1c-1.85.28-3.3-.4-5.11-.26a10.37,10.37,0,0,1-5.46-1,23.42,23.42,0,0,1-4.09-2.35,13.1,13.1,0,0,0-5.09-1.8c-3.35-.61-6.46-1.08-8.37-4.37-.61-1.05-.86-3.24-1.92-3.8-1.32-.7-3.43,0-4.76-.44s-1.92-2.48-3.08-3.3a12.76,12.76,0,0,0-3.92-1.58,17.16,17.16,0,0,1-9.16-5.93,45.47,45.47,0,0,1-3.2-5.23c-.68-1.11-1.77-2.06-2.55-3.17-.91-1.28-1.85-3.24-3.24-4a7.53,7.53,0,0,0-2-.45c-1.63-.4-1.32-.21-2.91.36a29.3,29.3,0,0,0-4.14,1.44c-1.47.8-2.7,2.07-4.35,2.66-3.35,1.2-6.67.27-9.63-1.38-1.16-.66-2.62-1.54-4-1.4a9.69,9.69,0,0,0-2.35,1c-1,.36-2.55.63-3.29,1.35-.57.57-.91,1.36-1.53,2a7.22,7.22,0,0,0-1.44,2.4c-.87,1.71-.76,2.64-.6,4.62s.33,4,.49,6c.13,1.54.7,3.72.13,5.15-.36.94-.87,1.11-1.51,1.77-1.07,1.12-1,1.76-1.06,3.18-.1,1.72-.15,4-1.52,5.19-1.12.94-2.59,1.35-3.74,2.17-.59.42-1.1,1-1.72,1.38a9.16,9.16,0,0,1-2,.83c-1.66.6-2.21,1.13-3.47-.5-.91-1.17-1.5-2.41-2.42-3.56-1.79-2.21-4.8-2.65-7.33-3.62-1.19-.46-2.08-1.1-3.24-1.59s-2.43-1.57-3.58-1.94-3.13.12-4.42.26a9.75,9.75,0,0,1-2.3-.13c-.85-.11-1.76,0-2.63-.16-1.53-.24-3.2-1.23-4.71-1.66s-3.06-.21-4.47-.71a38.66,38.66,0,0,1-7.52-4.1c-2.47-1.56-6.12-3-8.92-2.81-1.22.05-3.24,0-4.22.7s-1.47,2.74-3.05,2.77a13.92,13.92,0,0,1-2-.75c-.67-.2-1.32-.33-2-.5a6.36,6.36,0,0,0-5.2.64c-1.14.66-2.75,1.36-3.57,2.53s-.92,2.71-1.75,3.78c-2.17,2.85-5.93,3.19-9,2.66-1.71-.29-2.24.25-3.52-1.17s-1.91-2.92-3.42-4a6.22,6.22,0,0,0-4.73-1.47,14.62,14.62,0,0,1-5.65-.86c-1.8-.54-3.58-1.44-5.38-1.94-1.27-.35-3.66-1-5-.58-3.09.9-5.73,3.09-8.87,3.58-1.55.24-2.54-.21-3.94-.34a24.47,24.47,0,0,0-4.94-.24c-1.52.14-3.2.59-4.62-.25a10.83,10.83,0,0,1-3-3.19c-1.61-2.34-2.64-5-5.25-6.53-1.53-.88-3.27-1.34-4.8-2.29a10.86,10.86,0,0,1-3.73-4.64,6.07,6.07,0,0,0-3.11-3.08,9.11,9.11,0,0,0-2.36-.74,4.45,4.45,0,0,0-2.52.78c-1.65.75-3.36,1.67-5,2.33-2.19.87-4.13.89-5.69,2.74-1.08,1.27-2,2.7-3.12,3.94V0Z"/><path class="cls-13" d="M0,0V106a3.25,3.25,0,0,1,.7-.42c3-1.33,6.86-.13,10,.08,1.63.11,2.93-.44,4.6-.28,1.51.15,3,.28,4.55.42a17.76,17.76,0,0,1,4.84,1c1.67.62,2.93-.41,4.54.23,6.25,2.49,11.46-6.34,12.77-11.52.39-1.61,0-2.4,1.31-3.57a5.69,5.69,0,0,1,1.6-.94c.39-.17.66-.06,1.06-.3.68-.4.74-1.13,1.25-1.59a6.58,6.58,0,0,1,8.69-.14,22.87,22.87,0,0,1,3.68,3.68,19.07,19.07,0,0,0,3.62,3c1.18.86,2.08,1.77,3.41,2.09,2.49.63,2.59,2.42,3.57,4.8a12,12,0,0,0,6,6.5c1.9.86,3.39,3,4.92,4.43,1.16,1,2.42,2.07,3.48,3.2.82.87,1.11,1.76,2.24,2.09,1.56.47,3.32,0,4.87.57a12.47,12.47,0,0,0,4.19.92c1.48,0,2.37-.5,3.94-.34a17,17,0,0,1,4.5,1,13,13,0,0,0,4.48,1.17,31.58,31.58,0,0,1,4.28-.31c1.78.15,2.68,1.14,4.17,1.68a17.86,17.86,0,0,0,4.16.44,12.88,12.88,0,0,0,2.29.23c.66-.09,1-.51,1.64-.61s1.39,0,2-.12a5.45,5.45,0,0,1,2-.17,5.22,5.22,0,0,0,3.89-1.18c.83-.55,1.41-1.52,2.24-2a5.71,5.71,0,0,1,4-.66c2.72.27,6.19,0,8.79.78,2.33.74,4.59,2,6.93,2.73,2.69.85,6.3.52,9.12.79s4.82-.62,6.92-2.77c1.05-1,1.77-2.36,2.91-3.36a18.81,18.81,0,0,1,2.74-1.81c2.6-1.62,5.63-2.36,7.91-4.56a11.19,11.19,0,0,0,2.81-4.91c.46-1.8.26-3.66.83-5.4s.45-2.93,2-4.28,3.33-3.65,5-4.63c3.42-2,7.69-1.54,11.28-2.78a9.14,9.14,0,0,0,3.61-2.42c1.23-1.21,2.79-1.82,4.19-2.87a39.62,39.62,0,0,1,3.45-2.43c1.91-1.15,2.31-2.22,3.45-4,.92-1.43,2-2.75,3-4.19a9.33,9.33,0,0,1,4.25-3.93,11.74,11.74,0,0,1,4.93-.37,22.05,22.05,0,0,1,2.57.19,12,12,0,0,1,3.19,1.7c1.37.79,2.72,1.59,4,2.39,1.51,1,2.69,2.64,4,4.07,2.62,2.91.85,7.05,2.69,10.24.87,1.53,2.49,2.5,3.49,3.89,1.09,1.56,1.48,3.14,2.93,4.41,1.17,1,2.57,1.79,3.42,3.21,1,1.62,1.4,3.94,2.53,5.4,1.45,1.85,4.69,3.84,6.89,4,2.9.23,6,1,8.82.2,1.26-.36,3-.91,4.32-.41s2.42,2.55,3.17,3.83a48.86,48.86,0,0,1,2.66,4.45,15,15,0,0,0,.84,2,8.76,8.76,0,0,0,2.15,1.37,49.9,49.9,0,0,0,4.39,2.45c1.07.54,2.6,1.93,2.76-.2,1.09.11,1.48,3.32,1.61,4.29.44,3.13.71,6.73,1.85,9.7,1.33,3.46,5.2,5.22,8.07,7.17,1.24.84,2.32,2.32,3.67,2.76.71.23,1.59-.07,2.31.15a18.86,18.86,0,0,0,2.53,1c1.85.28,3.3-.4,5.11-.26a10.37,10.37,0,0,0,5.46-1,23.42,23.42,0,0,0,4.09-2.35,13.1,13.1,0,0,1,5.09-1.8c3.35-.61,6.46-1.08,8.37-4.37.61-1.05.86-3.24,1.92-3.8,1.32-.7,3.43,0,4.76-.44s1.92-2.48,3.08-3.3a12.76,12.76,0,0,1,3.92-1.58,17.16,17.16,0,0,0,9.16-5.93,45.47,45.47,0,0,0,3.2-5.23c.68-1.11,1.77-2.06,2.55-3.17.91-1.28,1.85-3.24,3.24-4a7.53,7.53,0,0,1,2-.45c1.63-.4,1.32-.21,2.91.36a29.3,29.3,0,0,1,4.14,1.44c1.47.8,2.7,2.07,4.35,2.66,3.35,1.2,6.67.27,9.63-1.38,1.16-.66,2.62-1.54,4-1.4a9.69,9.69,0,0,1,2.35,1c1,.36,2.55.63,3.29,1.35.57.57.91,1.36,1.53,2a7.22,7.22,0,0,1,1.44,2.4c.87,1.71.76,2.64.6,4.62s-.33,4-.49,6c-.13,1.54-.7,3.72-.13,5.15.36.94.87,1.11,1.51,1.77,1.07,1.12,1,1.76,1.06,3.18.1,1.72.15,4,1.52,5.19,1.12.94,2.59,1.35,3.74,2.17.59.42,1.1,1,1.72,1.38a9.16,9.16,0,0,0,2,.83c1.66.6,2.21,1.13,3.47-.5.91-1.17,1.5-2.41,2.42-3.56,1.79-2.21,4.8-2.65,7.33-3.62,1.19-.46,2.08-1.1,3.24-1.59s2.43-1.57,3.58-1.94,3.13.12,4.42.26a9.75,9.75,0,0,0,2.3-.13c.85-.11,1.76,0,2.63-.16,1.53-.24,3.2-1.23,4.71-1.66s3.06-.21,4.47-.71a38.66,38.66,0,0,0,7.52-4.1c2.47-1.56,6.12-3,8.92-2.81,1.22.05,3.24,0,4.22.7s1.47,2.74,3.05,2.77a13.92,13.92,0,0,0,2-.75c.67-.2,1.32-.33,2-.5a6.36,6.36,0,0,1,5.2.64c1.14.66,2.75,1.36,3.57,2.53s.92,2.71,1.75,3.78c2.17,2.85,5.93,3.19,9,2.66,1.71-.29,2.24.25,3.52-1.17s1.91-2.92,3.42-4a6.22,6.22,0,0,1,4.73-1.47,14.62,14.62,0,0,0,5.65-.86c1.8-.54,3.58-1.44,5.38-1.94,1.27-.35,3.66-1,5-.58,3.09.9,5.73,3.09,8.87,3.58,1.55.24,2.54-.21,3.94-.34a24.47,24.47,0,0,1,4.94-.24c1.52.14,3.2.59,4.62-.25a10.83,10.83,0,0,0,3-3.19c1.61-2.34,2.64-5,5.25-6.53,1.53-.88,3.27-1.34,4.8-2.29a10.86,10.86,0,0,0,3.73-4.64,6.07,6.07,0,0,1,3.11-3.08,9.11,9.11,0,0,1,2.36-.74,4.45,4.45,0,0,1,2.52.78c1.65.75,3.36,1.67,5,2.33,2.19.87,4.13.89,5.69,2.74,1.08,1.27,2,2.7,3.12,3.94V0Z"/><path class="cls-13" d="M1200,628V522a3.25,3.25,0,0,1-.7.42c-3,1.33-6.86.13-10-.08-1.63-.11-2.93.44-4.6.28-1.51-.15-3-.28-4.55-.42a17.76,17.76,0,0,1-4.84-1c-1.67-.62-2.93.41-4.54-.23-6.25-2.49-11.46,6.34-12.77,11.52-.39,1.61,0,2.4-1.31,3.57a5.69,5.69,0,0,1-1.6.94c-.39.17-.66.06-1.06.3-.68.4-.74,1.13-1.25,1.59a6.58,6.58,0,0,1-8.69.14,22.87,22.87,0,0,1-3.68-3.68,19.07,19.07,0,0,0-3.62-3c-1.18-.86-2.08-1.77-3.41-2.09-2.49-.63-2.59-2.42-3.57-4.8a12,12,0,0,0-6-6.5c-1.9-.86-3.39-3-4.92-4.43-1.16-1-2.42-2.07-3.48-3.2-.82-.87-1.11-1.76-2.24-2.09-1.56-.47-3.32,0-4.87-.57a12.47,12.47,0,0,0-4.19-.92c-1.48,0-2.37.5-3.94.34a17,17,0,0,1-4.5-1,13,13,0,0,0-4.48-1.17,31.58,31.58,0,0,1-4.28.31c-1.78-.15-2.68-1.14-4.17-1.68a17.86,17.86,0,0,0-4.16-.44,12.88,12.88,0,0,0-2.29-.23c-.66.09-1,.51-1.64.61s-1.39,0-2,.12a5.45,5.45,0,0,1-2,.17,5.22,5.22,0,0,0-3.89,1.18c-.83.55-1.41,1.52-2.24,2a5.71,5.71,0,0,1-4,.66c-2.72-.27-6.19,0-8.79-.78-2.33-.74-4.59-2-6.93-2.73-2.69-.85-6.3-.52-9.12-.79s-4.82.62-6.92,2.77c-1,1.05-1.77,2.36-2.91,3.36a18.81,18.81,0,0,1-2.74,1.81c-2.6,1.62-5.63,2.36-7.91,4.56a11.19,11.19,0,0,0-2.81,4.91c-.46,1.8-.26,3.66-.83,5.4s-.45,2.93-2,4.28-3.33,3.65-5,4.63c-3.42,2-7.69,1.54-11.28,2.78a9.14,9.14,0,0,0-3.61,2.42c-1.23,1.21-2.79,1.82-4.19,2.87a39.62,39.62,0,0,1-3.45,2.43c-1.91,1.15-2.31,2.22-3.45,4-.92,1.43-2,2.75-3,4.19a9.33,9.33,0,0,1-4.25,3.93,11.74,11.74,0,0,1-4.93.37,22.05,22.05,0,0,1-2.57-.19,12,12,0,0,1-3.19-1.7c-1.37-.79-2.72-1.59-4-2.39-1.51-1-2.69-2.64-4-4.07-2.62-2.91-.85-7-2.69-10.24-.87-1.53-2.49-2.5-3.49-3.89-1.09-1.56-1.48-3.14-2.93-4.41-1.17-1-2.57-1.79-3.42-3.21-1-1.62-1.4-3.94-2.53-5.4-1.45-1.85-4.69-3.84-6.89-4-2.9-.23-6-1-8.82-.2-1.26.36-3,.91-4.32.41s-2.42-2.55-3.17-3.83a48.86,48.86,0,0,1-2.66-4.45,15,15,0,0,0-.84-2,8.76,8.76,0,0,0-2.15-1.37,49.9,49.9,0,0,0-4.39-2.45c-1.07-.54-2.6-1.93-2.76.2-1.09-.11-1.48-3.32-1.61-4.29-.44-3.13-.71-6.73-1.85-9.7-1.33-3.46-5.2-5.22-8.07-7.17-1.24-.84-2.32-2.32-3.67-2.76-.71-.23-1.59.07-2.31-.15a18.86,18.86,0,0,0-2.53-1c-1.85-.28-3.3.4-5.11.26a10.37,10.37,0,0,0-5.46,1,23.42,23.42,0,0,0-4.09,2.35,13.1,13.1,0,0,1-5.09,1.8c-3.35.61-6.46,1.08-8.37,4.37-.61,1-.86,3.24-1.92,3.8-1.32.7-3.43,0-4.76.44s-1.92,2.48-3.08,3.3a12.76,12.76,0,0,1-3.92,1.58,17.16,17.16,0,0,0-9.16,5.93,45.47,45.47,0,0,0-3.2,5.23c-.68,1.11-1.77,2.06-2.55,3.17-.91,1.28-1.85,3.24-3.24,4a7.53,7.53,0,0,1-2,.45c-1.63.4-1.32.21-2.91-.36a29.3,29.3,0,0,1-4.14-1.44c-1.47-.8-2.7-2.07-4.35-2.66-3.35-1.2-6.67-.27-9.63,1.38-1.16.66-2.62,1.54-4,1.4a9.69,9.69,0,0,1-2.35-1c-1-.36-2.55-.63-3.29-1.35-.57-.57-.91-1.36-1.53-2a7.22,7.22,0,0,1-1.44-2.4c-.87-1.71-.76-2.64-.6-4.62s.33-4,.49-6c.13-1.54.7-3.72.13-5.15-.36-.94-.87-1.11-1.51-1.77-1.07-1.12-1-1.76-1.06-3.18-.1-1.72-.15-4-1.52-5.19-1.12-.94-2.59-1.35-3.74-2.17-.59-.42-1.1-1-1.72-1.38a9.16,9.16,0,0,0-2-.83c-1.66-.6-2.21-1.13-3.47.5-.91,1.17-1.5,2.41-2.42,3.56-1.79,2.21-4.8,2.65-7.33,3.62-1.19.46-2.08,1.1-3.24,1.59s-2.43,1.57-3.58,1.94-3.13-.12-4.42-.26a9.75,9.75,0,0,0-2.3.13c-.85.11-1.76,0-2.63.16-1.53.24-3.2,1.23-4.71,1.66s-3.06.21-4.47.71a38.66,38.66,0,0,0-7.52,4.1c-2.47,1.56-6.12,2.95-8.92,2.81-1.22-.05-3.24,0-4.22-.7s-1.47-2.74-3.05-2.77a13.92,13.92,0,0,0-2,.75c-.67.2-1.32.33-2,.5a6.36,6.36,0,0,1-5.2-.64c-1.14-.66-2.75-1.36-3.57-2.53s-.92-2.71-1.75-3.78c-2.17-2.85-5.93-3.19-9-2.66-1.71.29-2.24-.25-3.52,1.17s-1.91,2.92-3.42,4a6.22,6.22,0,0,1-4.73,1.47,14.62,14.62,0,0,0-5.65.86c-1.8.54-3.58,1.44-5.38,1.94-1.27.35-3.66,1-5,.58-3.09-.9-5.73-3.09-8.87-3.58-1.55-.24-2.54.21-3.94.34a24.47,24.47,0,0,1-4.94.24c-1.52-.14-3.2-.59-4.62.25a10.83,10.83,0,0,0-3,3.19c-1.61,2.34-2.64,5-5.25,6.53-1.53.88-3.27,1.34-4.8,2.29a10.86,10.86,0,0,0-3.73,4.64,6.07,6.07,0,0,1-3.11,3.08,9.11,9.11,0,0,1-2.36.74,4.45,4.45,0,0,1-2.52-.78c-1.65-.75-3.36-1.67-5-2.33-2.19-.87-4.13-.89-5.69-2.74-1.08-1.27-2-2.7-3.12-3.94V628Z"/><path class="cls-13" d="M0,628V522a3.25,3.25,0,0,0,.7.42c3,1.33,6.86.13,10-.08,1.63-.11,2.93.44,4.6.28,1.51-.15,3-.28,4.55-.42a17.76,17.76,0,0,0,4.84-1c1.67-.62,2.93.41,4.54-.23,6.25-2.49,11.46,6.34,12.77,11.52.39,1.61,0,2.4,1.31,3.57a5.69,5.69,0,0,0,1.6.94c.39.17.66.06,1.06.3.68.4.74,1.13,1.25,1.59a6.58,6.58,0,0,0,8.69.14,22.87,22.87,0,0,0,3.68-3.68,19.07,19.07,0,0,1,3.62-3c1.18-.86,2.08-1.77,3.41-2.09,2.49-.63,2.59-2.42,3.57-4.8a12,12,0,0,1,6-6.5c1.9-.86,3.39-3,4.92-4.43,1.16-1,2.42-2.07,3.48-3.2.82-.87,1.11-1.76,2.24-2.09,1.56-.47,3.32,0,4.87-.57a12.47,12.47,0,0,1,4.19-.92c1.48,0,2.37.5,3.94.34a17,17,0,0,0,4.5-1,13,13,0,0,1,4.48-1.17,31.58,31.58,0,0,0,4.28.31c1.78-.15,2.68-1.14,4.17-1.68a17.86,17.86,0,0,1,4.16-.44,12.88,12.88,0,0,1,2.29-.23c.66.09,1,.51,1.64.61s1.39,0,2,.12a5.45,5.45,0,0,0,2,.17,5.22,5.22,0,0,1,3.89,1.18c.83.55,1.41,1.52,2.24,2a5.71,5.71,0,0,0,4,.66c2.72-.27,6.19,0,8.79-.78,2.33-.74,4.59-2,6.93-2.73,2.69-.85,6.3-.52,9.12-.79s4.82.62,6.92,2.77c1.05,1.05,1.77,2.36,2.91,3.36a18.81,18.81,0,0,0,2.74,1.81c2.6,1.62,5.63,2.36,7.91,4.56a11.19,11.19,0,0,1,2.81,4.91c.46,1.8.26,3.66.83,5.4s.45,2.93,2,4.28,3.33,3.65,5,4.63c3.42,2,7.69,1.54,11.28,2.78a9.14,9.14,0,0,1,3.61,2.42c1.23,1.21,2.79,1.82,4.19,2.87a39.62,39.62,0,0,0,3.45,2.43c1.91,1.15,2.31,2.22,3.45,4,.92,1.43,2,2.75,3,4.19a9.33,9.33,0,0,0,4.25,3.93,11.74,11.74,0,0,0,4.93.37,22.05,22.05,0,0,0,2.57-.19,12,12,0,0,0,3.19-1.7c1.37-.79,2.72-1.59,4-2.39,1.51-1,2.69-2.64,4-4.07,2.62-2.91.85-7,2.69-10.24.87-1.53,2.49-2.5,3.49-3.89,1.09-1.56,1.48-3.14,2.93-4.41,1.17-1,2.57-1.79,3.42-3.21,1-1.62,1.4-3.94,2.53-5.4,1.45-1.85,4.69-3.84,6.89-4,2.9-.23,6-1,8.82-.2,1.26.36,3,.91,4.32.41s2.42-2.55,3.17-3.83a48.86,48.86,0,0,0,2.66-4.45,15,15,0,0,1,.84-2,8.76,8.76,0,0,1,2.15-1.37,49.9,49.9,0,0,1,4.39-2.45c1.07-.54,2.6-1.93,2.76.2,1.09-.11,1.48-3.32,1.61-4.29.44-3.13.71-6.73,1.85-9.7,1.33-3.46,5.2-5.22,8.07-7.17,1.24-.84,2.32-2.32,3.67-2.76.71-.23,1.59.07,2.31-.15a18.86,18.86,0,0,1,2.53-1c1.85-.28,3.3.4,5.11.26a10.37,10.37,0,0,1,5.46,1,23.42,23.42,0,0,1,4.09,2.35,13.1,13.1,0,0,0,5.09,1.8c3.35.61,6.46,1.08,8.37,4.37.61,1,.86,3.24,1.92,3.8,1.32.7,3.43,0,4.76.44s1.92,2.48,3.08,3.3a12.76,12.76,0,0,0,3.92,1.58,17.16,17.16,0,0,1,9.16,5.93,45.47,45.47,0,0,1,3.2,5.23c.68,1.11,1.77,2.06,2.55,3.17.91,1.28,1.85,3.24,3.24,4a7.53,7.53,0,0,0,2,.45c1.63.4,1.32.21,2.91-.36a29.3,29.3,0,0,0,4.14-1.44c1.47-.8,2.7-2.07,4.35-2.66,3.35-1.2,6.67-.27,9.63,1.38,1.16.66,2.62,1.54,4,1.4a9.69,9.69,0,0,0,2.35-1c1-.36,2.55-.63,3.29-1.35.57-.57.91-1.36,1.53-2a7.22,7.22,0,0,0,1.44-2.4c.87-1.71.76-2.64.6-4.62s-.33-4-.49-6c-.13-1.54-.7-3.72-.13-5.15.36-.94.87-1.11,1.51-1.77,1.07-1.12,1-1.76,1.06-3.18.1-1.72.15-4,1.52-5.19,1.12-.94,2.59-1.35,3.74-2.17.59-.42,1.1-1,1.72-1.38a9.16,9.16,0,0,1,2-.83c1.66-.6,2.21-1.13,3.47.5.91,1.17,1.5,2.41,2.42,3.56,1.79,2.21,4.8,2.65,7.33,3.62,1.19.46,2.08,1.1,3.24,1.59s2.43,1.57,3.58,1.94,3.13-.12,4.42-.26a9.75,9.75,0,0,1,2.3.13c.85.11,1.76,0,2.63.16,1.53.24,3.2,1.23,4.71,1.66s3.06.21,4.47.71a38.66,38.66,0,0,1,7.52,4.1c2.47,1.56,6.12,2.95,8.92,2.81,1.22-.05,3.24,0,4.22-.7s1.47-2.74,3.05-2.77a13.92,13.92,0,0,1,2,.75c.67.2,1.32.33,2,.5a6.36,6.36,0,0,0,5.2-.64c1.14-.66,2.75-1.36,3.57-2.53s.92-2.71,1.75-3.78c2.17-2.85,5.93-3.19,9-2.66,1.71.29,2.24-.25,3.52,1.17s1.91,2.92,3.42,4a6.22,6.22,0,0,0,4.73,1.47,14.62,14.62,0,0,1,5.65.86c1.8.54,3.58,1.44,5.38,1.94,1.27.35,3.66,1,5,.58,3.09-.9,5.73-3.09,8.87-3.58,1.55-.24,2.54.21,3.94.34a24.47,24.47,0,0,0,4.94.24c1.52-.14,3.2-.59,4.62.25a10.83,10.83,0,0,1,3,3.19c1.61,2.34,2.64,5,5.25,6.53,1.53.88,3.27,1.34,4.8,2.29a10.86,10.86,0,0,1,3.73,4.64,6.07,6.07,0,0,0,3.11,3.08,9.11,9.11,0,0,0,2.36.74,4.45,4.45,0,0,0,2.52-.78c1.65-.75,3.36-1.67,5-2.33,2.19-.87,4.13-.89,5.69-2.74,1.08-1.27,2-2.7,3.12-3.94V628Z"/><path class="cls-14" d="M739.5,385.12l-305,21.55a9.2,9.2,0,0,1-10-9.29v-65l325-23v65A10.91,10.91,0,0,1,739.5,385.12Z"/><path class="cls-4" d="M529.78,351.39l-12.16,29.07-8.51.6,12.31-28.12L507,354v-7.07l22.78-1.61Z"/><path class="cls-4" d="M557.75,350l-15.28,1.08V358a7.17,7.17,0,0,1,2.81-2,11.86,11.86,0,0,1,3.92-.93,9.72,9.72,0,0,1,5.71,1.11,8.2,8.2,0,0,1,3.42,3.82,13.56,13.56,0,0,1,1.1,5.54,13,13,0,0,1-3.12,9,12.53,12.53,0,0,1-8.8,3.87,14.69,14.69,0,0,1-6.68-.9,9.29,9.29,0,0,1-4.37-3.51,10.39,10.39,0,0,1-1.63-5.55l8-.57a4.24,4.24,0,0,0,1.32,2.6,3.83,3.83,0,0,0,3,.84,4.14,4.14,0,0,0,3.24-1.62,6.22,6.22,0,0,0,1.08-3.78,4.44,4.44,0,0,0-1.15-3.33,4,4,0,0,0-3.22-1,4.94,4.94,0,0,0-2.64.88,3.82,3.82,0,0,0-1.44,1.91l-8,.56V344.43l22.73-1.6Z"/><path class="cls-4" d="M576.56,343.85a7.31,7.31,0,0,1,2.24,5.8,8.35,8.35,0,0,1-2.24,6.12,8.59,8.59,0,0,1-5.74,2.52,7.69,7.69,0,0,1-5.84-1.7,7.31,7.31,0,0,1-2.23-5.8,8.35,8.35,0,0,1,2.23-6.12,8.77,8.77,0,0,1,5.84-2.53A7.57,7.57,0,0,1,576.56,343.85ZM594.13,341l-18.55,35.38-7.93.56,18.55-35.38Zm-25.23,11.7a2.08,2.08,0,0,0,1.82.72,2.63,2.63,0,0,0,1.93-1,3.69,3.69,0,0,0,.72-2.38,3.25,3.25,0,0,0-.72-2.28,2.26,2.26,0,0,0-1.93-.71,2.43,2.43,0,0,0-1.82,1,3.84,3.84,0,0,0-.67,2.38A3.43,3.43,0,0,0,568.9,352.68Zm27.87,8.58a7.34,7.34,0,0,1,2.21,5.81,8.42,8.42,0,0,1-2.21,6.13,8.52,8.52,0,0,1-5.76,2.55,7.49,7.49,0,0,1-5.75-1.73,7.37,7.37,0,0,1-2.23-5.83,8.32,8.32,0,0,1,2.23-6.11,8.63,8.63,0,0,1,5.75-2.53A7.56,7.56,0,0,1,596.77,361.26Zm-7.64,8.88a2.11,2.11,0,0,0,1.88.71,2.52,2.52,0,0,0,1.85-1,3.9,3.9,0,0,0,.69-2.43,3.38,3.38,0,0,0-.69-2.28,2.12,2.12,0,0,0-1.85-.71,2.43,2.43,0,0,0-1.88,1,3.84,3.84,0,0,0-.67,2.38A3.52,3.52,0,0,0,589.13,370.14Z"/><path class="cls-4" d="M622.12,357.92l-4.15.29v4.22l-4,.28v-4.22l-4.15.29V355l4.15-.3v-4.24l4-.28v4.24l4.15-.29Z"/><path class="cls-4" d="M627.78,350.89v-3.84l6.87-.48v17l-4.32.3V350.71Z"/><path class="cls-4" d="M647.87,348.51,641.8,363l-4.25.3,6.15-14-7.2.51v-3.53l11.37-.8Z"/><path class="cls-4" d="M655.8,345.84a3.63,3.63,0,0,1,1.12,2.9,4.12,4.12,0,0,1-1.12,3.05,4.26,4.26,0,0,1-2.86,1.26,3.82,3.82,0,0,1-2.92-.85,3.64,3.64,0,0,1-1.12-2.89,4.2,4.2,0,0,1,1.12-3.06,4.33,4.33,0,0,1,2.92-1.26A3.77,3.77,0,0,1,655.8,345.84Zm8.78-1.43-9.27,17.67-4,.28,9.27-17.67ZM652,350.25a1,1,0,0,0,.91.36,1.29,1.29,0,0,0,1-.49,1.84,1.84,0,0,0,.36-1.19,1.64,1.64,0,0,0-.36-1.14,1.12,1.12,0,0,0-1-.35,1.2,1.2,0,0,0-.91.48,1.91,1.91,0,0,0-.34,1.19A1.67,1.67,0,0,0,652,350.25Zm13.92,4.29a3.67,3.67,0,0,1,1.1,2.89,4.06,4.06,0,0,1-4,4.34,3.74,3.74,0,0,1-2.87-.86A3.67,3.67,0,0,1,659,358a4.16,4.16,0,0,1,1.12-3.06,4.36,4.36,0,0,1,2.87-1.26A3.75,3.75,0,0,1,665.9,354.54ZM662.08,359a1.06,1.06,0,0,0,.94.35,1.22,1.22,0,0,0,.92-.48,1.93,1.93,0,0,0,.35-1.21,1.67,1.67,0,0,0-.35-1.14,1,1,0,0,0-.92-.36,1.22,1.22,0,0,0-.94.49,1.93,1.93,0,0,0-.34,1.19A1.76,1.76,0,0,0,662.08,359Z"/><path class="cls-15" d="M802,305.7,372,336.09a9.2,9.2,0,0,1-10-9.29V262.42a10.9,10.9,0,0,1,10-10.7l430-30.39a9.2,9.2,0,0,1,10,9.29V295A10.9,10.9,0,0,1,802,305.7Z"/><path class="cls-14" d="M440.75,271.06v36.43l-8.87.63V285.34L424,308.68l-7.68.54L408.37,287v22.83l-8.87.63V274l10.84-.77,9.92,24.68,9.7-26.06Z"/><path class="cls-14" d="M455.75,276.8v7.68l12.4-.87v6.69l-12.4.88v8.14l14-1v7.1l-22.84,1.62V270.37l22.84-1.61v7.06Z"/><path class="cls-14" d="M493.57,303.76l-7.93-13.29-2,.14v13.85l-8.87.63V268.4l15.15-1.07a15.88,15.88,0,0,1,7.37,1,9.4,9.4,0,0,1,4.51,3.8,12.13,12.13,0,0,1-.7,12.84,12.31,12.31,0,0,1-6.41,4.3l8.72,13.8Zm-10-19.22,5.5-.39a6,6,0,0,0,3.89-1.44,4.82,4.82,0,0,0,1.25-3.54,4.27,4.27,0,0,0-1.27-3.34,5.06,5.06,0,0,0-3.87-1l-5.5.39Z"/><path class="cls-14" d="M538.43,291.74a17.94,17.94,0,0,1-6.64,7,22.39,22.39,0,0,1-10.2,3.06l-13.85,1V266.07l13.85-1a20.74,20.74,0,0,1,10.23,1.56,14.38,14.38,0,0,1,6.61,6,18.4,18.4,0,0,1,2.31,9.38A20.39,20.39,0,0,1,538.43,291.74Zm-9.55-1.17a10.87,10.87,0,0,0,2.88-7.93q0-5-2.88-7.53c-1.92-1.7-4.61-2.42-8.06-2.18l-4.21.3v21l4.21-.3A12,12,0,0,0,528.88,290.57Z"/><path class="cls-14" d="M554.65,269.81v7.68l12.4-.87v6.69l-12.4.88v8.14l14-1v7.11l-22.84,1.61V263.38l22.84-1.61v7.06Z"/><path class="cls-14" d="M590.92,278.15l14.79,17.68-10.75.76L582.51,281v16.45l-8.87.63V261.41l8.87-.62v16.13l12.56-17,10.64-.75Z"/><path class="cls-14" d="M632.17,287.27l-13.75,1-2.29,6.86-9.34.66,13.44-37.38,10.23-.72,13.43,35.47-9.44.67Zm-2.29-6.58-4.56-13.17-4.62,13.81Z"/><path class="cls-14" d="M682.58,285.42a11.53,11.53,0,0,1-4.36,4.2,16.15,16.15,0,0,1-7,1.94q-6.18.45-10.17-2.29a10,10,0,0,1-4.36-8.09l9.45-.67a4.59,4.59,0,0,0,1.47,3.16,4.29,4.29,0,0,0,3.25,1,4,4,0,0,0,2.7-1.13,3.52,3.52,0,0,0,1-2.56,3,3,0,0,0-.91-2.27,6.32,6.32,0,0,0-2.25-1.37c-.9-.33-2.15-.72-3.74-1.16a42.31,42.31,0,0,1-5.68-1.91,9.53,9.53,0,0,1-3.79-3.05,9.09,9.09,0,0,1-1.58-5.63,10.19,10.19,0,0,1,1.66-5.77,11.69,11.69,0,0,1,4.59-4,17.43,17.43,0,0,1,6.72-1.75q6.12-.44,9.73,2.22a10.23,10.23,0,0,1,4.07,7.7l-9.6.68a4.51,4.51,0,0,0-1.32-2.78,3.64,3.64,0,0,0-2.88-.86,4,4,0,0,0-2.52,1,3.28,3.28,0,0,0-1,2.51,2.91,2.91,0,0,0,.86,2.15,6,6,0,0,0,2.15,1.32c.87.32,2.11.72,3.74,1.19a39,39,0,0,1,5.76,1.95,10,10,0,0,1,3.84,3.13,9.21,9.21,0,0,1,1.61,5.7A10.73,10.73,0,0,1,682.58,285.42Z"/><path class="cls-14" d="M711.71,281.65l-13.75,1-2.28,6.85-9.34.66,13.44-37.37L710,252l13.44,35.47-9.44.67Zm-2.28-6.59-4.57-13.16-4.61,13.81Z"/><path class="cls-14" d="M735.74,279.85l11.83-.84v6.8l-20.7,1.46V250.58l8.87-.62Z"/><path class="cls-14" d="M760.54,255.26v7.68l12.4-.88v6.7l-12.4.88v8.14l14-1v7.1l-22.83,1.62V248.83l22.83-1.61v7.06Z"/><polyline class="cls-16" points="1074.94 105 1096.97 91.41 1096.97 83.2 1074.94 96.8"/><polyline class="cls-14" points="1074.94 105 1053.03 91.41 1059.94 87.54 1074.94 96.8"/><polyline class="cls-14" points="1053.03 91.41 1067.68 83.2 1067.68 83.2 1074.94 88.59 1080.57 84.61 1067.68 75 1053.03 83.2"/><polyline class="cls-16" points="1090.06 87.54 1082.32 83.2 1080.45 84.61 1074.94 80.51 1082.32 75 1096.97 83.2"/><rect class="cls-1" x="1000" y="50" width="150" height="80"/></g></g></svg>