<?xml version="1.0" encoding="utf-8"?>
<!-- Generator: Adobe Illustrator 23.0.0, SVG Export Plug-In . SVG Version: 6.00 Build 0)  -->
<svg version="1.1" id="Layer_1" xmlns="http://www.w3.org/2000/svg" xmlns:xlink="http://www.w3.org/1999/xlink" x="0px" y="0px"
	 viewBox="0 0 300 40" style="enable-background:new 0 0 300 40;" xml:space="preserve">
<style type="text/css">
	.st0{fill-rule:evenodd;clip-rule:evenodd;fill:#226A7C;}
	.st1{fill-rule:evenodd;clip-rule:evenodd;fill:#EE7A2A;}
	.st2{fill-rule:evenodd;clip-rule:evenodd;fill:#FFFFFF;}
	.st3{fill:#253B80;}
	.st4{fill:#179BD7;}
	.st5{fill:#222D65;}
	.st6{fill:#4C2A86;}
</style>
<g>
	<path class="st0" d="M45.2,9.1h4.6l11.3,15.2c0,0,0-11.6,0-12.9s-1.8-2.3-1.8-2.3h5.8c0,0-1.5,0.9-1.5,2.2s0,19.5,0,19.5
		s-2.7-1.1-4.7-3.8c-2-2.8-9.6-12.7-9.6-12.7s0,12.4,0,13.4c0,0.9,1.6,2.1,1.6,2.1h-5.7c0,0,1.6-0.9,1.6-2c0-1.2,0-14.5,0-16.3
		S45.2,9.1,45.2,9.1z"/>
	<path class="st0" d="M70,24.3V11.4c0-1.3-1.8-2.3-1.8-2.3H75c0,0-1.5,0.9-1.5,2.2v16.1c0,1.2,1.4,2.2,1.4,2.2l-6.5,0.1
		c0,0,1.6-1,1.6-2C70,26.8,70,24.3,70,24.3z"/>
	<path class="st0" d="M31.1,11.1v6.2h3c1.4,0,3.3-0.7,3.3-3.3s-2.9-3-3.9-3L31.1,11.1L31.1,11.1z M31.1,19.4v8.1H35
		c1.5,0,4.3-1.3,4.3-3.8c0-2.5-2.3-4.3-4.5-4.3L31.1,19.4L31.1,19.4z M26.1,9.1h10c2.2,0,4.8,1.9,4.8,4.5c0,3.5-2.7,4-2.7,4
		s4.8,1.2,4.8,5.7s-5.2,6.3-6.9,6.3H25.9c0,0,1.7-0.9,1.7-2.5V11.5C27.7,10,26.1,9.1,26.1,9.1z"/>
	<rect y="9.1" class="st1" width="20.7" height="20.7"/>
	<path class="st2" d="M6.7,9.1h2.6c0,0-0.4,1.3,0,4.1c0.4,2.7,2.6,4.8,2.6,4.8s-0.7-1.7,2.2-4.8s6.7-1.2,6.7-1.2v3.6
		c0,0-2.6-3.3-5.4-1.7c-2,1.2-3.2,2.9-0.6,7.1s5.9,2.6,5.9,2.6v1c0,0-1.4,1.3-4.3,0.9c-1.8-0.3-3.3-1.4-4.8-3.3l-2.5,2
		c1.6,1.9,2.9,3.3,3.3,3.6c1.4,0.9,2.5,0.9,2.5,0.9l-1.4,1.2H10c0,0,0.3-0.7-0.3-1.3c-0.6-0.6-2.4-3-2.4-3L2,29.8H0.1l6.3-5.2
		L0,16.7v-3.9c0,0,4.6,6,8.2,10.4l2.5-2c-0.7-0.9-1.5-2-2.3-3.1C5.4,14,6.7,9.1,6.7,9.1z"/>
</g>
<g id="XMLID_4_">
	<g id="XMLID_75_">
		<g id="XMLID_76_">
			<g>
				<g>
					<defs>
						<rect id="SVGID_1_" x="112.5" y="10" width="75" height="20"/>
					</defs>
					<clipPath id="SVGID_2_">
						<use xlink:href="#SVGID_1_"  style="overflow:visible;"/>
					</clipPath>
				</g>
			</g>
		</g>
	</g>
	<g id="XMLID_12_">
		<g id="XMLID_13_">
			<g id="XMLID_14_">
				<g id="XMLID_15_">
					<path id="XMLID_57_" class="st3" d="M140.9,18c-0.2,1.5-1.4,1.5-2.5,1.5h-0.6l0.4-2.8c0-0.2,0.2-0.3,0.3-0.3h0.3
						c0.7,0,1.5,0,1.8,0.4C140.9,17.1,141,17.5,140.9,18z M140.4,14.1h-4.1c-0.3,0-0.5,0.2-0.6,0.5l-1.7,10.6c0,0.2,0.1,0.4,0.3,0.4
						h2c0.3,0,0.5-0.2,0.6-0.5l0.5-2.9c0-0.3,0.3-0.5,0.6-0.5h1.3c2.7,0,4.3-1.3,4.7-3.9c0.2-1.1,0-2-0.5-2.7
						C142.9,14.5,141.8,14.1,140.4,14.1z"/>
					<path id="XMLID_54_" class="st3" d="M150,21.8c-0.2,1.1-1.1,1.9-2.2,1.9c-0.6,0-1-0.2-1.3-0.5c-0.3-0.3-0.4-0.8-0.3-1.4
						c0.2-1.1,1.1-1.9,2.2-1.9c0.6,0,1,0.2,1.3,0.5C150,20.7,150.1,21.2,150,21.8z M152.8,17.9h-2c-0.2,0-0.3,0.1-0.3,0.3l-0.1,0.6
						l-0.1-0.2c-0.4-0.6-1.4-0.8-2.3-0.8c-2.2,0-4.1,1.7-4.4,4c-0.2,1.2,0.1,2.3,0.7,3c0.6,0.7,1.5,1,2.5,1c1.8,0,2.7-1.1,2.7-1.1
						l-0.1,0.5c0,0.2,0.1,0.4,0.3,0.4h1.8c0.3,0,0.5-0.2,0.6-0.5l1.1-6.8C153.2,18.1,153,17.9,152.8,17.9z"/>
					<path id="XMLID_33_" class="st3" d="M163.4,17.9h-2c-0.2,0-0.4,0.1-0.5,0.3l-2.7,4l-1.2-3.9c-0.1-0.2-0.3-0.4-0.6-0.4h-2
						c-0.2,0-0.4,0.2-0.3,0.5l2.2,6.4l-2.1,2.9c-0.2,0.2,0,0.5,0.3,0.5h2c0.2,0,0.4-0.1,0.5-0.2l6.6-9.6
						C163.8,18.2,163.6,17.9,163.4,17.9z"/>
					<path id="XMLID_38_" class="st4" d="M170.4,18c-0.2,1.5-1.4,1.5-2.5,1.5h-0.6l0.4-2.8c0-0.2,0.2-0.3,0.3-0.3h0.3
						c0.7,0,1.5,0,1.8,0.4C170.4,17.1,170.5,17.5,170.4,18z M170,14.1h-4.1c-0.3,0-0.5,0.2-0.6,0.5l-1.7,10.6c0,0.2,0.1,0.4,0.3,0.4
						h2.1c0.2,0,0.4-0.1,0.4-0.3l0.5-3c0-0.3,0.3-0.5,0.6-0.5h1.3c2.7,0,4.3-1.3,4.7-3.9c0.2-1.1,0-2-0.5-2.7
						C172.4,14.5,171.3,14.1,170,14.1z"/>
					<path id="XMLID_21_" class="st4" d="M179.6,21.8c-0.2,1.1-1.1,1.9-2.2,1.9c-0.6,0-1-0.2-1.3-0.5c-0.3-0.3-0.4-0.8-0.3-1.4
						c0.2-1.1,1.1-1.9,2.2-1.9c0.6,0,1,0.2,1.3,0.5C179.5,20.7,179.6,21.2,179.6,21.8z M182.3,17.9h-2c-0.2,0-0.3,0.1-0.3,0.3
						l-0.1,0.6l-0.1-0.2c-0.4-0.6-1.4-0.8-2.3-0.8c-2.2,0-4.1,1.7-4.4,4c-0.2,1.2,0.1,2.3,0.7,3c0.6,0.7,1.5,1,2.5,1
						c1.8,0,2.7-1.1,2.7-1.1l-0.1,0.5c0,0.2,0.1,0.4,0.3,0.4h1.8c0.3,0,0.5-0.2,0.6-0.5l1.1-6.8C182.7,18.1,182.5,17.9,182.3,17.9z"
						/>
					<path id="XMLID_28_" class="st4" d="M184.6,14.4L183,25.2c0,0.2,0.1,0.4,0.3,0.4h1.7c0.3,0,0.5-0.2,0.6-0.5l1.7-10.6
						c0-0.2-0.1-0.4-0.3-0.4H185C184.8,14.1,184.7,14.2,184.6,14.4z"/>
					<path id="XMLID_27_" class="st3" d="M116.9,27.7l0.3-2l-0.7,0h-3.4l2.3-14.8c0,0,0-0.1,0.1-0.1c0,0,0.1,0,0.1,0h5.7
						c1.9,0,3.2,0.4,3.9,1.2c0.3,0.4,0.5,0.7,0.6,1.2c0.1,0.4,0.1,1,0,1.6l0,0V15l0.3,0.2c0.3,0.1,0.5,0.3,0.6,0.5
						c0.3,0.3,0.4,0.7,0.5,1.2c0.1,0.5,0.1,1.1-0.1,1.7c-0.1,0.7-0.4,1.4-0.7,1.9c-0.3,0.5-0.7,0.9-1.1,1.2
						c-0.4,0.3-0.9,0.5-1.5,0.7c-0.5,0.1-1.2,0.2-1.9,0.2h-0.4c-0.3,0-0.6,0.1-0.9,0.3c-0.2,0.2-0.4,0.5-0.5,0.8l0,0.2l-0.6,3.5
						l0,0.1c0,0,0,0.1,0,0.1c0,0,0,0-0.1,0L116.9,27.7L116.9,27.7L116.9,27.7z"/>
					<path id="XMLID_26_" class="st4" d="M126.4,14.7c0,0.1,0,0.2-0.1,0.3c-0.8,3.8-3.3,5.2-6.6,5.2h-1.7c-0.4,0-0.7,0.3-0.8,0.7
						l-0.9,5.4l-0.2,1.5c0,0.3,0.2,0.5,0.4,0.5h3c0.3,0,0.6-0.3,0.7-0.6l0-0.2l0.6-3.5l0-0.2c0.1-0.3,0.4-0.6,0.7-0.6h0.4
						c2.9,0,5.1-1.2,5.8-4.5c0.3-1.4,0.1-2.6-0.6-3.4C127,15,126.8,14.8,126.4,14.7z"/>
					<path id="XMLID_25_" class="st5" d="M125.7,14.3c-0.1,0-0.2-0.1-0.4-0.1c-0.1,0-0.2,0-0.4-0.1c-0.4-0.1-0.9-0.1-1.5-0.1H119
						c-0.1,0-0.2,0-0.3,0.1c-0.2,0.1-0.4,0.3-0.4,0.5l-0.9,6l0,0.2c0.1-0.4,0.4-0.7,0.8-0.7h1.7c3.3,0,5.8-1.3,6.6-5.2
						c0-0.1,0-0.2,0.1-0.3c-0.2-0.1-0.4-0.2-0.6-0.3C125.8,14.4,125.7,14.4,125.7,14.3z"/>
					<path id="XMLID_24_" class="st3" d="M118.3,14.7c0-0.2,0.2-0.4,0.4-0.5c0.1,0,0.2-0.1,0.3-0.1h4.4c0.5,0,1,0,1.5,0.1
						c0.1,0,0.3,0,0.4,0.1c0.1,0,0.2,0.1,0.4,0.1c0.1,0,0.1,0,0.2,0.1c0.2,0.1,0.4,0.2,0.6,0.3c0.2-1.4,0-2.4-0.8-3.3
						c-0.8-1-2.4-1.4-4.3-1.4h-5.7c-0.4,0-0.7,0.3-0.8,0.7l-2.4,15c0,0.3,0.2,0.6,0.5,0.6h3.5l0.9-5.6L118.3,14.7z"/>
				</g>
			</g>
		</g>
	</g>
	<g id="XMLID_5_">
		<g id="XMLID_6_">
			<g>
				<g>
					<defs>
						<polyline id="SVGID_3_" points="187.5,10 187.5,30 112.5,30 112.5,10 						"/>
					</defs>
					<clipPath id="SVGID_4_">
						<use xlink:href="#SVGID_3_"  style="overflow:visible;"/>
					</clipPath>
				</g>
			</g>
		</g>
	</g>
</g>
<g>
	<path class="st6" d="M237.2,7.7c6.9,0,12.3,5.4,12.3,12.3c0,6.9-5.4,12.3-12.2,12.3c-7,0-12.3-5.3-12.3-12.3
		C225,13.1,230.3,7.7,237.2,7.7z M244.8,20c0-4.5-3.2-8-7.2-8.2c-4.7-0.1-8.4,4.1-7.8,9c0.5,4.3,3.4,7.3,7.2,7.4
		C241.4,28.3,244.8,24.7,244.8,20z"/>
	<path class="st6" d="M287.9,7.7C294.7,7.7,300,13,300,20c0,7-5.3,12.3-12.2,12.4c-6.1,0-12.2-4.5-12.2-12.4
		C275.5,12.9,280.9,7.7,287.9,7.7z M280.2,20c0,4.5,3.2,8.1,7.2,8.2c4.6,0.1,8.2-3.8,7.9-8.6c-0.3-3.8-2.5-6.7-5.6-7.5
		C284.7,10.8,280.2,14.6,280.2,20z"/>
	<path class="st6" d="M263.3,25.3c1.8-4.4,3.5-8.5,5.2-12.8c-0.8-0.1-1.5-0.2-2.3-0.2c0-1.2,0-2.3,0-3.4c0-0.2,0.5-0.6,0.8-0.6
		c2.1,0,4.2-0.1,6.2,0c0.3,0,0.8,0.5,0.8,0.8c0,0.8,0,1.7-0.4,2.4c-2.8,6.7-5.6,13.3-8.4,19.9c-0.3,0.8-0.7,1-1.5,0.9
		c-1.8-0.1-3-1-3.6-2.6c-2.2-5-4.4-10-6.5-15.1c-0.6-1.5-1.2-2.9-3.4-2.2c0-1.4,0-2.6,0-3.7c0-0.2,0.5-0.5,0.8-0.5
		c2.7,0,5.5,0,8.2,0c0.6,0,0.9,0.2,0.9,0.9c0,0.3,0,0.6,0,0.9c0,2.2,0,2.2-2.3,2.5C259.7,16.7,261.5,20.9,263.3,25.3z"/>
</g>
</svg>
