<?xml version="1.0" encoding="utf-8"?>
<!-- Generator: Adobe Illustrator 23.0.0, SVG Export Plug-In . SVG Version: 6.00 Build 0)  -->
<svg version="1.1" id="Layer_1" xmlns="http://www.w3.org/2000/svg" xmlns:xlink="http://www.w3.org/1999/xlink" x="0px" y="0px"
	 viewBox="0 0 150 157" style="enable-background:new 0 0 150 157;" xml:space="preserve">
<style type="text/css">
	.st0{fill-rule:evenodd;clip-rule:evenodd;fill:#226A7C;}
	.st1{fill-rule:evenodd;clip-rule:evenodd;fill:#EE7A2A;}
	.st2{fill-rule:evenodd;clip-rule:evenodd;fill:#FFFFFF;}
	.st3{fill:#253B80;}
	.st4{fill:#179BD7;}
	.st5{fill:#222D65;}
	.st6{fill:#4C2A86;}
</style>
<g>
	<path class="st0" d="M90.32,0.1h9.26l22.58,30.4c0,0,0-23.16,0-25.77s-3.57-4.54-3.57-4.54h11.58c0,0-3.03,1.73-3.03,4.49
		s0,39.08,0,39.08s-5.35-2.17-9.41-7.67c-4.05-5.5-19.25-25.33-19.25-25.33s0,24.9,0,26.77c0,1.89,3.19,4.21,3.19,4.21H90.24
		c0,0,3.19-1.73,3.19-4.05s0-29.09,0-32.56S90.32,0.1,90.32,0.1z"/>
	<path class="st0" d="M140.01,30.49V4.73c0-2.61-3.57-4.54-3.57-4.54H150c0,0-3.03,1.73-3.03,4.49v32.28c0,2.46,2.9,4.34,2.9,4.34
		l-13.02,0.15c0,0,3.19-1.98,3.19-4C140.01,35.41,140.01,30.49,140.01,30.49z"/>
	<path class="st0" d="M62.24,4.15V16.6h5.93c2.74,0,6.66-1.44,6.66-6.51s-5.79-5.93-7.82-5.93L62.24,4.15L62.24,4.15z M62.24,20.65
		v16.21h7.82c3.04,0,8.68-2.61,8.68-7.67c0-5.07-4.63-8.54-8.97-8.54L62.24,20.65L62.24,20.65z M52.15,0.05h19.97
		c4.49,0,9.65,3.81,9.65,9.02c0,7.09-5.46,8.06-5.46,8.06s9.55,2.32,9.55,11.43s-10.42,12.59-13.9,12.59H51.86
		c0,0,3.47-1.88,3.47-4.92V4.97C55.34,1.78,52.15,0.05,52.15,0.05z"/>
	<rect class="st1" width="41.4" height="41.4"/>
	<path class="st2" d="M13.31,0h5.21c0,0-0.87,2.61,0,8.1c0.87,5.49,5.21,9.55,5.21,9.55s-1.44-3.47,4.34-9.55S41.4,5.79,41.4,5.79
		v7.24c0,0-5.21-6.66-10.71-3.47c-4.05,2.35-6.37,5.79-1.15,14.19s11.87,5.21,11.87,5.21v2.03c0,0-2.9,2.61-8.68,1.73
		c-3.6-0.54-6.51-2.86-9.67-6.58l-5.07,4.05c3.19,3.84,5.77,6.64,6.64,7.16c2.9,1.73,4.92,1.73,4.92,1.73l-2.9,2.32h-6.66
		c0,0,0.58-1.44-0.58-2.61c-1.15-1.15-4.83-5.99-4.83-5.99L4.05,41.4H0.16l12.57-10.42L0,15.34V7.52c0,0,9.26,11.94,16.46,20.71
		l4.98-4.07c-1.39-1.76-3.06-4.1-4.66-6.23C10.71,9.85,13.31,0,13.31,0z"/>
</g>
<g>
	<g id="XMLID_4_">
		<g id="XMLID_75_">
			<g id="XMLID_76_">
				<g>
					<g>
						<defs>
							<rect id="SVGID_5_" x="0" y="57.54" width="150" height="39.92"/>
						</defs>
						<clipPath id="SVGID_1_">
							<use xlink:href="#SVGID_5_"  style="overflow:visible;"/>
						</clipPath>
					</g>
				</g>
			</g>
		</g>
		<g id="XMLID_12_">
			<g id="XMLID_13_">
				<g id="XMLID_14_">
					<g id="XMLID_15_">
						<path id="XMLID_57_" class="st3" d="M56.85,73.46c-0.45,2.97-2.72,2.97-4.92,2.97h-1.25l0.88-5.54
							c0.05-0.34,0.34-0.58,0.68-0.58h0.57c1.49,0,2.91,0,3.63,0.86C56.89,71.65,57.01,72.41,56.85,73.46z M55.9,65.7h-8.27
							c-0.57,0-1.05,0.42-1.14,0.97l-3.35,21.22c-0.07,0.42,0.26,0.8,0.68,0.8h3.95c0.57,0,1.05-0.42,1.14-0.97l0.9-5.72
							c0.09-0.56,0.57-0.97,1.14-0.97h2.62c5.45,0,8.59-2.63,9.41-7.86c0.37-2.28,0.02-4.08-1.05-5.34
							C60.75,66.44,58.66,65.7,55.9,65.7z"/>
						<path id="XMLID_54_" class="st3" d="M75.1,81.07c-0.38,2.26-2.18,3.78-4.47,3.78c-1.15,0-2.07-0.37-2.66-1.07
							c-0.58-0.7-0.81-1.68-0.62-2.78c0.35-2.25,2.18-3.81,4.44-3.81c1.12,0,2.04,0.37,2.64,1.08
							C75.04,78.98,75.28,79.97,75.1,81.07z M80.63,73.36h-3.96c-0.34,0-0.63,0.25-0.68,0.58l-0.18,1.11l-0.27-0.4
							c-0.86-1.25-2.77-1.66-4.68-1.66c-4.38,0-8.12,3.32-8.84,7.96c-0.38,2.32,0.16,4.53,1.48,6.08c1.21,1.42,2.93,2.02,4.99,2.02
							c3.53,0,5.48-2.26,5.48-2.26l-0.18,1.1c-0.07,0.42,0.26,0.8,0.68,0.8h3.57c0.57,0,1.04-0.42,1.14-0.97l2.14-13.56
							C81.37,73.74,81.06,73.36,80.63,73.36z"/>
						<path id="XMLID_33_" class="st3" d="M101.72,73.36h-3.98c-0.38,0-0.73,0.19-0.95,0.5l-5.49,8.09l-2.32-7.78
							c-0.15-0.49-0.59-0.82-1.11-0.82h-3.92c-0.47,0-0.8,0.47-0.65,0.92l4.38,12.86l-4.12,5.83c-0.33,0.46,0,1.09,0.57,1.09h3.97
							c0.37,0,0.73-0.19,0.95-0.5l13.24-19.11C102.61,73.99,102.28,73.36,101.72,73.36z"/>
						<path id="XMLID_38_" class="st4" d="M115.86,73.46c-0.45,2.97-2.72,2.97-4.92,2.97h-1.25l0.88-5.54
							c0.05-0.34,0.34-0.58,0.68-0.58h0.57c1.49,0,2.91,0,3.63,0.86C115.9,71.65,116.03,72.41,115.86,73.46z M114.91,65.7h-8.27
							c-0.57,0-1.04,0.42-1.14,0.97l-3.35,21.22c-0.07,0.42,0.26,0.8,0.68,0.8h4.24c0.39,0,0.73-0.29,0.8-0.68l0.95-6.01
							c0.09-0.56,0.57-0.97,1.14-0.97h2.62c5.45,0,8.59-2.63,9.41-7.86c0.37-2.28,0.01-4.08-1.05-5.34
							C119.76,66.44,117.67,65.7,114.91,65.7z"/>
						<path id="XMLID_21_" class="st4" d="M134.11,81.07c-0.38,2.26-2.18,3.78-4.47,3.78c-1.15,0-2.07-0.37-2.66-1.07
							c-0.58-0.7-0.8-1.68-0.62-2.78c0.35-2.25,2.18-3.81,4.44-3.81c1.12,0,2.04,0.37,2.64,1.08
							C134.04,78.98,134.28,79.97,134.11,81.07z M139.63,73.36h-3.96c-0.34,0-0.63,0.25-0.68,0.58l-0.18,1.11l-0.27-0.4
							c-0.86-1.25-2.77-1.66-4.68-1.66c-4.38,0-8.12,3.32-8.84,7.96c-0.37,2.32,0.16,4.53,1.48,6.08c1.21,1.42,2.93,2.02,4.99,2.02
							c3.53,0,5.48-2.26,5.48-2.26l-0.18,1.1c-0.07,0.42,0.26,0.8,0.68,0.8h3.57c0.57,0,1.04-0.42,1.14-0.97l2.14-13.56
							C140.38,73.74,140.05,73.36,139.63,73.36z"/>
						<path id="XMLID_28_" class="st4" d="M144.3,66.29l-3.39,21.6c-0.07,0.42,0.26,0.8,0.68,0.8H145c0.57,0,1.05-0.42,1.14-0.97
							l3.35-21.22c0.07-0.42-0.26-0.8-0.68-0.8h-3.82C144.64,65.7,144.36,65.96,144.3,66.29z"/>
						<path id="XMLID_27_" class="st3" d="M8.79,92.81l0.64-4.01l-1.41-0.03H1.29l4.68-29.65c0.01-0.09,0.06-0.17,0.13-0.23
							c0.07-0.06,0.16-0.09,0.25-0.09H17.7c3.77,0,6.36,0.79,7.73,2.33c0.64,0.72,1.04,1.49,1.24,2.32c0.2,0.88,0.21,1.92,0.01,3.2
							l-0.01,0.09v0.81l0.64,0.36c0.53,0.28,0.96,0.61,1.29,0.98c0.55,0.62,0.89,1.41,1.04,2.34c0.15,0.96,0.11,2.1-0.15,3.4
							c-0.29,1.49-0.76,2.78-1.4,3.85c-0.58,0.97-1.33,1.79-2.2,2.42c-0.84,0.59-1.84,1.05-2.97,1.33c-1.1,0.28-2.34,0.43-3.71,0.43
							h-0.88c-0.64,0-1.25,0.23-1.72,0.64c-0.49,0.42-0.8,0.98-0.9,1.61l-0.07,0.36l-1.11,7.08l-0.05,0.26
							c-0.01,0.08-0.04,0.12-0.07,0.15c-0.03,0.03-0.07,0.04-0.11,0.04H8.81v-0.03H8.79z"/>
						<path id="XMLID_26_" class="st4" d="M27.88,66.82c-0.04,0.21-0.07,0.43-0.11,0.66c-1.5,7.68-6.61,10.33-13.15,10.33h-3.33
							c-0.8,0-1.48,0.58-1.6,1.37L7.98,90l-0.49,3.07c-0.08,0.51,0.32,0.98,0.84,0.98h5.91c0.7,0,1.3-0.51,1.4-1.19l0.05-0.3
							l1.11-7.05l0.07-0.39c0.11-0.7,0.71-1.19,1.4-1.19h0.88c5.72,0,10.2-2.32,11.51-9.04c0.55-2.8,0.27-5.15-1.18-6.8
							C29.05,67.57,28.51,67.15,27.88,66.82z"/>
						<path id="XMLID_25_" class="st5" d="M26.32,66.2c-0.23-0.07-0.47-0.13-0.71-0.19c-0.25-0.05-0.5-0.1-0.75-0.14
							c-0.89-0.15-1.88-0.21-2.93-0.21h-8.89c-0.22,0-0.43,0.05-0.61,0.14c-0.42,0.19-0.72,0.58-0.79,1.06L9.74,78.84l-0.05,0.35
							c0.12-0.79,0.8-1.37,1.6-1.37h3.33c6.54,0,11.66-2.65,13.15-10.33c0.04-0.23,0.08-0.45,0.11-0.66
							c-0.38-0.2-0.79-0.37-1.23-0.51C26.54,66.26,26.43,66.22,26.32,66.2z"/>
						<path id="XMLID_24_" class="st3" d="M11.63,66.85c0.07-0.47,0.38-0.87,0.79-1.06c0.19-0.09,0.39-0.14,0.61-0.14h8.89
							c1.05,0,2.04,0.07,2.93,0.21c0.26,0.04,0.5,0.09,0.75,0.14c0.24,0.05,0.48,0.11,0.71,0.19c0.11,0.04,0.23,0.07,0.34,0.11
							c0.44,0.15,0.86,0.32,1.23,0.51c0.44-2.84-0.01-4.77-1.54-6.52c-1.68-1.92-4.74-2.75-8.65-2.75H6.34
							c-0.8,0-1.48,0.58-1.6,1.37L0.01,88.86C-0.08,89.46,0.37,90,0.97,90h7.01l1.76-11.16L11.63,66.85z"/>
					</g>
				</g>
			</g>
		</g>
		<g id="XMLID_5_">
			<g id="XMLID_6_">
				<g>
					<g>
						<defs>
							<polyline id="SVGID_7_" points="149.99,57.54 149.99,97.47 0,97.47 0,57.54 							"/>
						</defs>
						<clipPath id="SVGID_2_">
							<use xlink:href="#SVGID_7_"  style="overflow:visible;"/>
						</clipPath>
					</g>
				</g>
			</g>
		</g>
	</g>
</g>
<g>
	<g>
		<path class="st6" d="M24.43,104.34c13.78-0.05,24.63,10.86,24.55,24.68c-0.09,13.87-10.71,24.58-24.38,24.59
			C10.64,153.63,0.08,143.09,0,129.07C-0.09,115.11,10.51,104.39,24.43,104.34z M39.51,128.96c0-8.92-6.32-16.1-14.39-16.34
			c-9.45-0.28-16.74,8.11-15.64,18.01c0.94,8.51,6.88,14.56,14.46,14.71C32.79,145.52,39.51,138.46,39.51,128.96z"/>
		<path class="st6" d="M125.7,104.35c13.73,0.03,24.28,10.71,24.3,24.6c0.02,13.98-10.65,24.59-24.5,24.7
			c-12.13,0.09-24.35-8.93-24.45-24.77C100.95,114.86,111.81,104.32,125.7,104.35z M110.48,128.95
			c-0.01,8.92,6.33,16.18,14.34,16.39c9.26,0.25,16.43-7.57,15.77-17.19c-0.51-7.55-4.91-13.42-11.26-15.05
			C119.45,110.6,110.5,118.12,110.48,128.95z"/>
		<path class="st6" d="M76.64,139.67c3.59-8.81,6.96-17.08,10.46-25.68c-1.61-0.17-2.94-0.32-4.55-0.49c0-2.3-0.1-4.53,0.08-6.75
			c0.03-0.46,1.06-1.19,1.65-1.2c4.15-0.1,8.31-0.11,12.46,0.02c0.57,0.02,1.57,0.99,1.56,1.52c-0.01,1.62-0.1,3.36-0.71,4.83
			c-5.57,13.3-11.29,26.55-16.86,39.85c-0.64,1.55-1.5,1.93-2.98,1.85c-3.52-0.21-5.91-1.99-7.28-5.14
			c-4.37-10.04-8.77-20.05-13.03-30.13c-1.27-2.99-2.32-5.84-6.86-4.38c0-2.74-0.08-5.11,0.08-7.46c0.02-0.37,1.05-0.95,1.62-0.96
			c5.48-0.08,10.96-0.02,16.45-0.05c1.27-0.01,1.86,0.45,1.78,1.74c-0.03,0.58,0.01,1.16,0.01,1.75c0.02,4.38,0.02,4.38-4.62,5.08
			C69.41,122.49,72.92,130.82,76.64,139.67z"/>
	</g>
</g>
</svg>
