<?xml version="1.0" encoding="utf-8"?>
<!-- Generator: Adobe Illustrator 23.0.0, SVG Export Plug-In . SVG Version: 6.00 Build 0)  -->
<svg version="1.1" id="Layer_1" xmlns="http://www.w3.org/2000/svg" xmlns:xlink="http://www.w3.org/1999/xlink" x="0px" y="0px"
	 viewBox="0 0 1600 1372" style="enable-background:new 0 0 1600 1372;" xml:space="preserve">
<style type="text/css">
	.st0{fill:#D5F5FB;}
	.st1{fill:#FF5A5F;}
	.st2{fill:#1C00FF;}
	.st3{fill:#FFFFFF;}
</style>
<g id="XMLID_806_">
	<g id="XMLID_1434_">
		<rect id="XMLID_1457_" x="829.98" y="399.51" class="st0" width="104.4" height="60.24"/>
		<path id="XMLID_1456_" class="st1" d="M827.24,399.51h109.87c20.23,0,36.62-16.4,36.62-36.62l0,0c0-20.23-16.4-36.62-36.62-36.62
			H827.24c-20.23,0-36.62,16.4-36.62,36.62l0,0C790.62,383.11,807.01,399.51,827.24,399.51z"/>
		<circle id="XMLID_1452_" class="st2" cx="882.41" cy="752.75" r="293"/>
		<circle id="XMLID_2618_" class="st3" cx="882.41" cy="752.75" r="221.47"/>
		<circle id="XMLID_2592_" class="st1" cx="882.41" cy="752.75" r="32.16"/>
	</g>
	<g id="XMLID_386_">
		<path id="XMLID_389_" d="M1189.15,722.09c-7.02-70.56-38.54-137.08-88.77-187.31c-42.92-42.92-95.46-70.51-150.74-82.77v-38.77
			c22.58-5.62,39.36-26.06,39.36-50.35c0-28.61-23.28-51.89-51.89-51.89H827.24c-28.61,0-51.89,23.28-51.89,51.89
			c0,24.29,16.78,44.73,39.36,50.35v38.88c-55.11,12.32-107.48,39.86-150.28,82.66c-9.37,9.37-18,19.19-25.91,29.41
			c-0.38-0.03-0.77-0.06-1.16-0.06H528.63c-8.43,0-15.26,6.83-15.26,15.26s6.83,15.26,15.26,15.26h89.14
			c-11.19,18.73-20.21,38.4-27.08,58.65H424.6c-8.43,0-15.26,6.83-15.26,15.26s6.83,15.26,15.26,15.26h157.46
			c-4.4,19.31-6.92,38.95-7.57,58.66h-67.48c-8.43,0-15.26,6.83-15.26,15.26c0,8.43,6.83,15.26,15.26,15.26h67.97
			c1.29,19.75,4.46,39.4,9.53,58.66h-98.86c-8.43,0-15.26,6.83-15.26,15.26c0,8.43,6.83,15.26,15.26,15.26h108.6
			c14.97,39.6,38.37,76.72,70.2,108.55c50.28,50.28,116.87,81.81,187.5,88.79c10.08,0.99,20.17,1.49,30.24,1.49
			c59.55,0,118.34-17.23,168.23-49.72c7.06-4.6,9.06-14.05,4.46-21.12s-14.05-9.06-21.12-4.46
			c-109.2,71.11-255.44,55.73-347.74-36.56c-108.29-108.29-108.29-284.49,0-392.78c108.29-108.29,284.49-108.29,392.78,0
			c92.17,92.17,107.63,238.29,36.76,347.44c-4.59,7.07-2.58,16.52,4.49,21.11c7.07,4.59,16.52,2.58,21.11-4.49
			C1179.02,862.1,1196.07,791.67,1189.15,722.09z M805.88,362.89c0-11.78,9.58-21.36,21.36-21.36h109.87
			c11.78,0,21.36,9.58,21.36,21.36s-9.58,21.36-21.36,21.36h-2.74h-104.4h-2.74C815.46,384.25,805.88,374.67,805.88,362.89z
			 M845.24,446.87v-32.1h73.88v32.04C894.59,443.9,869.77,443.91,845.24,446.87z"/>
		<path id="XMLID_391_" d="M1089.6,944.67c-4.03,0-7.95,1.63-10.79,4.47c-2.85,2.84-4.47,6.78-4.47,10.79
			c0,4.01,1.62,7.95,4.47,10.79c2.84,2.85,6.76,4.47,10.79,4.47c4.01,0,7.94-1.62,10.79-4.47c2.84-2.84,4.47-6.78,4.47-10.79
			c0-4.01-1.63-7.95-4.47-10.79C1097.54,946.3,1093.61,944.67,1089.6,944.67z"/>
		<path id="XMLID_394_" d="M882.41,516.02c-130.53,0-236.73,106.2-236.73,236.73s106.2,236.73,236.73,236.73
			s236.73-106.2,236.73-236.73S1012.95,516.02,882.41,516.02z M882.41,958.96c-113.71,0-206.21-92.51-206.21-206.21
			s92.51-206.21,206.21-206.21s206.21,92.51,206.21,206.21S996.12,958.96,882.41,958.96z"/>
		<path id="XMLID_397_" d="M978.94,634.64l-75.58,75.58c-6.32-3.13-13.43-4.89-20.95-4.89c-7.52,0-14.63,1.77-20.95,4.89
			l-33.83-33.83c-5.96-5.96-15.62-5.96-21.58,0c-5.96,5.96-5.96,15.62,0,21.58l33.83,33.83c-3.13,6.32-4.89,13.43-4.89,20.95
			c0,26.15,21.27,47.42,47.42,47.42s47.42-21.27,47.42-47.42c0-7.52-1.77-14.63-4.89-20.95l73.37-73.37l0,0l2.22-2.22
			c5.96-5.96,5.96-15.62,0-21.58S984.91,628.68,978.94,634.64z M882.41,769.65c-9.32,0-16.9-7.58-16.9-16.9s7.58-16.9,16.9-16.9
			s16.9,7.58,16.9,16.9S891.73,769.65,882.41,769.65z"/>
		<path id="XMLID_398_" d="M1045.58,737.68h-14.14c-8.43,0-15.26,6.83-15.26,15.26c0,8.43,6.83,15.26,15.26,15.26h14.14
			c8.43,0,15.26-6.83,15.26-15.26C1060.84,744.51,1054,737.68,1045.58,737.68z"/>
		<path id="XMLID_399_" d="M733.39,737.3h-14.14c-8.43,0-15.26,6.83-15.26,15.26s6.83,15.26,15.26,15.26h14.14
			c8.43,0,15.26-6.83,15.26-15.26S741.82,737.3,733.39,737.3z"/>
		<path id="XMLID_400_" d="M882.6,618.99c8.43,0,15.26-6.83,15.26-15.26v-14.14c0-8.43-6.83-15.26-15.26-15.26
			c-8.43,0-15.26,6.83-15.26,15.26v14.14C867.34,612.15,874.17,618.99,882.6,618.99z"/>
		<path id="XMLID_424_" d="M882.23,886.51c-8.43,0-15.26,6.83-15.26,15.26v14.14c0,8.43,6.83,15.26,15.26,15.26
			s15.26-6.83,15.26-15.26v-14.14C897.49,893.35,890.65,886.51,882.23,886.51z"/>
		<path id="XMLID_425_" d="M424.6,831.65c-4.01,0-7.95,1.63-10.79,4.47c-2.84,2.84-4.47,6.78-4.47,10.79
			c0,4.03,1.63,7.95,4.47,10.79c2.84,2.84,6.78,4.47,10.79,4.47c4.01,0,7.95-1.63,10.79-4.47c2.84-2.84,4.47-6.78,4.47-10.79
			c0-4.01-1.63-7.95-4.47-10.79C432.55,833.28,428.61,831.65,424.6,831.65z"/>
	</g>
</g>
</svg>
