<svg id="Layer_1" data-name="Layer 1" xmlns="http://www.w3.org/2000/svg" viewBox="0 0 401.56 250"><defs><style>.cls-1{fill:#ffcd29;}.cls-2{fill:#ffae2c;}.cls-3{fill:#fc9322;}.cls-4{fill:#231f20;}</style></defs><title>starreview</title><path class="cls-1" d="M686.06,335.44a2.27,2.27,0,0,0,0-3.29,1.94,1.94,0,0,0-1.26-.63L629,323.37a2.43,2.43,0,0,1-1.73-1.26l-25.08-50.64a2.5,2.5,0,0,0-3.14-1.1,2.53,2.53,0,0,0-1.1,1.1L573,322.11a2.43,2.43,0,0,1-1.72,1.26l-55.82,8.15a2.32,2.32,0,0,0-1.88,2.66,1.89,1.89,0,0,0,.63,1.26l40.45,39.35a2.35,2.35,0,0,1,.63,2l-9.57,55.66a2.42,2.42,0,0,0,1.88,2.67A2.24,2.24,0,0,0,549,435l50-26.34a2.69,2.69,0,0,1,2.19,0l50,26.34a2.33,2.33,0,0,0,3.14-.94,2.23,2.23,0,0,0,.15-1.41L645,377a2.28,2.28,0,0,1,.63-2Z" transform="translate(-399.22 -189)"/><path class="cls-2" d="M769.47,326.66a1.82,1.82,0,0,0,0-2.67,1.45,1.45,0,0,0-1.1-.47l-44.84-6.58a2.28,2.28,0,0,1-1.41-.94l-20.07-40.61a1.86,1.86,0,0,0-3.29,0L678.69,316a1.82,1.82,0,0,1-1.41.94l-44.85,6.58c-.15,0-.47.16-.62.16l52.84,7.68a2.33,2.33,0,0,1,1.88,2.67,1.94,1.94,0,0,1-.63,1.25l-22.73,22.27.78.78a1.59,1.59,0,0,1,.47,1.57l-7.68,44.68a2,2,0,0,0,1.56,2.2,2.27,2.27,0,0,0,1.1-.16l40.14-21.17a1.7,1.7,0,0,1,1.72,0l40.14,21.17a1.83,1.83,0,0,0,2.51-.78,1.4,1.4,0,0,0,.16-1.1l-7.69-44.69a1.74,1.74,0,0,1,.48-1.56Z" transform="translate(-399.22 -189)"/><path class="cls-2" d="M535.7,359.9a1.72,1.72,0,0,1,.47-1.57l.78-.78-22.73-22.27a2.27,2.27,0,0,1,0-3.29,1.94,1.94,0,0,1,1.25-.63l52.84-7.68c-.16-.16-.31-.16-.63-.16l-44.84-6.58a2.28,2.28,0,0,1-1.41-.94l-20.07-40.61a1.83,1.83,0,0,0-2.51-.78,1.89,1.89,0,0,0-.78.78L478,316a1.79,1.79,0,0,1-1.41.94l-44.84,6.58a1.89,1.89,0,0,0-1.57,2,2.3,2.3,0,0,0,.47,1.1l32.45,31.67a1.6,1.6,0,0,1,.48,1.57l-7.69,44.68a2,2,0,0,0,1.57,2.2,2.31,2.31,0,0,0,1.1-.16l40.14-21.17a1.7,1.7,0,0,1,1.72,0l40.14,21.17a1.83,1.83,0,0,0,2.51-.78,1.4,1.4,0,0,0,.15-1.1Z" transform="translate(-399.22 -189)"/><path class="cls-3" d="M796.59,303.77a1.19,1.19,0,0,0-.63-2l-28.84-4.23a1.31,1.31,0,0,1-1-.63l-12.85-26a1.1,1.1,0,0,0-1.57-.47c-.16.16-.47.32-.47.47l-12.86,26a1.06,1.06,0,0,1-.94.63l-22.73,3.29L722.27,316a1.82,1.82,0,0,0,1.42.94l44.84,6.58a1.88,1.88,0,0,1,1.56,2,2.3,2.3,0,0,1-.47,1.1L753.94,342l24.78,13a1.1,1.1,0,0,0,1.57-.47,1.23,1.23,0,0,0,.15-.79l-4.86-28.69a1.49,1.49,0,0,1,.32-1.1Z" transform="translate(-399.22 -189)"/><path class="cls-3" d="M462.79,297.65a1.3,1.3,0,0,1-.94-.62L449,271a1.08,1.08,0,0,0-1.56-.47c-.16.16-.47.31-.47.47L434.1,297a1.06,1.06,0,0,1-.94.62l-28.85,4.24a1.13,1.13,0,0,0-.94,1.41.81.81,0,0,0,.31.62l20.86,20.39a1,1,0,0,1,.31,1.09L420,354.1a1.22,1.22,0,0,0,.94,1.41,1.38,1.38,0,0,0,.78-.16L446.49,342l-15.68-15.36a1.8,1.8,0,0,1,0-2.67,1.41,1.41,0,0,1,1.09-.47l44.85-6.58a2.33,2.33,0,0,0,1.41-.94l7.52-15.21Z" transform="translate(-399.22 -189)"/><path class="cls-4" d="M690.29,331.83a6.32,6.32,0,0,0-5-4.23l-55-8-24.62-49.85h0a6,6,0,0,0-5.48-3.45h0a6.12,6.12,0,0,0-5.49,3.45L570,319.6l-55,8a6,6,0,0,0-5.17,7.06,5.39,5.39,0,0,0,1.88,3.6L551.53,377l-9.4,54.72a6.23,6.23,0,0,0,5,7.21,6.67,6.67,0,0,0,3.92-.63l49.23-25.87,49.23,25.87a6.09,6.09,0,0,0,8.31-2.66,6.89,6.89,0,0,0,.63-3.92L649.05,377l39.83-38.73A6.47,6.47,0,0,0,690.29,331.83ZM642.78,372a5.94,5.94,0,0,0-1.72,5.49L650,429.82l-47-24.77a6.32,6.32,0,0,0-5.8,0l-47,24.77,8.94-52.36a6.35,6.35,0,0,0-1.73-5.49l-38.1-37.16,52.53-7.68a6.27,6.27,0,0,0,4.7-3.45L600,276l23.52,47.66a6.27,6.27,0,0,0,4.7,3.45l52.53,7.68Z" transform="translate(-399.22 -189)"/><path class="cls-4" d="M773.7,323.68a5.8,5.8,0,0,0-4.7-3.92l-43.75-6.43-19.6-39.67a5.54,5.54,0,0,0-5.17-3.13h0a5.82,5.82,0,0,0-5.17,3.13l-19.6,39.67L632,319.76a8.85,8.85,0,0,0-1.88.63,3.92,3.92,0,0,0-1.56,5.33,4.06,4.06,0,0,0,2.82,2L680.88,335,660.5,354.88a3.79,3.79,0,0,0,0,5.49h0L653,404a5.67,5.67,0,0,0,8.31,6l39.2-20.54,39.2,20.54a5.89,5.89,0,0,0,7.84-2.35,5.75,5.75,0,0,0,.62-3.6l-7.52-43.59,31.67-30.89A6.07,6.07,0,0,0,773.7,323.68Zm-39.51,31.83a5.57,5.57,0,0,0-1.72,5L739.36,401,703,381.85a5.39,5.39,0,0,0-5.33,0L661.28,401l6.9-40.45A4.57,4.57,0,0,0,668,358l20.53-19.92a6.2,6.2,0,0,0,.16-8.78,7.31,7.31,0,0,0-3.6-1.88l-26.5-3.92,19.13-2.82a6,6,0,0,0,4.39-3.13l18.34-36.69,18.19,36.84a5.77,5.77,0,0,0,4.39,3.14l40.61,6Z" transform="translate(-399.22 -189)"/><path class="cls-4" d="M570.19,320.39a8.66,8.66,0,0,0-1.88-.63l-43.74-6.43L505,273.66a5.78,5.78,0,0,0-7.69-2.66,6.32,6.32,0,0,0-2.66,2.66L475,313.33l-43.74,6.43a5.82,5.82,0,0,0-4.86,6.59,5.6,5.6,0,0,0,1.72,3.29l31.67,30.89-7.52,43.58a5.71,5.71,0,0,0,4.7,6.59,5.79,5.79,0,0,0,3.61-.63l39.19-20.54L539,410.07a5.89,5.89,0,0,0,7.84-2.35,5.77,5.77,0,0,0,.63-3.61l-7.53-43.58a3.79,3.79,0,0,0,0-5.49h0l-20.38-19.91,49.54-7.22a3.87,3.87,0,0,0,3.3-4.39,4.07,4.07,0,0,0-2.2-3.13Zm-30.57,38.88ZM515,327.6a6,6,0,0,0-5.17,7.06,5.39,5.39,0,0,0,1.88,3.6l20.54,19.91a6.68,6.68,0,0,0-.16,2.51l6.9,40.45L502.62,382a5.41,5.41,0,0,0-5.34,0l-36.37,19.13,6.9-40.45a5.48,5.48,0,0,0-1.73-5L436.61,327l40.61-6a6,6,0,0,0,4.39-3.13l18.18-37L518,317.72a5.77,5.77,0,0,0,4.39,3.14l19.13,2.82Z" transform="translate(-399.22 -189)"/><path class="cls-4" d="M800.51,301.42a5.09,5.09,0,0,0-4.08-3.45L769,294.05l-12.23-24.78a5.07,5.07,0,0,0-4.55-2.82h0a5.07,5.07,0,0,0-4.55,2.82l-12.23,24.78-21.32,3.13a3.87,3.87,0,0,0-3.29,4.39,2.34,2.34,0,0,0,.31,1.1l7.53,15.21a5.76,5.76,0,0,0,4.39,3.13l40.61,6L751,339.36a3.79,3.79,0,0,0,0,5.49c.31.31.62.47.94.78l24.77,13a5.14,5.14,0,0,0,6.9-2.19,5.92,5.92,0,0,0,.47-3.29l-4.71-27.28,19.76-19.29h0A4.68,4.68,0,0,0,800.51,301.42Zm-40.14,39.66,11.76-11.44,3.29,19.44Zm12.55-19.75c-.16.16-.32.31-.32.47a6.38,6.38,0,0,0-3.6-2l-43.75-6.43-4.54-9.41,17.4-2.5a4.76,4.76,0,0,0,3.76-2.83l10.35-21.16,10.5,21.16a5.32,5.32,0,0,0,3.77,2.83l23.36,3.45Z" transform="translate(-399.22 -189)"/><path class="cls-4" d="M489,299.06a4,4,0,0,0-3-2l-21.33-3.14-12.23-24.77a5.15,5.15,0,0,0-6.9-2.35,4.88,4.88,0,0,0-2.35,2.35L431,293.89l-27.43,3.92a5,5,0,0,0-4.24,5.8,5.33,5.33,0,0,0,1.41,3l19.76,19.29-4.7,27.28a5.24,5.24,0,0,0,4.07,5.95,6,6,0,0,0,3.29-.47l24.78-13a3.88,3.88,0,0,0,1.56-5.33,4,4,0,0,0-.78-.94L436,327l40.61-6a6,6,0,0,0,4.39-3.13l7.52-15.21A2.89,2.89,0,0,0,489,299.06Zm-49.07,42-15.21,8L428,329.64ZM475,313.33l-43.74,6.43a5.66,5.66,0,0,0-3.61,2c-.16-.16-.16-.31-.31-.47l-16.94-16.46,23.37-3.45a4.77,4.77,0,0,0,3.76-2.83l10.35-21.16,10.34,21.16a5.32,5.32,0,0,0,3.77,2.83l17.4,2.5Z" transform="translate(-399.22 -189)"/><path class="cls-4" d="M600.14,189a3.88,3.88,0,0,0-3.92,3.92v23.36a3.92,3.92,0,1,0,7.84,0V192.92A3.88,3.88,0,0,0,600.14,189Z" transform="translate(-399.22 -189)"/><path class="cls-4" d="M646.7,194a3.91,3.91,0,0,0-4.7,3h0l-5.33,22.73a3.88,3.88,0,1,0,7.52,1.88h0l5.33-22.73A3.74,3.74,0,0,0,646.7,194Z" transform="translate(-399.22 -189)"/><path class="cls-4" d="M689.82,208.44a3.92,3.92,0,0,0-5.33,1.57h0l-11.13,20.54a3.92,3.92,0,1,0,6.89,3.76l11.14-20.54A4,4,0,0,0,689.82,208.44Z" transform="translate(-399.22 -189)"/><path class="cls-4" d="M726.19,239.33a3.86,3.86,0,0,0-5.48-1.1l-19.45,12.86a4,4,0,0,0,4.24,6.74h.15L725.1,245A4.38,4.38,0,0,0,726.19,239.33Z" transform="translate(-399.22 -189)"/><path class="cls-4" d="M563.61,219.57l-5.34-22.73a3.81,3.81,0,0,0-4.7-2.82,3.94,3.94,0,0,0-2.82,4.7l5.17,22.58a4,4,0,0,0,4.71,3,3.86,3.86,0,0,0,3-4.71Z" transform="translate(-399.22 -189)"/><path class="cls-4" d="M526.92,230.39l-11.13-20.54a3.93,3.93,0,1,0-6.9,3.77L520,234.15a3.91,3.91,0,0,0,5.33,1.57A4,4,0,0,0,526.92,230.39Z" transform="translate(-399.22 -189)"/><path class="cls-4" d="M499,251.09l-19.44-12.86a4,4,0,0,0-4.39,6.59l19.44,12.85a4,4,0,1,0,4.39-6.58Z" transform="translate(-399.22 -189)"/></svg>