<?xml version="1.0" encoding="utf-8"?>
<!-- Generator: Adobe Illustrator 23.0.0, SVG Export Plug-In . SVG Version: 6.00 Build 0)  -->
<svg version="1.1" id="Layer_1" xmlns="http://www.w3.org/2000/svg" xmlns:xlink="http://www.w3.org/1999/xlink" x="0px" y="0px"
	 viewBox="0 0 1000 1000" style="enable-background:new 0 0 1000 1000;" xml:space="preserve">
<style type="text/css">
	.st0{fill:#FAFAFA;}
	.st1{fill:#AAAAAA;}
</style>
<rect class="st0" width="1000" height="1000"/>
<g>
	<path class="st1" d="M591.3,425H408.7c-1.8,0-3.3,1.5-3.3,3.3v143.5c0,1.8,1.5,3.3,3.3,3.3h182.6c1.8,0,3.3-1.5,3.3-3.3V428.3
		C594.6,426.5,593.1,425,591.3,425z M588,568.5H412v-137H588V568.5z"/>
	<path class="st1" d="M457.6,497.2c10,0,18.2-8.1,18.2-18.2c0-10-8.1-18.2-18.2-18.2s-18.2,8.1-18.2,18.2S447.6,497.2,457.6,497.2z
		 M457.6,467.4c6.4,0,11.6,5.2,11.6,11.6c0,6.4-5.2,11.6-11.6,11.6S446,485.4,446,479C446,472.6,451.2,467.4,457.6,467.4z"/>
	<path class="st1" d="M428.3,555.4c0.8,0,1.5-0.3,2.2-0.8l53.2-46.8l33.6,33.6c1.3,1.3,3.3,1.3,4.6,0c1.3-1.3,1.3-3.3,0-4.6
		l-15.7-15.7l29.9-32.8l36.7,33.7c1.3,1.2,3.4,1.1,4.6-0.2c1.2-1.3,1.1-3.4-0.2-4.6l-39.1-35.9c-0.6-0.6-1.5-0.9-2.3-0.9
		c-0.9,0-1.7,0.4-2.3,1.1l-31.9,35L486.1,501c-1.2-1.2-3.2-1.3-4.5-0.1l-55.5,48.9c-1.4,1.2-1.5,3.3-0.3,4.6
		C426.5,555.1,427.4,555.4,428.3,555.4z"/>
</g>
</svg>
