<?xml version="1.0" encoding="utf-8"?>
<!-- Generator: Adobe Illustrator 23.0.0, SVG Export Plug-In . SVG Version: 6.00 Build 0)  -->
<svg version="1.1" id="Layer_1" xmlns="http://www.w3.org/2000/svg" xmlns:xlink="http://www.w3.org/1999/xlink" x="0px" y="0px"
	 viewBox="0 0 1600 934" style="enable-background:new 0 0 1600 934;" xml:space="preserve">
<style type="text/css">
	.st0{fill:#FAFAFA;}
	.st1{fill:#AAAAAA;}
</style>
<rect x="0" class="st0" width="1600" height="934"/>
<g>
	<path class="st1" d="M725,526.2c0,8.7,7.1,15.8,15.8,15.8h118.4c8.7,0,15.8-7.1,15.8-15.8V407.8c0-8.7-7.1-15.8-15.8-15.8H740.8
		c-8.7,0-15.8,7.1-15.8,15.8V526.2z M859.2,534.5H740.8c-4.6,0-8.3-3.7-8.3-8.3v-19.8L761,478l24.3,24.3c1.5,1.5,3.8,1.5,5.3,0
		l43.9-43.9l33,33v34.8C867.5,530.8,863.8,534.5,859.2,534.5z M740.8,399.5h118.4c4.6,0,8.3,3.7,8.3,8.3v73l-30.4-30.4
		c-1.5-1.5-3.8-1.5-5.3,0l-43.9,43.9L763.6,470c-1.5-1.5-3.8-1.5-5.3,0l-25.8,25.8v-88C732.5,403.2,736.2,399.5,740.8,399.5z"/>
	<path class="st1" d="M771.5,452.1c10.5,0,19.1-8.6,19.1-19.1s-8.6-19.1-19.1-19.1s-19.1,8.6-19.1,19.1S761,452.1,771.5,452.1z
		 M771.5,421.4c6.4,0,11.6,5.2,11.6,11.6s-5.2,11.6-11.6,11.6c-6.4,0-11.6-5.2-11.6-11.6S765.1,421.4,771.5,421.4z"/>
</g>
</svg>
