<?xml version="1.0" encoding="utf-8"?>
<!-- Generator: Adobe Illustrator 23.0.0, SVG Export Plug-In . SVG Version: 6.00 Build 0)  -->
<svg version="1.1" id="Layer_1" xmlns="http://www.w3.org/2000/svg" xmlns:xlink="http://www.w3.org/1999/xlink" x="0px" y="0px"
	 viewBox="0 0 1000 1000" style="enable-background:new 0 0 1000 1000;" xml:space="preserve">
<style type="text/css">
	.st0{fill:#FAFAFA;}
	.st1{fill:#AAAAAA;}
</style>
<rect class="st0" width="1000" height="1000"/>
<g>
	<g>
		<path class="st1" d="M425,559.2c0,8.7,7.1,15.8,15.8,15.8h118.4c8.7,0,15.8-7.1,15.8-15.8V440.8c0-8.7-7.1-15.8-15.8-15.8H440.8
			c-8.7,0-15.8,7.1-15.8,15.8V559.2z M559.2,567.5H440.8c-4.6,0-8.3-3.7-8.3-8.3v-19.8L461,511l24.3,24.3c1.5,1.5,3.8,1.5,5.3,0
			l43.9-43.9l33,33v34.8C567.5,563.8,563.8,567.5,559.2,567.5z M440.8,432.5h118.4c4.6,0,8.3,3.7,8.3,8.3v73l-30.4-30.4
			c-1.5-1.5-3.8-1.5-5.3,0l-43.9,43.9L463.6,503c-1.5-1.5-3.8-1.5-5.3,0l-25.8,25.8v-88C432.5,436.2,436.2,432.5,440.8,432.5z"/>
		<path class="st1" d="M471.5,485.1c10.5,0,19.1-8.6,19.1-19.1s-8.6-19.1-19.1-19.1s-19.1,8.6-19.1,19.1S461,485.1,471.5,485.1z
			 M471.5,454.4c6.4,0,11.6,5.2,11.6,11.6s-5.2,11.6-11.6,11.6s-11.6-5.2-11.6-11.6S465.1,454.4,471.5,454.4z"/>
	</g>
</g>
</svg>
