<?xml version="1.0" encoding="utf-8"?>
<!-- Generator: Adobe Illustrator 23.0.0, SVG Export Plug-In . SVG Version: 6.00 Build 0)  -->
<svg version="1.1" id="Layer_1" xmlns="http://www.w3.org/2000/svg" xmlns:xlink="http://www.w3.org/1999/xlink" x="0px" y="0px"
	 viewBox="0 0 336 200" style="enable-background:new 0 0 336 200;" xml:space="preserve">
<style type="text/css">
	.st0{fill:#FAFAFA;}
	.st1{fill:#AAAAAA;}
</style>
<rect class="st0" width="336" height="200"/>
<g>
	<path class="st1" d="M143,119.73c0,2.9,2.37,5.27,5.27,5.27h39.47c2.9,0,5.27-2.37,5.27-5.27V80.27c0-2.9-2.37-5.27-5.27-5.27
		h-39.47c-2.9,0-5.27,2.37-5.27,5.27V119.73z M187.73,122.5h-39.47c-1.53,0-2.77-1.23-2.77-2.77v-6.6l9.5-9.47l8.1,8.1
		c0.5,0.5,1.27,0.5,1.77,0l14.63-14.63l11,11v11.6C190.5,121.27,189.27,122.5,187.73,122.5z M148.27,77.5h39.47
		c1.53,0,2.77,1.23,2.77,2.77v24.33l-10.13-10.13c-0.5-0.5-1.27-0.5-1.77,0l-14.63,14.63l-8.1-8.1c-0.5-0.5-1.27-0.5-1.77,0
		l-8.6,8.6V80.27C145.5,78.73,146.73,77.5,148.27,77.5z"/>
	<path class="st1" d="M158.5,95.03c3.5,0,6.37-2.87,6.37-6.37S162,82.3,158.5,82.3s-6.37,2.87-6.37,6.37S155,95.03,158.5,95.03z
		 M158.5,84.8c2.13,0,3.87,1.73,3.87,3.87s-1.73,3.87-3.87,3.87c-2.13,0-3.87-1.73-3.87-3.87S156.37,84.8,158.5,84.8z"/>
</g>
</svg>
