<?xml version="1.0" encoding="utf-8"?>
<!-- Generator: Adobe Illustrator 23.0.0, SVG Export Plug-In . SVG Version: 6.00 Build 0)  -->
<svg version="1.1" id="Layer_1" xmlns="http://www.w3.org/2000/svg" xmlns:xlink="http://www.w3.org/1999/xlink" x="0px" y="0px"
	 viewBox="0 0 165 30" style="enable-background:new 0 0 165 30;" xml:space="preserve">
<style type="text/css">
	.st0{fill:#333333;}
</style>
<g>
	<path class="st0" d="M9.4,7.6v2.3H6.2v9.7H3.2V9.9H0V7.6H9.4z"/>
	<path class="st0" d="M10.8,6.3c0.3-0.3,0.7-0.4,1.3-0.4c0.5,0,0.9,0.1,1.3,0.4c0.3,0.3,0.5,0.7,0.5,1.1c0,0.4-0.2,0.8-0.5,1.1
		c-0.3,0.3-0.7,0.4-1.3,0.4c-0.5,0-0.9-0.1-1.3-0.4c-0.3-0.3-0.5-0.6-0.5-1.1C10.4,7,10.5,6.6,10.8,6.3z M13.5,10.1v9.5h-2.9v-9.5
		H13.5z"/>
	<path class="st0" d="M23.6,10.6c0.6,0.4,1.1,1,1.5,1.7c0.4,0.7,0.5,1.6,0.5,2.6c0,1-0.2,1.8-0.5,2.6c-0.4,0.7-0.8,1.3-1.5,1.7
		c-0.6,0.4-1.3,0.6-2.1,0.6c-0.7,0-1.3-0.2-1.9-0.5c-0.5-0.3-0.9-0.8-1.1-1.3v6.2h-2.9v-14h2.9v1.7c0.2-0.6,0.6-1,1.1-1.3
		c0.5-0.3,1.1-0.5,1.9-0.5C22.3,10,23,10.2,23.6,10.6z M19,13.1c-0.4,0.4-0.6,1-0.6,1.7c0,0.7,0.2,1.3,0.6,1.7
		c0.4,0.4,0.9,0.6,1.5,0.6c0.6,0,1.1-0.2,1.5-0.6c0.4-0.4,0.6-1,0.6-1.7c0-0.7-0.2-1.3-0.6-1.7c-0.4-0.4-0.9-0.6-1.5-0.6
		C19.9,12.5,19.4,12.7,19,13.1z"/>
	<path class="st0" d="M33.4,10.9c0.7,0.6,1.2,1.4,1.4,2.4H32c-0.1-0.4-0.3-0.7-0.5-0.9c-0.3-0.2-0.6-0.3-1-0.3
		c-0.3,0-0.6,0.1-0.7,0.2c-0.2,0.1-0.3,0.3-0.3,0.6c0,0.3,0.2,0.5,0.5,0.7c0.3,0.1,0.8,0.3,1.5,0.4c0.7,0.2,1.3,0.3,1.8,0.5
		c0.5,0.2,0.9,0.5,1.2,0.9c0.3,0.4,0.5,0.9,0.5,1.6c0,0.5-0.1,1-0.4,1.4c-0.3,0.4-0.7,0.7-1.3,1c-0.6,0.2-1.2,0.4-2,0.4
		c-1.3,0-2.3-0.3-3.1-0.8c-0.8-0.6-1.2-1.4-1.4-2.4h2.8c0,0.4,0.2,0.7,0.5,0.9c0.3,0.2,0.7,0.3,1.2,0.3c0.3,0,0.6-0.1,0.7-0.2
		c0.2-0.2,0.3-0.4,0.3-0.6c0-0.3-0.2-0.6-0.5-0.7c-0.3-0.1-0.8-0.3-1.5-0.5c-0.7-0.1-1.3-0.3-1.7-0.5c-0.5-0.2-0.8-0.4-1.2-0.8
		c-0.3-0.4-0.5-0.9-0.5-1.6c0-0.8,0.3-1.5,1-2.1c0.6-0.5,1.6-0.8,2.7-0.8C31.7,10,32.7,10.3,33.4,10.9z"/>
	<path class="st0" d="M50,16.7c-0.5,0.9-1.2,1.6-2.2,2.1c-0.9,0.5-2.1,0.8-3.3,0.8h-4.5v-12h4.5c1.3,0,2.4,0.2,3.3,0.7
		c0.9,0.5,1.7,1.2,2.2,2.1c0.5,0.9,0.8,1.9,0.8,3.1C50.7,14.7,50.5,15.8,50,16.7z M46.8,16.1c0.6-0.6,0.9-1.4,0.9-2.5
		c0-1.1-0.3-1.9-0.9-2.5c-0.6-0.6-1.5-0.9-2.6-0.9h-1.4V17h1.4C45.3,17,46.2,16.7,46.8,16.1z"/>
	<path class="st0" d="M61.3,15.4h-6.6c0,0.7,0.2,1.2,0.5,1.5c0.3,0.3,0.7,0.5,1.3,0.5c0.4,0,0.8-0.1,1.1-0.3
		c0.3-0.2,0.5-0.5,0.6-0.8h3.1c-0.1,0.7-0.4,1.3-0.8,1.8c-0.4,0.5-1,0.9-1.6,1.2c-0.6,0.3-1.4,0.5-2.2,0.5c-0.9,0-1.8-0.2-2.5-0.6
		c-0.7-0.4-1.3-1-1.7-1.7c-0.4-0.7-0.6-1.6-0.6-2.6c0-1,0.2-1.9,0.6-2.6c0.4-0.7,1-1.3,1.7-1.7c0.7-0.4,1.6-0.6,2.5-0.6
		c0.9,0,1.8,0.2,2.5,0.6c0.7,0.4,1.3,0.9,1.7,1.6c0.4,0.7,0.6,1.5,0.6,2.4C61.4,14.8,61.4,15.1,61.3,15.4z M57.9,12.7
		c-0.3-0.3-0.8-0.5-1.3-0.5c-0.5,0-1,0.2-1.3,0.5c-0.4,0.3-0.6,0.8-0.6,1.4h3.7C58.5,13.5,58.3,13.1,57.9,12.7z"/>
	<path class="st0" d="M69.2,10.9c0.7,0.6,1.2,1.4,1.4,2.4h-2.7c-0.1-0.4-0.3-0.7-0.5-0.9c-0.3-0.2-0.6-0.3-1-0.3
		c-0.3,0-0.6,0.1-0.7,0.2c-0.2,0.1-0.3,0.3-0.3,0.6c0,0.3,0.2,0.5,0.5,0.7c0.3,0.1,0.8,0.3,1.5,0.4c0.7,0.2,1.3,0.3,1.8,0.5
		c0.5,0.2,0.9,0.5,1.2,0.9c0.3,0.4,0.5,0.9,0.5,1.6c0,0.5-0.1,1-0.4,1.4c-0.3,0.4-0.7,0.7-1.3,1c-0.6,0.2-1.2,0.4-2,0.4
		c-1.3,0-2.3-0.3-3.1-0.8c-0.8-0.6-1.2-1.4-1.4-2.4h2.8c0,0.4,0.2,0.7,0.5,0.9c0.3,0.2,0.7,0.3,1.2,0.3c0.3,0,0.6-0.1,0.7-0.2
		c0.2-0.2,0.3-0.4,0.3-0.6c0-0.3-0.2-0.6-0.5-0.7c-0.3-0.1-0.8-0.3-1.5-0.5c-0.7-0.1-1.3-0.3-1.7-0.5c-0.5-0.2-0.8-0.4-1.2-0.8
		c-0.3-0.4-0.5-0.9-0.5-1.6c0-0.8,0.3-1.5,1-2.1c0.6-0.5,1.6-0.8,2.7-0.8C67.6,10,68.5,10.3,69.2,10.9z"/>
	<path class="st0" d="M77.8,10.5c0.5,0.3,0.9,0.8,1.2,1.3v-1.7h2.9v9.5H79v-1.7c-0.2,0.6-0.6,1-1.2,1.3c-0.5,0.3-1.1,0.5-1.9,0.5
		c-0.8,0-1.5-0.2-2.1-0.6c-0.6-0.4-1.1-1-1.5-1.7c-0.4-0.7-0.5-1.6-0.5-2.6c0-1,0.2-1.9,0.5-2.6c0.4-0.7,0.8-1.3,1.5-1.7
		c0.6-0.4,1.3-0.6,2.1-0.6C76.7,10,77.3,10.1,77.8,10.5z M75.4,13.1c-0.4,0.4-0.6,1-0.6,1.7c0,0.7,0.2,1.3,0.6,1.7
		c0.4,0.4,0.9,0.6,1.5,0.6c0.6,0,1.1-0.2,1.5-0.6c0.4-0.4,0.6-1,0.6-1.7c0-0.7-0.2-1.3-0.6-1.7c-0.4-0.4-0.9-0.6-1.5-0.6
		C76.2,12.5,75.7,12.7,75.4,13.1z"/>
	<path class="st0" d="M84.1,6.3c0.3-0.3,0.7-0.4,1.3-0.4c0.5,0,0.9,0.1,1.3,0.4c0.3,0.3,0.5,0.7,0.5,1.1c0,0.4-0.2,0.8-0.5,1.1
		c-0.3,0.3-0.7,0.4-1.3,0.4c-0.5,0-0.9-0.1-1.3-0.4c-0.3-0.3-0.5-0.6-0.5-1.1C83.6,7,83.7,6.6,84.1,6.3z M86.8,10.1v9.5h-2.9v-9.5
		H86.8z"/>
	<path class="st0" d="M97.4,11.1c0.6,0.7,1,1.7,1,3v5.5h-2.9v-5.2c0-0.6-0.2-1.1-0.5-1.5c-0.3-0.4-0.8-0.5-1.3-0.5
		c-0.6,0-1.1,0.2-1.4,0.6c-0.3,0.4-0.5,0.9-0.5,1.6v5h-2.9v-9.5h2.9v1.7c0.3-0.6,0.7-1,1.2-1.3s1.2-0.5,1.9-0.5
		C95.9,10,96.7,10.4,97.4,11.1z"/>
	<path class="st0" d="M109.8,19.6l-2.6-4.5h-0.7v4.5h-2.9v-12h5c1,0,1.8,0.2,2.4,0.5c0.7,0.3,1.2,0.8,1.5,1.4c0.3,0.6,0.5,1.2,0.5,2
		c0,0.9-0.2,1.6-0.7,2.2c-0.5,0.6-1.2,1-2.1,1.3l2.9,4.7H109.8z M106.6,13.1h1.8c0.6,0,1-0.1,1.3-0.4c0.3-0.3,0.4-0.6,0.4-1.1
		c0-0.5-0.1-0.8-0.4-1.1c-0.3-0.3-0.7-0.4-1.3-0.4h-1.8V13.1z"/>
	<path class="st0" d="M123.9,10.1v9.5H121v-1.7c-0.3,0.6-0.7,1-1.2,1.3s-1.2,0.5-1.9,0.5c-1.1,0-2-0.4-2.6-1.1c-0.6-0.7-1-1.7-1-3
		v-5.5h2.9v5.2c0,0.6,0.2,1.1,0.5,1.5c0.3,0.4,0.8,0.5,1.4,0.5c0.6,0,1.1-0.2,1.4-0.6c0.3-0.4,0.5-0.9,0.5-1.6v-5H123.9z"/>
	<path class="st0" d="M141,11.1c0.7,0.7,1,1.7,1,3v5.5h-2.9v-5.2c0-0.6-0.2-1.1-0.5-1.4c-0.3-0.3-0.8-0.5-1.3-0.5
		c-0.6,0-1,0.2-1.4,0.5c-0.3,0.4-0.5,0.9-0.5,1.5v5h-2.9v-5.2c0-0.6-0.2-1.1-0.5-1.4c-0.3-0.3-0.8-0.5-1.3-0.5c-0.6,0-1,0.2-1.4,0.5
		c-0.3,0.4-0.5,0.9-0.5,1.5v5h-2.9v-9.5h2.9v1.6c0.2-0.5,0.6-1,1.1-1.3c0.5-0.3,1.1-0.5,1.8-0.5c0.7,0,1.4,0.2,1.9,0.5
		c0.6,0.3,1,0.8,1.3,1.4c0.3-0.6,0.8-1.1,1.4-1.4c0.6-0.4,1.2-0.5,1.9-0.5C139.4,10,140.3,10.4,141,11.1z"/>
	<path class="st0" d="M149.4,10.5c0.5,0.3,0.9,0.8,1.2,1.3v-1.7h2.9v9.5h-2.9v-1.7c-0.3,0.6-0.6,1-1.2,1.3c-0.5,0.3-1.1,0.5-1.9,0.5
		c-0.8,0-1.5-0.2-2.1-0.6c-0.6-0.4-1.1-1-1.5-1.7c-0.4-0.7-0.5-1.6-0.5-2.6c0-1,0.2-1.9,0.5-2.6c0.4-0.7,0.8-1.3,1.5-1.7
		c0.6-0.4,1.3-0.6,2.1-0.6C148.2,10,148.9,10.1,149.4,10.5z M146.9,13.1c-0.4,0.4-0.6,1-0.6,1.7c0,0.7,0.2,1.3,0.6,1.7
		c0.4,0.4,0.9,0.6,1.5,0.6c0.6,0,1.1-0.2,1.5-0.6c0.4-0.4,0.6-1,0.6-1.7c0-0.7-0.2-1.3-0.6-1.7c-0.4-0.4-0.9-0.6-1.5-0.6
		C147.8,12.5,147.3,12.7,146.9,13.1z"/>
	<path class="st0" d="M164,11.1c0.6,0.7,1,1.7,1,3v5.5h-2.9v-5.2c0-0.6-0.2-1.1-0.5-1.5c-0.3-0.4-0.8-0.5-1.3-0.5
		c-0.6,0-1.1,0.2-1.4,0.6c-0.3,0.4-0.5,0.9-0.5,1.6v5h-2.9V7h2.9v4.8c0.3-0.6,0.7-1,1.2-1.3c0.5-0.3,1.2-0.5,1.9-0.5
		C162.5,10,163.4,10.4,164,11.1z"/>
</g>
</svg>
