<?xml version="1.0" encoding="utf-8"?>
<!-- Generator: Adobe Illustrator 23.0.0, SVG Export Plug-In . SVG Version: 6.00 Build 0)  -->
<svg version="1.1" id="Layer_1" xmlns="http://www.w3.org/2000/svg" xmlns:xlink="http://www.w3.org/1999/xlink" x="0px" y="0px"
	 viewBox="0 0 220 50" style="enable-background:new 0 0 220 50;" xml:space="preserve">
<style type="text/css">
	.st0{fill:#147BD1;}
</style>
<g>
	<path class="st0" d="M0,30.3h2.3C2.4,31.5,3,32.5,4,33.3c1,0.8,2.4,1.2,4.2,1.2c1.7,0,3-0.4,4-1.2c1-0.8,1.5-1.8,1.5-3.1
		c0-1-0.3-1.9-1-2.5c-0.7-0.6-1.7-1.1-3.1-1.5l-3.7-1c-0.6-0.2-1.1-0.3-1.6-0.5c-0.5-0.2-1-0.5-1.4-0.8c-0.4-0.3-0.8-0.7-1.1-1.1
		C1.4,22.4,1.2,22,1,21.4s-0.3-1.2-0.3-1.8c0-1,0.2-1.9,0.6-2.7c0.4-0.8,1-1.5,1.7-2s1.5-0.9,2.4-1.2c0.9-0.3,1.9-0.4,2.9-0.4
		c1,0,1.9,0.1,2.8,0.4c0.9,0.3,1.7,0.6,2.4,1.1c0.7,0.5,1.3,1.1,1.7,1.9c0.4,0.8,0.6,1.7,0.7,2.7h-2.3c-0.1-1.2-0.6-2.1-1.5-2.9
		c-0.9-0.8-2.1-1.2-3.8-1.2c-1.5,0-2.8,0.4-3.7,1.1c-0.9,0.7-1.4,1.7-1.4,3c0,1.8,1.1,3.1,3.4,3.7l3.7,1c1.9,0.5,3.4,1.2,4.4,2.2
		c1,0.9,1.5,2.2,1.5,3.9c0,1.4-0.4,2.6-1.1,3.6c-0.7,1-1.7,1.7-2.9,2.2c-1.2,0.5-2.6,0.7-4.1,0.7c-1.1,0-2.1-0.1-3-0.4
		c-0.9-0.3-1.7-0.6-2.2-1c-0.6-0.4-1.1-0.9-1.5-1.5c-0.4-0.6-0.7-1.1-0.9-1.7C0.1,31.5,0,30.9,0,30.3z"/>
	<path class="st0" d="M27.4,36.2h-2.3V15.9h-7v-2.1h16.2v2.1h-7V36.2z"/>
	<path class="st0" d="M36.2,36.2h-2.4l8-22.4h2.3l8,22.4h-2.4l-2.4-7.1h-8.7L36.2,36.2z M43,16.6L43,16.6l-3.7,10.6h7.4L43,16.6z"/>
	<path class="st0" d="M60.9,36.2h-2.3v-9.9l-7.6-12.5h2.6l6,10.3h0.1l6-10.3h2.6l-7.6,12.5V36.2z"/>
	<path d="M73,36.2h-1.1V13.9h1.2l8.5,19.2h0.1l8.6-19.2h1.1v22.3h-1.1V16.5h-0.1l-8,18H81l-8-18H73V36.2z"/>
	<path d="M96.8,36.2h-1.2l8-22.3h1.2l8,22.3h-1.2l-2.7-7.6h-9.4L96.8,36.2z M104.2,15.3L104.2,15.3l-4.4,12.3h8.7L104.2,15.3z"/>
	<path d="M131.9,19.7h-1.1c0-0.5-0.2-0.9-0.3-1.4c-0.2-0.5-0.4-0.9-0.8-1.4c-0.4-0.5-0.8-0.9-1.3-1.2c-0.5-0.4-1.1-0.7-1.8-0.9
		c-0.7-0.2-1.5-0.3-2.3-0.3c-2.3,0-4,0.8-5.3,2.3c-1.2,1.5-1.9,3.6-1.9,6.2v3.9c0,1.7,0.3,3.3,0.8,4.6c0.5,1.3,1.3,2.3,2.4,3.1
		s2.5,1.2,4.1,1.2c1.9,0,3.5-0.5,4.8-1.6s1.8-2.5,1.8-4.3v-3.2h-6.8v-1.1h7.9v4.2c0,1.5-0.3,2.7-1,3.8c-0.7,1.1-1.6,1.9-2.8,2.4
		c-1.2,0.5-2.5,0.8-4,0.8c-1.4,0-2.7-0.2-3.8-0.7c-1.1-0.5-2-1.2-2.6-2.1c-0.7-0.9-1.2-1.9-1.5-3.1s-0.5-2.5-0.5-3.9V23
		c0-2.9,0.7-5.3,2.2-7c1.4-1.7,3.5-2.6,6.1-2.6c1.2,0,2.3,0.2,3.3,0.6s1.8,0.9,2.4,1.5c0.6,0.6,1.1,1.3,1.4,2
		C131.7,18.1,131.9,18.9,131.9,19.7z"/>
	<path d="M136,36.2v-1L150.2,15v-0.1h-13.8v-1.1h15.2v1l-14.2,20.2v0.1h14.2v1H136z"/>
</g>
</svg>
