<?xml version="1.0" encoding="utf-8"?>
<!-- Generator: Adobe Illustrator 23.0.0, SVG Export Plug-In . SVG Version: 6.00 Build 0)  -->
<svg version="1.1" id="Layer_1" xmlns="http://www.w3.org/2000/svg" xmlns:xlink="http://www.w3.org/1999/xlink" x="0px" y="0px"
	 viewBox="0 0 200 70" style="enable-background:new 0 0 200 70;" xml:space="preserve">
<style type="text/css">
	.st0{fill:#F97878;}
	.st1{fill:#FF5A5F;}
</style>
<g>
	<g id="XMLID_1_">
		<polyline id="XMLID_18_" class="st0" points="10.36,42.08 20.72,35.62 20.72,31.81 10.36,38.19 		"/>
		<polyline id="XMLID_21_" class="st1" points="10.36,42.08 0,35.62 3.28,33.85 10.36,38.19 		"/>
		<polyline id="XMLID_6_" class="st1" points="0,35.62 6.91,31.81 6.91,31.81 10.36,34.38 13.02,32.43 6.91,27.92 0,31.81 		"/>
		<polyline id="XMLID_9_" class="st0" points="17.53,33.85 13.81,31.81 12.93,32.43 10.36,30.48 13.81,27.92 20.72,31.81 		"/>
	</g>
	<g>
		<path d="M43.87,28.23v13.72h-3.34v-8.58l-2.97,8.58h-2.89l-2.99-8.6v8.6h-3.34V28.23h4.08l3.73,9.56l3.65-9.56H43.87z"/>
		<path d="M54.74,39.43h-5.18l-0.86,2.52h-3.52l5.06-13.72h3.85l5.06,13.72H55.6L54.74,39.43z M53.88,36.89l-1.72-5.08l-1.74,5.08
			H53.88z"/>
		<path d="M72.39,28.13v13.82h-3.36v-5.77h-5.24v5.77h-3.34V28.13h3.34v5.35h5.24v-5.35H72.39z"/>
		<path d="M83.25,39.43h-5.18l-0.86,2.52H73.7l5.06-13.72h3.85l5.06,13.72h-3.56L83.25,39.43z M82.39,36.89l-1.72-5.08l-1.74,5.08
			H82.39z"/>
		<path d="M102.8,28.13v2.66h-3.75v11.16h-3.36V30.79h-3.71v-2.66H102.8z"/>
		<path d="M107.54,30.79v2.89h4.67v2.52h-4.67v3.07h5.26v2.68h-8.6V28.13h8.6v2.66H107.54z"/>
		<path d="M130.23,28.23v13.72h-3.34v-8.58l-2.97,8.58h-2.89l-2.99-8.6v8.6h-3.34V28.23h4.08l3.73,9.56l3.65-9.56H130.23z"/>
		<path d="M135.88,37.1v4.85h-3.34V28.13h5.41c1.64,0,2.89,0.41,3.75,1.22c0.86,0.81,1.29,1.91,1.29,3.29c0,0.86-0.19,1.63-0.58,2.3
			c-0.38,0.67-0.96,1.2-1.71,1.58c-0.76,0.38-1.67,0.58-2.75,0.58H135.88z M139.59,32.65c0-1.21-0.67-1.82-2.01-1.82h-1.7v3.6h1.7
			C138.92,34.42,139.59,33.83,139.59,32.65z"/>
		<path d="M147.98,39.39h4.46v2.56h-7.8V28.13h3.34V39.39z"/>
		<path d="M162.54,39.43h-5.18l-0.86,2.52h-3.52l5.06-13.72h3.85l5.06,13.72h-3.56L162.54,39.43z M161.68,36.89l-1.72-5.08
			l-1.74,5.08H161.68z"/>
		<path d="M178.17,28.13v2.66h-3.75v11.16h-3.36V30.79h-3.71v-2.66H178.17z"/>
		<path d="M182.92,30.79v2.89h4.67v2.52h-4.67v3.07h5.26v2.68h-8.6V28.13h8.6v2.66H182.92z"/>
		<path d="M199.44,40.07c-0.37,0.61-0.92,1.1-1.64,1.47c-0.72,0.36-1.6,0.55-2.63,0.55c-1.55,0-2.83-0.38-3.83-1.13
			c-1-0.76-1.55-1.81-1.64-3.17h3.56c0.05,0.52,0.24,0.93,0.56,1.23c0.32,0.3,0.73,0.45,1.22,0.45c0.43,0,0.77-0.12,1.02-0.35
			c0.25-0.23,0.37-0.55,0.37-0.94c0-0.35-0.11-0.64-0.34-0.88c-0.23-0.23-0.51-0.43-0.85-0.58s-0.81-0.33-1.41-0.54
			c-0.87-0.3-1.59-0.59-2.14-0.87c-0.56-0.28-1.03-0.7-1.43-1.25c-0.4-0.55-0.6-1.27-0.6-2.16c0-0.82,0.21-1.53,0.63-2.13
			c0.42-0.6,0.99-1.06,1.73-1.38c0.73-0.32,1.58-0.48,2.53-0.48c1.54,0,2.76,0.36,3.66,1.09c0.9,0.73,1.42,1.73,1.53,3.01h-3.62
			c-0.07-0.46-0.23-0.82-0.5-1.08c-0.27-0.27-0.63-0.4-1.08-0.4c-0.39,0-0.71,0.1-0.95,0.31c-0.24,0.21-0.36,0.51-0.36,0.92
			c0,0.33,0.11,0.6,0.32,0.83c0.22,0.23,0.49,0.41,0.81,0.56c0.33,0.14,0.8,0.33,1.41,0.55c0.89,0.3,1.61,0.6,2.17,0.89
			c0.56,0.29,1.04,0.72,1.45,1.28c0.4,0.56,0.61,1.29,0.61,2.19C200,38.79,199.82,39.46,199.44,40.07z"/>
	</g>
</g>
</svg>
