<?xml version="1.0" encoding="utf-8"?>
<!-- Generator: Adobe Illustrator 23.0.0, SVG Export Plug-In . SVG Version: 6.00 Build 0)  -->
<svg version="1.1" id="Layer_1" xmlns="http://www.w3.org/2000/svg" xmlns:xlink="http://www.w3.org/1999/xlink" x="0px" y="0px"
	 viewBox="0 0 220 50" style="enable-background:new 0 0 220 50;" xml:space="preserve">
<style type="text/css">
	.st0{fill:#147BD1;}
</style>
<g>
	<path class="st0" d="M0,30h3.6c0.1,1,0.6,1.9,1.5,2.6c0.9,0.7,2.1,1,3.6,1c1.4,0,2.6-0.3,3.4-0.9c0.8-0.6,1.2-1.5,1.2-2.5
		c0-0.8-0.3-1.5-0.9-2c-0.6-0.5-1.5-0.9-2.7-1.2L6.1,26c-0.8-0.2-1.5-0.4-2.1-0.7c-0.6-0.3-1.2-0.7-1.7-1.2
		c-0.5-0.5-0.9-1.1-1.2-1.8c-0.3-0.7-0.4-1.5-0.4-2.4c0-1.4,0.4-2.6,1.1-3.6c0.7-1,1.7-1.8,2.9-2.3s2.6-0.7,4-0.7
		c2.3,0,4.2,0.6,5.7,1.7c1.5,1.2,2.3,2.8,2.4,4.8h-3.6c-0.1-1-0.5-1.9-1.3-2.5s-1.9-1-3.2-1c-1.3,0-2.3,0.3-3.1,0.9
		c-0.8,0.6-1.2,1.4-1.2,2.4c0,1.5,1,2.5,3.1,3l3.7,0.9c0.9,0.2,1.7,0.5,2.4,0.8c0.7,0.3,1.3,0.7,1.9,1.2c0.6,0.5,1,1.1,1.3,1.8
		c0.3,0.7,0.4,1.5,0.4,2.4c0,2.2-0.8,3.8-2.4,5.1c-1.6,1.2-3.7,1.8-6.3,1.8c-1.2,0-2.3-0.1-3.3-0.4s-1.8-0.6-2.4-1.1s-1.1-1-1.6-1.5
		c-0.4-0.6-0.7-1.2-0.9-1.8C0.1,31.2,0,30.6,0,30z"/>
	<path class="st0" d="M29,36.2h-3.7V17h-6.6v-3.2h16.9V17H29V36.2z"/>
	<path class="st0" d="M38.5,36.2h-3.8l7.7-22.4h4.2l7.7,22.4h-3.9l-2-6.2h-7.9L38.5,36.2z M44.5,17.7h-0.1l-3,9.5h6.2L44.5,17.7z"/>
	<path class="st0" d="M63.9,36.2h-3.7v-9l-7.5-13.4h4.2l5.2,9.7h0.1l5.2-9.7h4.1l-7.5,13.3V36.2z"/>
	<path d="M76.3,36.2h-2.1V13.8h2.2l7.8,18.1h0.1l7.8-18.1h2.2v22.4h-2.1V19h-0.1l-6.8,15.5h-2.1L76.4,19h-0.1V36.2z"/>
	<path d="M100.2,36.2h-2.4l8-22.4h2.3l8,22.4h-2.4l-2.4-7.1h-8.7L100.2,36.2z M107,16.7L107,16.7l-3.7,10.6h7.4L107,16.7z"/>
	<path d="M135.1,20.4h-2.3c-0.2-1.5-0.8-2.7-1.8-3.6c-1-0.9-2.4-1.4-4-1.4c-2,0-3.6,0.7-4.7,2c-1.1,1.4-1.7,3.2-1.7,5.6v3.5
		c0,2.5,0.6,4.5,1.7,5.9s2.7,2.1,4.8,2.1c1.7,0,3.2-0.5,4.2-1.4c1.1-1,1.6-2.2,1.6-3.8v-2.5h-6.2v-2.1h8.4v4.6
		c0,2.1-0.8,3.9-2.3,5.3c-1.5,1.4-3.5,2.1-5.8,2.1c-2.9,0-5-0.9-6.5-2.6c-1.5-1.8-2.2-4.3-2.2-7.5v-3.5c0-3,0.8-5.4,2.3-7.2
		c1.5-1.7,3.7-2.6,6.4-2.6c2.3,0,4.2,0.7,5.7,2C134.2,16.6,135,18.3,135.1,20.4z"/>
	<path d="M138.6,36.2v-1.7L151.2,16v-0.1H139v-2.1h15v1.6l-12.6,18.6v0.1h12.8v2.1H138.6z"/>
</g>
</svg>
