<?xml version="1.0" encoding="utf-8"?>
<!-- Generator: Adobe Illustrator 23.0.0, SVG Export Plug-In . SVG Version: 6.00 Build 0)  -->
<svg version="1.1" id="Layer_1" xmlns="http://www.w3.org/2000/svg" xmlns:xlink="http://www.w3.org/1999/xlink" x="0px" y="0px"
	 viewBox="0 0 220 50" style="enable-background:new 0 0 220 50;" xml:space="preserve">
<style type="text/css">
	.st0{fill:#3FA8EF;}
</style>
<g>
	<path class="st0" d="M14,30.9c0-1.1-0.4-1.9-1.1-2.5c-0.8-0.6-2.1-1.2-4.1-1.8s-3.5-1.2-4.7-2c-2.2-1.4-3.3-3.2-3.3-5.4
		c0-2,0.8-3.6,2.4-4.8s3.7-1.9,6.2-1.9c1.7,0,3.2,0.3,4.5,0.9s2.4,1.5,3.1,2.7s1.1,2.4,1.1,3.8H14c0-1.3-0.4-2.3-1.2-3
		c-0.8-0.7-1.9-1.1-3.4-1.1c-1.4,0-2.5,0.3-3.2,0.9S5,18.2,5,19.2c0,0.9,0.4,1.6,1.2,2.2c0.8,0.6,2.2,1.2,4.1,1.7s3.4,1.2,4.6,1.9
		c1.1,0.7,2,1.5,2.5,2.5c0.5,0.9,0.8,2,0.8,3.3c0,2-0.8,3.6-2.3,4.8c-1.6,1.2-3.7,1.8-6.3,1.8c-1.8,0-3.4-0.3-4.9-1S2,35,1.2,33.8
		c-0.8-1.1-1.2-2.5-1.2-4h4.2c0,1.4,0.5,2.5,1.4,3.2s2.2,1.1,3.9,1.1c1.5,0,2.6-0.3,3.3-0.9C13.6,32.7,14,31.9,14,30.9z"/>
	<path class="st0" d="M39.5,16.2h-7.6v20.9h-4.2V16.2h-7.5v-3.4h19.3V16.2z"/>
	<path class="st0" d="M54.3,31.5h-9.4l-2,5.7h-4.4l9.2-24.3h3.8l9.2,24.3h-4.4L54.3,31.5z M46,28.1h7.1L49.6,18L46,28.1z"/>
	<path class="st0" d="M68.9,24.4l5.6-11.5h4.7L71,28.2v9h-4.2v-9l-8.2-15.4h4.7L68.9,24.4z"/>
	<path d="M85.1,12.8l9,21.5l9-21.5h2.7v24.3h-2.1V26.6l0.2-10.9l-9.1,21.5h-1.6l-9-21.4l0.2,10.7v10.7h-2.1V12.8H85.1z"/>
	<path d="M125.4,30.3h-11l-2.5,6.8h-2.2l9.2-24.3h2l9.2,24.3H128L125.4,30.3z M115,28.6h9.8l-4.9-13.3L115,28.6z"/>
	<path d="M151.1,34.3c-0.7,1-1.8,1.8-3.4,2.4c-1.5,0.6-3.2,0.9-5.1,0.9c-1.9,0-3.6-0.5-5.1-1.4c-1.5-0.9-2.6-2.2-3.4-3.9
		s-1.2-3.6-1.2-5.7v-3.1c0-3.4,0.9-6,2.6-8c1.7-2,4-2.9,6.9-2.9c2.5,0,4.5,0.6,6,1.9s2.4,3,2.7,5.3H149c-0.3-1.8-1-3.1-2.2-4.1
		s-2.7-1.4-4.5-1.4c-2.3,0-4.1,0.8-5.4,2.4s-2,3.9-2,6.8v2.9c0,1.9,0.3,3.5,0.9,4.9c0.6,1.4,1.5,2.5,2.7,3.3
		c1.2,0.8,2.5,1.2,4.1,1.2c1.8,0,3.3-0.3,4.6-0.8c0.8-0.4,1.4-0.8,1.8-1.3v-6.3h-6.5v-1.7h8.6V34.3z"/>
	<path d="M157.8,35.4h15v1.7h-17.5v-1.6l14.4-21h-14v-1.7h16.5v1.5L157.8,35.4z"/>
</g>
</svg>
