<?xml version="1.0" encoding="utf-8"?>
<!-- Generator: Adobe Illustrator 23.0.0, SVG Export Plug-In . SVG Version: 6.00 Build 0)  -->
<svg version="1.1" id="Layer_1" xmlns="http://www.w3.org/2000/svg" xmlns:xlink="http://www.w3.org/1999/xlink" x="0px" y="0px"
	 viewBox="0 0 220 71" style="enable-background:new 0 0 220 71;" xml:space="preserve">
<style type="text/css">
	.st0{fill:#FFFFFF;}
	.st1{fill:#EEEEEE;}
</style>
<g>
	<g>
		<path class="st0" d="M39.08,27.94l4.36,11.59l4.35-11.59h3.4v15.12h-2.62v-4.99l0.26-6.67l-4.47,11.65h-1.88l-4.46-11.64
			l0.26,6.66v4.99h-2.62V27.94H39.08z"/>
		<path class="st0" d="M62.95,39.54h-5.86l-1.23,3.52h-2.73l5.71-15.12h2.36l5.72,15.12h-2.74L62.95,39.54z M57.83,37.42h4.38
			l-2.19-6.27L57.83,37.42z"/>
		<path class="st0" d="M80.65,43.06h-2.62v-6.71h-6.76v6.71h-2.63V27.94h2.63v6.29h6.76v-6.29h2.62V43.06z"/>
		<path class="st0" d="M92.4,39.54h-5.86l-1.23,3.52h-2.73l5.71-15.12h2.36l5.72,15.12h-2.74L92.4,39.54z M87.28,37.42h4.38
			l-2.19-6.27L87.28,37.42z"/>
		<path class="st0" d="M113.69,30.06h-4.72v13h-2.61v-13h-4.67v-2.12h12V30.06z"/>
		<path class="st0" d="M124.52,36.31h-6.21v4.65h7.26v2.1h-9.89V27.94h9.81v2.12h-7.19v4.17h6.21V36.31z"/>
		<path class="st0" d="M131.11,27.94l4.36,11.59l4.35-11.59h3.4v15.12h-2.62v-4.99l0.26-6.67l-4.47,11.65h-1.88l-4.46-11.64
			l0.26,6.66v4.99h-2.62V27.94H131.11z"/>
		<path class="st0" d="M148.95,37.45v5.61h-2.63V27.94h5.78c1.69,0,3.03,0.44,4.02,1.32c0.99,0.88,1.49,2.04,1.49,3.49
			c0,1.48-0.49,2.64-1.46,3.46c-0.97,0.83-2.34,1.24-4.09,1.24H148.95z M148.95,35.33h3.16c0.93,0,1.65-0.22,2.14-0.66
			c0.49-0.44,0.74-1.07,0.74-1.91c0-0.82-0.25-1.47-0.75-1.96s-1.18-0.74-2.06-0.75h-3.23V35.33z"/>
		<path class="st0" d="M162.55,40.96h6.86v2.1h-9.49V27.94h2.63V40.96z"/>
		<path class="st0" d="M180.09,39.54h-5.86l-1.23,3.52h-2.73l5.71-15.12h2.36l5.72,15.12h-2.74L180.09,39.54z M174.97,37.42h4.38
			l-2.19-6.27L174.97,37.42z"/>
		<path class="st0" d="M195.46,30.06h-4.72v13h-2.61v-13h-4.67v-2.12h12V30.06z"/>
		<path class="st0" d="M206.28,36.31h-6.21v4.65h7.26v2.1h-9.89V27.94h9.81v2.12h-7.19v4.17h6.21V36.31z"/>
		<path class="st0" d="M217.37,39.17c0-0.66-0.23-1.18-0.7-1.54s-1.31-0.72-2.53-1.09s-2.19-0.78-2.91-1.23
			c-1.38-0.87-2.07-1.99-2.07-3.39c0-1.22,0.5-2.22,1.49-3.01s2.28-1.18,3.87-1.18c1.05,0,1.99,0.19,2.81,0.58s1.47,0.94,1.94,1.66
			s0.71,1.51,0.71,2.38h-2.62c0-0.79-0.25-1.41-0.74-1.85s-1.2-0.67-2.12-0.67c-0.86,0-1.52,0.18-2,0.55s-0.71,0.88-0.71,1.54
			c0,0.55,0.26,1.02,0.77,1.39c0.51,0.37,1.36,0.73,2.53,1.08c1.18,0.35,2.12,0.75,2.84,1.19c0.71,0.45,1.24,0.96,1.57,1.54
			c0.33,0.58,0.5,1.25,0.5,2.03c0,1.26-0.48,2.26-1.45,3.01c-0.97,0.74-2.28,1.12-3.93,1.12c-1.09,0-2.1-0.2-3.02-0.61
			c-0.92-0.41-1.63-0.96-2.14-1.68c-0.51-0.71-0.76-1.54-0.76-2.49h2.63c0,0.86,0.28,1.52,0.85,1.99c0.57,0.47,1.38,0.71,2.44,0.71
			c0.91,0,1.6-0.19,2.06-0.56C217.14,40.27,217.37,39.78,217.37,39.17z"/>
	</g>
	<g>
		<polyline id="XMLID_18_" class="st1" points="11.35,43.27 22.75,36.23 22.75,31.98 11.35,39.02 		"/>
		<polyline id="XMLID_21_" class="st0" points="11.35,43.27 0,36.23 3.58,34.23 11.35,39.02 		"/>
		<polyline id="XMLID_6_" class="st0" points="0,36.23 7.59,31.98 7.59,31.98 11.35,34.77 14.26,32.71 7.59,27.73 0,31.98 		"/>
		<polyline id="XMLID_9_" class="st1" points="19.18,34.23 15.17,31.98 14.2,32.71 11.35,30.59 15.17,27.73 22.75,31.98 		"/>
	</g>
</g>
</svg>
